<svg width="190" height="45" viewBox="0 0 190 45" fill="none" xmlns="http://www.w3.org/2000/svg">
<rect width="190" height="45" fill="black" fill-opacity="0"/>
<rect x="98" y="7" width="92" height="32" fill="white"/>
<path d="M12.708 17.28C11.196 17.28 10.476 18.108 10.476 19.224C10.476 20.016 10.908 21.06 11.772 21.06C12.06 21.06 12.816 20.952 12.924 20.7C12.924 24.66 10.224 32.724 6.696 32.724C5.832 32.724 5.472 32.256 5.472 31.536C5.472 31.212 5.544 30.744 5.652 30.24L8.244 18H3.06L0.468 30.24C0.324 30.924 0.288 31.572 0.288 31.968C0.288 34.812 1.98 36.216 4.716 36.216C12.06 36.216 14.976 26.172 14.976 20.412C14.976 18.828 14.436 17.28 12.708 17.28ZM27.6143 18L27.2543 19.692C27.0023 18.036 25.4902 17.82 24.3023 17.82C18.0383 17.82 15.0503 25.56 15.0503 30.42C15.0503 34.704 17.3903 36.216 19.8383 36.216C22.3943 36.216 24.1223 34.524 25.2023 32.868C25.4902 34.92 26.7863 36 28.7303 36C30.6743 36 33.9142 35.424 35.9663 29.556H34.4543C33.9142 31.356 32.9423 32.724 31.5383 32.724C30.5303 32.724 30.0623 32.4 30.0623 31.392C30.0623 31.068 30.0983 30.708 30.2063 30.24L32.8343 18H27.6143ZM25.4183 20.052C26.5343 20.052 26.8583 20.988 26.8943 21.42L25.1663 29.556C24.7343 31.644 23.2223 32.724 22.1783 32.724C21.5303 32.724 20.3783 32.688 20.3783 29.916C20.3783 26.532 22.3583 20.052 25.4183 20.052ZM36.9155 18L33.0995 36H38.2835L41.1635 22.32C42.0995 21.456 42.8915 20.88 43.7915 20.88C44.8715 20.88 43.8635 23.148 45.8795 23.148C47.6435 23.148 48.4715 21.78 48.4715 20.52C48.4715 19.152 47.6075 17.82 45.9875 17.82C44.5475 17.82 42.9635 18.936 41.5955 20.268L42.0995 18H36.9155ZM51.1706 13.212C51.1706 14.796 52.4306 16.056 54.0146 16.056C55.5986 16.056 56.8946 14.796 56.8946 13.212C56.8946 11.628 55.5986 10.332 54.0146 10.332C52.4306 10.332 51.1706 11.628 51.1706 13.212ZM50.4506 18L48.0026 29.556C47.8226 30.42 47.7146 31.212 47.7146 31.896C47.7146 34.92 49.4066 36.216 51.5666 36.216C53.5106 36.216 57.0746 35.424 59.1266 29.556H57.6146C57.0746 31.356 55.7786 32.724 54.3746 32.724C53.3666 32.724 52.8986 32.4 52.8986 31.392C52.8986 31.068 52.9346 30.708 53.0426 30.24L55.6346 18H50.4506ZM62.4603 30.168C62.4603 29.736 62.4963 29.232 62.5323 28.728C66.8523 28.476 70.8123 25.344 70.8123 21.276C70.8123 19.476 70.0563 17.82 66.8523 17.82C59.4723 17.82 57.1323 26.388 57.1323 30.492C57.1323 34.56 59.3643 36.216 62.7483 36.216C67.5363 36.216 70.5963 32.868 72.6483 29.556H71.4243C69.6243 31.608 67.8963 33.192 65.0523 33.192C63.3243 33.192 62.4603 32.616 62.4603 30.168ZM68.0403 21.204C68.0403 24.12 65.6283 26.82 62.8203 27C63.5763 23.472 65.3403 19.728 67.1403 19.728C67.8243 19.728 68.0403 20.304 68.0403 21.204ZM74.9447 13.032L73.8647 18H72.6767L72.3887 19.44H73.5767L71.4167 29.556C71.2367 30.42 71.1287 31.212 71.1287 31.896C71.1287 34.92 72.8207 36.216 74.9807 36.216C76.9247 36.216 80.4887 35.424 82.5407 29.556H81.0287C80.4887 31.356 79.1927 32.724 77.7887 32.724C76.7807 32.724 76.3127 32.4 76.3127 31.392C76.3127 31.068 76.3487 30.708 76.4567 30.24L78.7607 19.44H80.9207L81.2087 18H79.0487L80.2727 12.312L74.9447 13.032ZM83.4623 18L81.0143 29.556C80.8343 30.42 80.7263 31.212 80.7263 31.896C80.7263 34.92 82.4183 36.216 84.5783 36.216C85.8023 36.216 87.4223 35.892 88.9703 34.128L88.6103 35.712C85.1903 36.72 82.3823 37.764 82.3823 41.112C82.3823 43.452 84.4343 45 86.6303 45C89.0063 45 92.1023 44.028 93.1823 38.88L97.5743 18H92.3543L89.9063 29.556C89.3663 31.356 88.4303 32.724 87.0263 32.724C86.1983 32.724 85.9463 31.968 85.9463 31.14C85.9463 30.852 85.9823 30.528 86.0543 30.24L88.6463 18H83.4623ZM84.3623 40.608C84.3623 38.664 86.0903 37.62 88.3583 36.864L87.9263 38.988C87.4583 41.112 86.5223 41.796 85.8023 41.796C85.0103 41.796 84.3623 41.112 84.3623 40.608Z" fill="white"/>
<path d="M99.7734 36V10.4062H108.967C112.26 10.4062 114.762 11.0098 116.473 12.2168C118.195 13.4238 119.057 15.1758 119.057 17.4727C119.057 18.7969 118.752 19.9277 118.143 20.8652C117.533 21.8027 116.637 22.4941 115.453 22.9395C116.789 23.291 117.814 23.9473 118.529 24.9082C119.244 25.8691 119.602 27.041 119.602 28.4238C119.602 30.9316 118.805 32.8184 117.211 34.084C115.629 35.3379 113.279 35.9766 110.162 36H99.7734ZM105.943 25.1191V31.2539H109.986C111.1 31.2539 111.955 31.002 112.553 30.498C113.15 29.9824 113.449 29.2617 113.449 28.3359C113.449 26.2031 112.389 25.1309 110.268 25.1191H105.943ZM105.943 21.0762H109.16C110.508 21.0645 111.469 20.8184 112.043 20.3379C112.617 19.8574 112.904 19.1484 112.904 18.2109C112.904 17.1328 112.594 16.3594 111.973 15.8906C111.352 15.4102 110.35 15.1699 108.967 15.1699H105.943V21.0762ZM144.686 23.7305C144.686 26.2266 144.223 28.4355 143.297 30.3574C142.371 32.2793 141.053 33.7617 139.342 34.8047C137.643 35.8359 135.703 36.3516 133.523 36.3516C131.344 36.3516 129.41 35.8535 127.723 34.8574C126.035 33.8496 124.717 32.4141 123.768 30.5508C122.83 28.6875 122.338 26.5488 122.291 24.1348V22.6934C122.291 20.1855 122.748 17.9766 123.662 16.0664C124.588 14.1445 125.906 12.6621 127.617 11.6191C129.34 10.5762 131.297 10.0547 133.488 10.0547C135.656 10.0547 137.59 10.5703 139.289 11.6016C140.988 12.6328 142.307 14.1035 143.244 16.0137C144.193 17.9121 144.674 20.0918 144.686 22.5527V23.7305ZM138.41 22.6582C138.41 20.1152 137.982 18.1875 137.127 16.875C136.283 15.5508 135.07 14.8887 133.488 14.8887C130.395 14.8887 128.76 17.209 128.584 21.8496L128.566 23.7305C128.566 26.2383 128.982 28.166 129.814 29.5137C130.646 30.8613 131.883 31.5352 133.523 31.5352C135.082 31.5352 136.283 30.873 137.127 29.5488C137.971 28.2246 138.398 26.3203 138.41 23.8359V22.6582ZM166.447 15.1699H158.766V36H152.596V15.1699H145.055V10.4062H166.447V15.1699ZM181.986 29.1973C181.986 28.2949 181.664 27.5918 181.02 27.0879C180.387 26.584 179.268 26.0625 177.662 25.5234C176.057 24.9844 174.744 24.4629 173.725 23.959C170.408 22.3301 168.75 20.0918 168.75 17.2441C168.75 15.8262 169.16 14.5781 169.98 13.5C170.812 12.4102 171.984 11.5664 173.496 10.9688C175.008 10.3594 176.707 10.0547 178.594 10.0547C180.434 10.0547 182.08 10.3828 183.533 11.0391C184.998 11.6953 186.135 12.6328 186.943 13.8516C187.752 15.0586 188.156 16.4414 188.156 18H182.004C182.004 16.957 181.682 16.1484 181.037 15.5742C180.404 15 179.543 14.7129 178.453 14.7129C177.352 14.7129 176.479 14.959 175.834 15.4512C175.201 15.9316 174.885 16.5469 174.885 17.2969C174.885 17.9531 175.236 18.5508 175.939 19.0898C176.643 19.6172 177.879 20.168 179.648 20.7422C181.418 21.3047 182.871 21.9141 184.008 22.5703C186.773 24.1641 188.156 26.3613 188.156 29.1621C188.156 31.4004 187.312 33.1582 185.625 34.4355C183.938 35.7129 181.623 36.3516 178.682 36.3516C176.607 36.3516 174.727 35.9824 173.039 35.2441C171.363 34.4941 170.098 33.4746 169.242 32.1855C168.398 30.8848 167.977 29.3906 167.977 27.7031H174.164C174.164 29.0742 174.516 30.0879 175.219 30.7441C175.934 31.3887 177.088 31.7109 178.682 31.7109C179.701 31.7109 180.504 31.4941 181.09 31.0605C181.688 30.6152 181.986 29.9941 181.986 29.1973Z" fill="black"/>
</svg>
