<svg width="44" height="15" viewBox="0 0 44 15" fill="none" xmlns="http://www.w3.org/2000/svg">
<rect width="44" height="15" fill="black" fill-opacity="0"/>
<rect x="14" y="2" width="30" height="11" fill="white"/>
<path d="M0.204 9.852C0.144 10.104 0.12 10.332 0.12 10.536C0.12 11.496 0.696 12.072 1.8 12.072C4.344 12.072 5.088 9.42 5.088 8.016C5.088 6.492 4.512 5.94 3.672 5.94C3.432 5.94 3.18 6 2.688 6.3L3.264 3.6L1.488 3.84L0.204 9.852ZM3.876 7.968C3.876 9.228 3.252 10.908 2.472 10.908C2.04 10.908 1.836 10.704 1.836 10.356C1.836 10.272 1.848 10.176 1.872 10.08L2.532 7.032C2.664 6.876 3.072 6.816 3.24 6.816C3.672 6.816 3.876 7.38 3.876 7.968ZM8.65603 5.94C6.18403 5.94 5.36803 8.796 5.36803 10.176C5.36803 11.544 6.17203 12.072 7.28803 12.072C8.76403 12.072 9.97603 10.668 10.168 8.436C11.032 8.292 11.824 7.932 12.28 7.44L12.172 7.116C11.656 7.476 10.876 7.836 10.324 7.836C10.288 7.836 10.24 7.836 10.192 7.824C10.18 6.576 9.67603 5.94 8.65603 5.94ZM7.76803 10.944C7.31203 10.944 7.15603 10.764 7.15603 9.972C7.15603 8.796 7.90003 6.66 8.75203 6.66C9.05203 6.66 9.18403 6.84 9.20803 7.332C8.99203 7.416 8.83603 7.632 8.83603 7.968C8.83603 8.208 8.90803 8.412 9.16003 8.472C8.98003 9.888 8.35603 10.944 7.76803 10.944ZM13.3055 6.48H14.0255L14.1215 6H13.4015C13.6295 4.92 13.8095 4.104 13.8095 4.104L12.0335 4.344L11.6735 6H11.2775L11.1815 6.48H11.5775L10.8095 10.08C10.7615 10.296 10.7375 10.512 10.7375 10.716C10.7375 11.484 11.0975 12.072 11.9375 12.072C12.3455 12.072 12.8735 11.928 13.2095 10.896C13.1135 10.932 12.9815 10.932 12.8975 10.932C12.5735 10.932 12.4775 10.752 12.4775 10.5C12.4775 10.368 12.5015 10.224 12.5375 10.08L13.3055 6.48Z" fill="white"/>
<path d="M14.5898 12V3.46875H17.6543C18.752 3.46875 19.5859 3.66992 20.1562 4.07227C20.7305 4.47461 21.0176 5.05859 21.0176 5.82422C21.0176 6.26562 20.916 6.64258 20.7129 6.95508C20.5098 7.26758 20.2109 7.49805 19.8164 7.64648C20.2617 7.76367 20.6035 7.98242 20.8418 8.30273C21.0801 8.62305 21.1992 9.01367 21.1992 9.47461C21.1992 10.3105 20.9336 10.9395 20.4023 11.3613C19.875 11.7793 19.0918 11.9922 18.0527 12H14.5898ZM16.6465 8.37305V10.418H17.9941C18.3652 10.418 18.6504 10.334 18.8496 10.166C19.0488 9.99414 19.1484 9.75391 19.1484 9.44531C19.1484 8.73438 18.7949 8.37695 18.0879 8.37305H16.6465ZM16.6465 7.02539H17.7188C18.168 7.02148 18.4883 6.93945 18.6797 6.7793C18.8711 6.61914 18.9668 6.38281 18.9668 6.07031C18.9668 5.71094 18.8633 5.45312 18.6562 5.29688C18.4492 5.13672 18.1152 5.05664 17.6543 5.05664H16.6465V7.02539ZM24.3926 10.418H27.9727V12H22.3359V3.46875H24.3926V10.418ZM28.8398 12V3.46875H31.5879C32.3418 3.46875 33.0195 3.64062 33.6211 3.98438C34.2227 4.32422 34.6914 4.80664 35.0273 5.43164C35.3672 6.05273 35.5391 6.75 35.543 7.52344V7.91602C35.543 8.69727 35.377 9.39844 35.0449 10.0195C34.7168 10.6367 34.252 11.1211 33.6504 11.4727C33.0527 11.8203 32.3848 11.9961 31.6465 12H28.8398ZM30.8965 5.05664V10.418H31.6113C32.2012 10.418 32.6543 10.209 32.9707 9.79102C33.2871 9.36914 33.4453 8.74414 33.4453 7.91602V7.54688C33.4453 6.72266 33.2871 6.10156 32.9707 5.68359C32.6543 5.26562 32.1934 5.05664 31.5879 5.05664H30.8965ZM39.7676 8.98828H38.6543V12H36.5977V3.46875H39.9551C40.9668 3.46875 41.7578 3.69336 42.3281 4.14258C42.8984 4.5918 43.1836 5.22656 43.1836 6.04688C43.1836 6.64062 43.0625 7.13281 42.8203 7.52344C42.582 7.91406 42.207 8.23047 41.6953 8.47266L43.4766 11.9121V12H41.2734L39.7676 8.98828ZM38.6543 7.40039H39.9551C40.3457 7.40039 40.6387 7.29883 40.834 7.0957C41.0332 6.88867 41.1328 6.60156 41.1328 6.23438C41.1328 5.86719 41.0332 5.58008 40.834 5.37305C40.6348 5.16211 40.3418 5.05664 39.9551 5.05664H38.6543V7.40039Z" fill="black"/>
</svg>
