<svg width="84" height="100" viewBox="0 0 84 100" fill="none" xmlns="http://www.w3.org/2000/svg">
<rect width="83.3333" height="100" fill="black" fill-opacity="0"/>
<path d="M16.6667 58.3333H41.6667V33.3333C55.4542 33.3333 66.6667 44.5458 66.6667 58.3333C66.6667 72.1208 55.4542 83.3333 41.6667 83.3333C27.8792 83.3333 16.6667 72.1208 16.6667 58.3333ZM83.3333 58.3333C83.3333 81.3458 64.675 100 41.6667 100C18.6583 100 0 81.3458 0 58.3333C0 35.3208 18.6583 16.6667 41.6667 16.6667C64.675 16.6667 83.3333 35.3208 83.3333 58.3333ZM75 58.3333C75 39.9542 60.0458 25 41.6667 25C23.2875 25 8.33333 39.9542 8.33333 58.3333C8.33333 76.7125 23.2875 91.6667 41.6667 91.6667C60.0458 91.6667 75 76.7125 75 58.3333ZM50 9.0875V0H33.3333V9.0875C39.2 8.09583 44.0083 8.075 50 9.0875ZM77.8292 23.8958L83.3333 18.3917L77.4417 12.5L71.5792 18.3625C73.8125 20.0375 75.9042 21.8792 77.8292 23.8958V23.8958Z" fill="#2F80ED"/>
</svg>
