<svg width="100" height="100" viewBox="0 0 100 100" fill="none" xmlns="http://www.w3.org/2000/svg">
<g filter="url(#filter0_i)">
<rect width="100" height="100" fill="black" fill-opacity="0"/>
<path fill-rule="evenodd" clip-rule="evenodd" d="M50 0C22.3917 0 0 22.3833 0 50C0 77.6125 22.3917 100 50 100C77.6125 100 100 77.6125 100 50C100 22.3833 77.6125 0 50 0ZM63.5333 76.45L61.9875 71.0542L65.7208 74.525L69.25 77.7917L75.5208 83.3333V31.0083C75.5208 27.6833 72.8375 25 69.5417 25H30.4583C27.1625 25 24.4792 27.6833 24.4792 31.0083V70.4417C24.4792 73.7667 27.1625 76.45 30.4583 76.45H63.5333V76.45ZM58.2833 63.0917L56.3583 60.7292C60.1792 59.65 61.6375 57.2583 61.6375 57.2583C60.4417 58.0458 59.3042 58.6 58.2833 58.9792C56.825 59.5917 55.425 60 54.0542 60.2333C51.2542 60.7583 48.6875 60.6125 46.5 60.2042C44.8375 59.8833 43.4083 59.4167 42.2125 58.95C41.5417 58.6875 40.8125 58.3667 40.0833 57.9583L39.9667 57.8917L39.9375 57.8792L39.8208 57.8125L39.7042 57.725L38.8875 57.2292C38.8875 57.2292 40.2875 59.5625 43.9917 60.6708L42.0375 63.0917C35.5917 62.8875 33.1417 58.6583 33.1417 58.6583C33.1417 49.2667 37.3417 41.6542 37.3417 41.6542C41.5417 38.5042 45.5375 38.5917 45.5375 38.5917L45.8292 38.9417C40.5792 40.4583 38.1583 42.7625 38.1583 42.7625L39.8792 41.9167C43 40.5458 45.4792 40.1667 46.5 40.0792L46.9958 40.0208C48.775 39.7875 50.7875 39.7292 52.8875 39.9625C55.6583 40.2833 58.6333 41.1 61.6667 42.7625C61.6667 42.7625 59.3625 40.575 54.4042 39.0583L54.8125 38.5917C54.8125 38.5917 58.8083 38.5042 63.0083 41.6542C63.0083 41.6542 67.2083 49.2667 67.2083 58.6583C67.2083 58.6583 64.8208 62.7292 58.2833 63.0917V63.0917ZM55.3667 49.4708C53.7042 49.4708 52.3917 50.9292 52.3917 52.7083C52.3917 54.4875 53.7333 55.9458 55.3667 55.9458C57.0292 55.9458 58.3417 54.4875 58.3417 52.7083C58.3417 50.9292 57.0292 49.4708 55.3667 49.4708ZM44.7208 49.4708C43.0583 49.4708 41.7458 50.9292 41.7458 52.7083C41.7458 54.4875 43.0875 55.9458 44.7208 55.9458C46.3833 55.9458 47.6958 54.4875 47.6958 52.7083C47.725 50.9292 46.3833 49.4708 44.7208 49.4708Z" fill="#2F80ED"/>
</g>
<defs>
<filter id="filter0_i" x="0" y="0" width="100" height="104" filterUnits="userSpaceOnUse" color-interpolation-filters="sRGB">
<feFlood flood-opacity="0" result="BackgroundImageFix"/>
<feBlend mode="normal" in="SourceGraphic" in2="BackgroundImageFix" result="shape"/>
<feColorMatrix in="SourceAlpha" type="matrix" values="0 0 0 0 0 0 0 0 0 0 0 0 0 0 0 0 0 0 255 0" result="hardAlpha"/>
<feOffset dy="4"/>
<feGaussianBlur stdDeviation="2"/>
<feComposite in2="hardAlpha" operator="arithmetic" k2="-1" k3="1"/>
<feColorMatrix type="matrix" values="0 0 0 0 0 0 0 0 0 0 0 0 0 0 0 0 0 0 0.25 0"/>
<feBlend mode="normal" in2="shape" result="effect1_innerShadow"/>
</filter>
</defs>
</svg>
