<svg width="100" height="100" viewBox="0 0 100 100" fill="none" xmlns="http://www.w3.org/2000/svg">
<g filter="url(#filter0_i)">
<rect width="100" height="100" fill="black" fill-opacity="0"/>
<path d="M50 0C22.3875 0 0 22.3875 0 50C0 77.6125 22.3875 100 50 100C77.6125 100 100 77.6125 100 50C100 22.3875 77.6125 0 50 0ZM62.5 33.3333H56.875C54.6333 33.3333 54.1667 34.2542 54.1667 36.575V41.6667H62.5L61.6292 50H54.1667V79.1667H41.6667V50H33.3333V41.6667H41.6667V32.05C41.6667 24.6792 45.5458 20.8333 54.2875 20.8333H62.5V33.3333Z" fill="#2F80ED"/>
</g>
<defs>
<filter id="filter0_i" x="0" y="0" width="100" height="104" filterUnits="userSpaceOnUse" color-interpolation-filters="sRGB">
<feFlood flood-opacity="0" result="BackgroundImageFix"/>
<feBlend mode="normal" in="SourceGraphic" in2="BackgroundImageFix" result="shape"/>
<feColorMatrix in="SourceAlpha" type="matrix" values="0 0 0 0 0 0 0 0 0 0 0 0 0 0 0 0 0 0 255 0" result="hardAlpha"/>
<feOffset dy="4"/>
<feGaussianBlur stdDeviation="2"/>
<feComposite in2="hardAlpha" operator="arithmetic" k2="-1" k3="1"/>
<feColorMatrix type="matrix" values="0 0 0 0 0 0 0 0 0 0 0 0 0 0 0 0 0 0 0.25 0"/>
<feBlend mode="normal" in2="shape" result="effect1_innerShadow"/>
</filter>
</defs>
</svg>
