<svg width="1008" height="308" viewBox="0 0 1008 308" fill="none" xmlns="http://www.w3.org/2000/svg">
<rect width="1000" height="300" fill="black" fill-opacity="0" transform="translate(4)"/>
<rect width="1000" height="300" fill="#EBEBEB" transform="translate(4)"/>
<g filter="url(#filter0_d)">
<rect x="4" width="1000" height="300" fill="#F3F5F9"/>
</g>
<rect width="536" height="231" fill="black" fill-opacity="0" transform="translate(258 34)"/>
<path d="M264.925 257.336C264.834 258.092 264.626 258.774 264.303 259.38C263.979 259.986 263.587 260.435 263.127 260.727C262.667 261.018 262.156 261.157 261.596 261.144C260.702 261.125 260.039 260.79 259.606 260.139L259.354 261H258.212L260.037 250.5H261.274L260.529 254.424C261.122 253.768 261.842 253.449 262.689 253.467C263.4 253.485 263.954 253.747 264.351 254.253C264.747 254.759 264.957 255.456 264.979 256.345C264.984 256.636 264.97 256.919 264.938 257.192L264.925 257.336ZM263.749 256.618C263.763 255.953 263.651 255.445 263.414 255.094C263.177 254.738 262.815 254.551 262.327 254.533C261.557 254.515 260.905 254.902 260.372 255.695L259.818 258.915C260.092 259.667 260.604 260.052 261.356 260.07C261.84 260.089 262.261 259.945 262.621 259.64C262.986 259.334 263.261 258.908 263.448 258.361C263.635 257.81 263.735 257.229 263.749 256.618ZM270.018 253.467C270.637 253.476 271.168 253.645 271.61 253.973C272.052 254.301 272.378 254.754 272.588 255.333C272.802 255.907 272.875 256.536 272.807 257.22L272.793 257.37C272.706 258.09 272.492 258.742 272.15 259.325C271.809 259.904 271.367 260.355 270.824 260.679C270.282 261.002 269.687 261.155 269.04 261.137C268.425 261.128 267.894 260.959 267.447 260.631C267.005 260.303 266.682 259.856 266.477 259.291C266.271 258.726 266.199 258.104 266.258 257.425C266.326 256.659 266.534 255.971 266.88 255.36C267.226 254.75 267.671 254.278 268.213 253.945C268.76 253.608 269.361 253.449 270.018 253.467ZM267.502 257.432C267.47 257.719 267.47 258.017 267.502 258.327C267.548 258.865 267.707 259.293 267.98 259.612C268.258 259.931 268.628 260.098 269.088 260.111C269.498 260.125 269.876 260.025 270.223 259.811C270.569 259.592 270.861 259.264 271.098 258.826C271.335 258.389 271.487 257.903 271.556 257.37C271.592 256.951 271.599 256.598 271.576 256.311C271.521 255.759 271.355 255.324 271.077 255.005C270.799 254.686 270.43 254.517 269.97 254.499C269.332 254.485 268.789 254.736 268.343 255.251C267.896 255.766 267.62 256.44 267.516 257.274L267.502 257.432ZM276.997 251.812L276.683 253.604H278.029L277.858 254.581H276.519L275.746 259.182C275.732 259.3 275.73 259.41 275.739 259.51C275.771 259.865 275.965 260.043 276.32 260.043C276.471 260.043 276.671 260.02 276.922 259.975L276.826 261.007C276.53 261.089 276.229 261.13 275.924 261.13C275.432 261.121 275.062 260.941 274.816 260.59C274.57 260.234 274.475 259.758 274.529 259.161L275.281 254.581H273.976L274.146 253.604H275.452L275.767 251.812H276.997ZM278.433 261L280.162 251.047L283.081 251.054C284.097 251.054 284.858 251.282 285.364 251.737C285.87 252.193 286.091 252.829 286.027 253.645C285.945 254.597 285.346 255.315 284.229 255.798C284.676 255.971 285.009 256.267 285.228 256.687C285.451 257.106 285.542 257.568 285.501 258.074C285.433 258.972 285.073 259.685 284.421 260.214C283.769 260.738 282.926 261 281.892 261H278.433ZM280.524 256.345L279.902 259.927L281.933 259.934C282.552 259.934 283.072 259.767 283.491 259.435C283.91 259.102 284.154 258.653 284.223 258.088C284.286 257.55 284.193 257.131 283.942 256.83C283.692 256.529 283.298 256.37 282.76 256.352L280.524 256.345ZM280.709 255.292L282.562 255.299C283.14 255.299 283.628 255.151 284.024 254.854C284.425 254.558 284.66 254.15 284.729 253.631C284.788 253.148 284.692 252.783 284.441 252.537C284.195 252.291 283.785 252.157 283.211 252.134L281.256 252.127L280.709 255.292ZM288.44 259.927H293.021L292.829 261H286.964L288.693 251.047H289.985L288.44 259.927ZM294.347 261L296.076 251.047L298.66 251.054C299.471 251.054 300.169 251.257 300.752 251.662C301.34 252.068 301.761 252.628 302.017 253.344C302.272 254.055 302.347 254.852 302.242 255.736L302.174 256.235C301.973 257.685 301.41 258.842 300.485 259.708C299.56 260.569 298.398 261 296.999 261H294.347ZM297.17 252.127L295.816 259.927L297.081 259.934C298.047 259.934 298.865 259.633 299.535 259.031C300.21 258.43 300.647 257.605 300.848 256.557C301.007 255.718 301.062 255.005 301.012 254.417C300.943 253.711 300.709 253.159 300.308 252.763C299.907 252.362 299.369 252.152 298.694 252.134L297.17 252.127ZM307.608 256.974H305.312L304.614 261H303.322L305.052 251.047L308.046 251.054C309.09 251.058 309.885 251.323 310.432 251.847C310.979 252.371 311.209 253.084 311.122 253.986C311.072 254.611 310.844 255.16 310.438 255.634C310.037 256.108 309.502 256.465 308.832 256.707L310.377 260.911L310.37 261H309.003L307.608 256.974ZM305.496 255.9L307.383 255.907C308.039 255.907 308.593 255.734 309.044 255.388C309.495 255.037 309.759 254.57 309.837 253.986C309.905 253.417 309.791 252.97 309.495 252.646C309.199 252.323 308.748 252.152 308.142 252.134L306.152 252.127L305.496 255.9ZM318.129 260.111C318.571 260.12 318.97 259.993 319.325 259.729C319.681 259.46 319.913 259.109 320.022 258.676L321.191 258.669C321.123 259.134 320.936 259.558 320.631 259.94C320.33 260.323 319.95 260.622 319.489 260.836C319.029 261.05 318.557 261.15 318.074 261.137C317.459 261.128 316.937 260.968 316.509 260.658C316.085 260.344 315.773 259.909 315.572 259.353C315.372 258.792 315.303 258.163 315.367 257.466L315.401 257.124C315.488 256.413 315.695 255.777 316.023 255.217C316.352 254.656 316.78 254.221 317.309 253.911C317.837 253.597 318.421 253.449 319.059 253.467C319.833 253.485 320.453 253.745 320.918 254.246C321.383 254.747 321.615 255.383 321.615 256.153L320.46 256.146C320.451 255.663 320.316 255.274 320.057 254.978C319.797 254.677 319.446 254.517 319.004 254.499C318.361 254.485 317.826 254.725 317.397 255.217C316.974 255.709 316.709 256.397 316.604 257.281L316.584 257.459C316.557 257.751 316.552 258.051 316.57 258.361C316.602 258.895 316.753 259.316 317.021 259.626C317.29 259.936 317.66 260.098 318.129 260.111ZM326.879 260.269C326.3 260.866 325.564 261.155 324.671 261.137C323.965 261.118 323.44 260.866 323.099 260.378C322.761 259.89 322.636 259.225 322.723 258.382L323.516 253.604H324.753L323.953 258.402C323.93 258.603 323.926 258.799 323.939 258.99C323.962 259.318 324.06 259.576 324.233 259.763C324.407 259.95 324.648 260.05 324.958 260.063C325.842 260.091 326.526 259.733 327.009 258.99L327.938 253.604H329.176L327.891 261H326.722L326.879 260.269ZM334.344 254.731L333.763 254.67C332.97 254.67 332.345 255.028 331.89 255.743L330.98 261H329.743L331.028 253.604L332.225 253.597L332.04 254.458C332.564 253.77 333.182 253.435 333.893 253.453C334.043 253.453 334.239 253.487 334.48 253.556L334.344 254.731ZM339.006 254.731L338.425 254.67C337.632 254.67 337.007 255.028 336.552 255.743L335.643 261H334.405L335.69 253.604L336.887 253.597L336.702 254.458C337.226 253.77 337.844 253.435 338.555 253.453C338.705 253.453 338.901 253.487 339.143 253.556L339.006 254.731ZM342.13 261.137C341.209 261.118 340.489 260.779 339.97 260.118C339.45 259.457 339.231 258.612 339.313 257.582L339.348 257.288C339.425 256.554 339.642 255.884 339.997 255.278C340.357 254.672 340.795 254.216 341.31 253.911C341.825 253.601 342.381 253.453 342.978 253.467C343.739 253.485 344.336 253.738 344.769 254.226C345.201 254.713 345.438 255.374 345.479 256.208C345.493 256.504 345.484 256.8 345.452 257.097L345.377 257.664H340.544C340.462 258.334 340.571 258.904 340.872 259.373C341.177 259.842 341.631 260.086 342.232 260.104C342.962 260.123 343.636 259.795 344.256 259.12L344.967 259.722C344.657 260.168 344.256 260.519 343.764 260.774C343.276 261.025 342.731 261.146 342.13 261.137ZM342.916 254.499C342.406 254.485 341.959 254.659 341.576 255.019C341.198 255.379 340.897 255.914 340.674 256.625L344.27 256.632L344.297 256.522C344.37 255.948 344.276 255.472 344.017 255.094C343.761 254.711 343.395 254.513 342.916 254.499ZM348.645 253.597L348.467 254.533C349.132 253.804 349.889 253.449 350.736 253.467C351.434 253.485 351.949 253.727 352.281 254.191C352.614 254.656 352.737 255.31 352.65 256.153L351.844 261H350.606L351.42 256.133C351.447 255.91 351.45 255.702 351.427 255.511C351.349 254.873 350.973 254.547 350.299 254.533C349.556 254.52 348.904 254.916 348.344 255.723L347.428 261H346.19L347.476 253.604L348.645 253.597ZM357.019 251.812L356.704 253.604H358.051L357.88 254.581H356.54L355.768 259.182C355.754 259.3 355.752 259.41 355.761 259.51C355.793 259.865 355.986 260.043 356.342 260.043C356.492 260.043 356.693 260.02 356.943 259.975L356.848 261.007C356.551 261.089 356.251 261.13 355.945 261.13C355.453 261.121 355.084 260.941 354.838 260.59C354.592 260.234 354.496 259.758 354.551 259.161L355.303 254.581H353.997L354.168 253.604H355.474L355.788 251.812H357.019ZM359.603 261H358.372L360.19 250.5H361.428L359.603 261ZM364.278 259.134L366.91 253.604H368.277L363.889 262.23C363.278 263.429 362.494 264.021 361.537 264.008C361.368 264.003 361.12 263.962 360.792 263.885L360.901 262.859L361.223 262.894C361.615 262.912 361.952 262.823 362.234 262.627C362.521 262.436 362.774 262.123 362.993 261.69L363.438 260.843L362.159 253.604H363.451L364.278 259.134ZM376.132 258.997C376.2 258.487 375.92 258.127 375.291 257.917L374.006 257.541C372.921 257.167 372.397 256.548 372.434 255.682C372.465 255.03 372.762 254.497 373.322 254.082C373.887 253.663 374.55 253.458 375.312 253.467C376.059 253.476 376.665 253.695 377.13 254.123C377.599 254.547 377.825 255.101 377.807 255.784L376.576 255.777C376.585 255.408 376.469 255.107 376.228 254.875C375.986 254.643 375.665 254.522 375.264 254.513C374.835 254.504 374.466 254.608 374.156 254.827C373.869 255.032 373.703 255.301 373.657 255.634C373.598 256.062 373.86 256.374 374.443 256.57L375.065 256.741C375.913 256.96 376.515 257.245 376.87 257.596C377.226 257.947 377.39 258.382 377.362 258.901C377.335 259.362 377.185 259.763 376.911 260.104C376.638 260.446 376.273 260.708 375.817 260.891C375.362 261.068 374.876 261.15 374.361 261.137C373.577 261.128 372.93 260.9 372.42 260.453C371.91 260.002 371.663 259.423 371.682 258.717L372.919 258.724C372.919 259.138 373.051 259.471 373.315 259.722C373.58 259.972 373.942 260.098 374.402 260.098C374.854 260.107 375.243 260.013 375.571 259.817C375.899 259.617 376.086 259.343 376.132 258.997ZM383.316 260.269C382.738 260.866 382.002 261.155 381.108 261.137C380.402 261.118 379.878 260.866 379.536 260.378C379.199 259.89 379.074 259.225 379.16 258.382L379.953 253.604H381.19L380.391 258.402C380.368 258.603 380.363 258.799 380.377 258.99C380.4 259.318 380.498 259.576 380.671 259.763C380.844 259.95 381.086 260.05 381.396 260.063C382.28 260.091 382.963 259.733 383.446 258.99L384.376 253.604H385.613L384.328 261H383.159L383.316 260.269ZM392.88 257.336C392.789 258.088 392.586 258.765 392.271 259.366C391.957 259.968 391.567 260.419 391.103 260.72C390.638 261.016 390.123 261.157 389.558 261.144C388.701 261.125 388.045 260.836 387.589 260.275L386.926 263.844H385.688L387.466 253.604L388.587 253.597L388.45 254.424C389.061 253.768 389.792 253.449 390.645 253.467C391.355 253.485 391.909 253.747 392.306 254.253C392.702 254.759 392.912 255.456 392.935 256.345C392.939 256.636 392.928 256.919 392.9 257.192L392.88 257.336ZM391.663 257.192L391.697 256.618C391.697 255.953 391.57 255.445 391.314 255.094C391.064 254.738 390.699 254.551 390.221 254.533C389.505 254.515 388.888 254.854 388.368 255.552L387.746 259.1C388.024 259.756 388.523 260.093 389.243 260.111C389.858 260.125 390.38 259.886 390.809 259.394C391.242 258.897 391.526 258.163 391.663 257.192ZM400.577 257.336C400.486 258.088 400.283 258.765 399.969 259.366C399.654 259.968 399.265 260.419 398.8 260.72C398.335 261.016 397.82 261.157 397.255 261.144C396.398 261.125 395.742 260.836 395.286 260.275L394.623 263.844H393.386L395.163 253.604L396.284 253.597L396.147 254.424C396.758 253.768 397.49 253.449 398.342 253.467C399.053 253.485 399.606 253.747 400.003 254.253C400.399 254.759 400.609 255.456 400.632 256.345C400.636 256.636 400.625 256.919 400.598 257.192L400.577 257.336ZM399.36 257.192L399.395 256.618C399.395 255.953 399.267 255.445 399.012 255.094C398.761 254.738 398.396 254.551 397.918 254.533C397.202 254.515 396.585 254.854 396.065 255.552L395.443 259.1C395.721 259.756 396.22 260.093 396.94 260.111C397.556 260.125 398.077 259.886 398.506 259.394C398.939 258.897 399.224 258.163 399.36 257.192ZM405.684 253.467C406.303 253.476 406.834 253.645 407.276 253.973C407.718 254.301 408.044 254.754 408.254 255.333C408.468 255.907 408.541 256.536 408.473 257.22L408.459 257.37C408.372 258.09 408.158 258.742 407.816 259.325C407.475 259.904 407.033 260.355 406.49 260.679C405.948 261.002 405.353 261.155 404.706 261.137C404.091 261.128 403.56 260.959 403.113 260.631C402.671 260.303 402.348 259.856 402.143 259.291C401.938 258.726 401.865 258.104 401.924 257.425C401.992 256.659 402.2 255.971 402.546 255.36C402.892 254.75 403.337 254.278 403.879 253.945C404.426 253.608 405.027 253.449 405.684 253.467ZM403.168 257.432C403.136 257.719 403.136 258.017 403.168 258.327C403.214 258.865 403.373 259.293 403.646 259.612C403.924 259.931 404.294 260.098 404.754 260.111C405.164 260.125 405.542 260.025 405.889 259.811C406.235 259.592 406.527 259.264 406.764 258.826C407.001 258.389 407.153 257.903 407.222 257.37C407.258 256.951 407.265 256.598 407.242 256.311C407.188 255.759 407.021 255.324 406.743 255.005C406.465 254.686 406.096 254.517 405.636 254.499C404.998 254.485 404.455 254.736 404.009 255.251C403.562 255.766 403.286 256.44 403.182 257.274L403.168 257.432ZM413.996 254.731L413.415 254.67C412.622 254.67 411.998 255.028 411.542 255.743L410.633 261H409.396L410.681 253.604L411.877 253.597L411.692 254.458C412.216 253.77 412.834 253.435 413.545 253.453C413.695 253.453 413.891 253.487 414.133 253.556L413.996 254.731ZM417.667 251.812L417.353 253.604H418.699L418.528 254.581H417.188L416.416 259.182C416.402 259.3 416.4 259.41 416.409 259.51C416.441 259.865 416.635 260.043 416.99 260.043C417.141 260.043 417.341 260.02 417.592 259.975L417.496 261.007C417.2 261.089 416.899 261.13 416.594 261.13C416.102 261.121 415.732 260.941 415.486 260.59C415.24 260.234 415.145 259.758 415.199 259.161L415.951 254.581H414.646L414.816 253.604H416.122L416.437 251.812H417.667ZM423.491 258.997C423.56 258.487 423.279 258.127 422.65 257.917L421.365 257.541C420.281 257.167 419.757 256.548 419.793 255.682C419.825 255.03 420.121 254.497 420.682 254.082C421.247 253.663 421.91 253.458 422.671 253.467C423.418 253.476 424.024 253.695 424.489 254.123C424.959 254.547 425.184 255.101 425.166 255.784L423.936 255.777C423.945 255.408 423.828 255.107 423.587 254.875C423.345 254.643 423.024 254.522 422.623 254.513C422.195 254.504 421.826 254.608 421.516 254.827C421.229 255.032 421.062 255.301 421.017 255.634C420.957 256.062 421.219 256.374 421.803 256.57L422.425 256.741C423.272 256.96 423.874 257.245 424.229 257.596C424.585 257.947 424.749 258.382 424.722 258.901C424.694 259.362 424.544 259.763 424.271 260.104C423.997 260.446 423.632 260.708 423.177 260.891C422.721 261.068 422.236 261.15 421.721 261.137C420.937 261.128 420.29 260.9 419.779 260.453C419.269 260.002 419.023 259.423 419.041 258.717L420.278 258.724C420.278 259.138 420.41 259.471 420.675 259.722C420.939 259.972 421.301 260.098 421.762 260.098C422.213 260.107 422.603 260.013 422.931 259.817C423.259 259.617 423.446 259.343 423.491 258.997ZM430.013 261L431.134 254.581H429.992L430.163 253.604H431.298L431.421 252.729C431.539 251.986 431.826 251.405 432.282 250.985C432.761 250.548 433.371 250.334 434.114 250.343C434.347 250.343 434.641 250.382 434.996 250.459L434.846 251.491C434.627 251.446 434.406 251.418 434.183 251.409C433.754 251.409 433.406 251.544 433.137 251.812C432.872 252.077 432.708 252.43 432.645 252.872L432.535 253.604H434.066L433.896 254.581H432.364L431.25 261H430.013ZM438.305 253.467C438.924 253.476 439.455 253.645 439.897 253.973C440.34 254.301 440.665 254.754 440.875 255.333C441.089 255.907 441.162 256.536 441.094 257.22L441.08 257.37C440.993 258.09 440.779 258.742 440.438 259.325C440.096 259.904 439.654 260.355 439.111 260.679C438.569 261.002 437.974 261.155 437.327 261.137C436.712 261.128 436.181 260.959 435.734 260.631C435.292 260.303 434.969 259.856 434.764 259.291C434.559 258.726 434.486 258.104 434.545 257.425C434.613 256.659 434.821 255.971 435.167 255.36C435.513 254.75 435.958 254.278 436.5 253.945C437.047 253.608 437.648 253.449 438.305 253.467ZM435.789 257.432C435.757 257.719 435.757 258.017 435.789 258.327C435.835 258.865 435.994 259.293 436.268 259.612C436.546 259.931 436.915 260.098 437.375 260.111C437.785 260.125 438.163 260.025 438.51 259.811C438.856 259.592 439.148 259.264 439.385 258.826C439.622 258.389 439.774 257.903 439.843 257.37C439.879 256.951 439.886 256.598 439.863 256.311C439.809 255.759 439.642 255.324 439.364 255.005C439.086 254.686 438.717 254.517 438.257 254.499C437.619 254.485 437.076 254.736 436.63 255.251C436.183 255.766 435.908 256.44 435.803 257.274L435.789 257.432ZM446.713 260.269C446.134 260.866 445.398 261.155 444.505 261.137C443.799 261.118 443.274 260.866 442.933 260.378C442.595 259.89 442.47 259.225 442.557 258.382L443.35 253.604H444.587L443.787 258.402C443.764 258.603 443.76 258.799 443.773 258.99C443.796 259.318 443.894 259.576 444.067 259.763C444.241 259.95 444.482 260.05 444.792 260.063C445.676 260.091 446.36 259.733 446.843 258.99L447.772 253.604H449.01L447.725 261H446.556L446.713 260.269ZM454.178 254.731L453.597 254.67C452.804 254.67 452.179 255.028 451.724 255.743L450.814 261H449.577L450.862 253.604L452.059 253.597L451.874 254.458C452.398 253.77 453.016 253.435 453.727 253.453C453.877 253.453 454.073 253.487 454.314 253.556L454.178 254.731ZM458.026 257.288C458.118 256.536 458.325 255.857 458.648 255.251C458.972 254.645 459.371 254.191 459.845 253.891C460.319 253.59 460.84 253.446 461.41 253.46C462.235 253.478 462.868 253.779 463.311 254.362L464.021 250.5H465.259L463.44 261H462.312L462.442 260.207C461.859 260.845 461.139 261.155 460.282 261.137C459.599 261.118 459.054 260.852 458.648 260.337C458.243 259.817 458.024 259.122 457.992 258.252C457.979 257.983 457.99 257.662 458.026 257.288ZM459.216 257.999C459.202 258.651 459.318 259.157 459.564 259.517C459.811 259.877 460.171 260.061 460.645 260.07C461.36 260.102 461.996 259.742 462.552 258.99L463.14 255.572C462.866 254.898 462.369 254.551 461.649 254.533C461.162 254.52 460.731 254.668 460.357 254.978C459.988 255.283 459.706 255.714 459.51 256.27C459.318 256.821 459.22 257.397 459.216 257.999ZM466.735 261H465.505L466.79 253.604H468.021L466.735 261ZM467.754 250.903C467.964 250.894 468.137 250.958 468.273 251.095C468.415 251.227 468.485 251.402 468.485 251.621C468.481 251.835 468.41 252.011 468.273 252.147C468.141 252.284 467.968 252.357 467.754 252.366C467.54 252.375 467.364 252.314 467.228 252.182C467.091 252.049 467.025 251.876 467.029 251.662C467.034 251.448 467.102 251.27 467.234 251.129C467.367 250.988 467.54 250.912 467.754 250.903ZM469.36 261L470.481 254.581H469.34L469.511 253.604H470.646L470.769 252.729C470.887 251.986 471.174 251.405 471.63 250.985C472.108 250.548 472.719 250.334 473.462 250.343C473.694 250.343 473.988 250.382 474.344 250.459L474.193 251.491C473.975 251.446 473.754 251.418 473.53 251.409C473.102 251.409 472.753 251.544 472.484 251.812C472.22 252.077 472.056 252.43 471.992 252.872L471.883 253.604H473.414L473.243 254.581H471.712L470.598 261H469.36ZM474.146 261L475.267 254.581H474.125L474.296 253.604H475.431L475.554 252.729C475.672 251.986 475.959 251.405 476.415 250.985C476.894 250.548 477.504 250.334 478.247 250.343C478.479 250.343 478.773 250.382 479.129 250.459L478.979 251.491C478.76 251.446 478.539 251.418 478.315 251.409C477.887 251.409 477.538 251.544 477.27 251.812C477.005 252.077 476.841 252.43 476.777 252.872L476.668 253.604H478.199L478.028 254.581H476.497L475.383 261H474.146ZM481.364 261.137C480.444 261.118 479.724 260.779 479.204 260.118C478.685 259.457 478.466 258.612 478.548 257.582L478.582 257.288C478.66 256.554 478.876 255.884 479.231 255.278C479.591 254.672 480.029 254.216 480.544 253.911C481.059 253.601 481.615 253.453 482.212 253.467C482.973 253.485 483.57 253.738 484.003 254.226C484.436 254.713 484.673 255.374 484.714 256.208C484.728 256.504 484.718 256.8 484.687 257.097L484.611 257.664H479.778C479.696 258.334 479.806 258.904 480.106 259.373C480.412 259.842 480.865 260.086 481.467 260.104C482.196 260.123 482.87 259.795 483.49 259.12L484.201 259.722C483.891 260.168 483.49 260.519 482.998 260.774C482.51 261.025 481.966 261.146 481.364 261.137ZM482.15 254.499C481.64 254.485 481.193 254.659 480.811 255.019C480.432 255.379 480.132 255.914 479.908 256.625L483.504 256.632L483.531 256.522C483.604 255.948 483.511 255.472 483.251 255.094C482.996 254.711 482.629 254.513 482.15 254.499ZM490.025 254.731L489.444 254.67C488.651 254.67 488.027 255.028 487.571 255.743L486.662 261H485.425L486.71 253.604L487.906 253.597L487.722 254.458C488.246 253.77 488.863 253.435 489.574 253.453C489.725 253.453 489.921 253.487 490.162 253.556L490.025 254.731ZM493.149 261.137C492.229 261.118 491.509 260.779 490.989 260.118C490.47 259.457 490.251 258.612 490.333 257.582L490.367 257.288C490.445 256.554 490.661 255.884 491.017 255.278C491.377 254.672 491.814 254.216 492.329 253.911C492.844 253.601 493.4 253.453 493.997 253.467C494.758 253.485 495.355 253.738 495.788 254.226C496.221 254.713 496.458 255.374 496.499 256.208C496.513 256.504 496.504 256.8 496.472 257.097L496.396 257.664H491.563C491.481 258.334 491.591 258.904 491.892 259.373C492.197 259.842 492.65 260.086 493.252 260.104C493.981 260.123 494.656 259.795 495.275 259.12L495.986 259.722C495.676 260.168 495.275 260.519 494.783 260.774C494.296 261.025 493.751 261.146 493.149 261.137ZM493.936 254.499C493.425 254.485 492.979 254.659 492.596 255.019C492.217 255.379 491.917 255.914 491.693 256.625L495.289 256.632L495.316 256.522C495.389 255.948 495.296 255.472 495.036 255.094C494.781 254.711 494.414 254.513 493.936 254.499ZM499.664 253.597L499.486 254.533C500.152 253.804 500.908 253.449 501.756 253.467C502.453 253.485 502.968 253.727 503.301 254.191C503.633 254.656 503.757 255.31 503.67 256.153L502.863 261H501.626L502.439 256.133C502.467 255.91 502.469 255.702 502.446 255.511C502.369 254.873 501.993 254.547 501.318 254.533C500.576 254.52 499.924 254.916 499.363 255.723L498.447 261H497.21L498.495 253.604L499.664 253.597ZM508.038 251.812L507.724 253.604H509.07L508.899 254.581H507.56L506.787 259.182C506.773 259.3 506.771 259.41 506.78 259.51C506.812 259.865 507.006 260.043 507.361 260.043C507.512 260.043 507.712 260.02 507.963 259.975L507.867 261.007C507.571 261.089 507.27 261.13 506.965 261.13C506.473 261.121 506.104 260.941 505.857 260.59C505.611 260.234 505.516 259.758 505.57 259.161L506.322 254.581H505.017L505.188 253.604H506.493L506.808 251.812H508.038ZM519.427 257.336C519.336 258.092 519.128 258.774 518.805 259.38C518.481 259.986 518.089 260.435 517.629 260.727C517.169 261.018 516.658 261.157 516.098 261.144C515.204 261.125 514.541 260.79 514.108 260.139L513.855 261H512.714L514.539 250.5H515.776L515.031 254.424C515.624 253.768 516.344 253.449 517.191 253.467C517.902 253.485 518.456 253.747 518.853 254.253C519.249 254.759 519.459 255.456 519.481 256.345C519.486 256.636 519.472 256.919 519.44 257.192L519.427 257.336ZM518.251 256.618C518.265 255.953 518.153 255.445 517.916 255.094C517.679 254.738 517.317 254.551 516.829 254.533C516.059 254.515 515.407 254.902 514.874 255.695L514.32 258.915C514.594 259.667 515.106 260.052 515.858 260.07C516.341 260.089 516.763 259.945 517.123 259.64C517.488 259.334 517.763 258.908 517.95 258.361C518.137 257.81 518.237 257.229 518.251 256.618ZM524.52 253.467C525.139 253.476 525.67 253.645 526.112 253.973C526.554 254.301 526.88 254.754 527.09 255.333C527.304 255.907 527.377 256.536 527.309 257.22L527.295 257.37C527.208 258.09 526.994 258.742 526.652 259.325C526.311 259.904 525.868 260.355 525.326 260.679C524.784 261.002 524.189 261.155 523.542 261.137C522.927 261.128 522.396 260.959 521.949 260.631C521.507 260.303 521.184 259.856 520.979 259.291C520.773 258.726 520.701 258.104 520.76 257.425C520.828 256.659 521.035 255.971 521.382 255.36C521.728 254.75 522.173 254.278 522.715 253.945C523.262 253.608 523.863 253.449 524.52 253.467ZM522.004 257.432C521.972 257.719 521.972 258.017 522.004 258.327C522.049 258.865 522.209 259.293 522.482 259.612C522.76 259.931 523.13 260.098 523.59 260.111C524 260.125 524.378 260.025 524.725 259.811C525.071 259.592 525.363 259.264 525.6 258.826C525.837 258.389 525.989 257.903 526.058 257.37C526.094 256.951 526.101 256.598 526.078 256.311C526.023 255.759 525.857 255.324 525.579 255.005C525.301 254.686 524.932 254.517 524.472 254.499C523.834 254.485 523.291 254.736 522.845 255.251C522.398 255.766 522.122 256.44 522.018 257.274L522.004 257.432ZM531.499 251.812L531.185 253.604H532.531L532.36 254.581H531.021L530.248 259.182C530.234 259.3 530.232 259.41 530.241 259.51C530.273 259.865 530.467 260.043 530.822 260.043C530.973 260.043 531.173 260.02 531.424 259.975L531.328 261.007C531.032 261.089 530.731 261.13 530.426 261.13C529.934 261.121 529.564 260.941 529.318 260.59C529.072 260.234 528.977 259.758 529.031 259.161L529.783 254.581H528.478L528.648 253.604H529.954L530.269 251.812H531.499ZM536.53 257.288C536.621 256.536 536.829 255.857 537.152 255.251C537.476 254.645 537.875 254.191 538.349 253.891C538.823 253.59 539.344 253.446 539.914 253.46C540.739 253.478 541.372 253.779 541.814 254.362L542.525 250.5H543.763L541.944 261H540.816L540.946 260.207C540.363 260.845 539.643 261.155 538.786 261.137C538.103 261.118 537.558 260.852 537.152 260.337C536.747 259.817 536.528 259.122 536.496 258.252C536.482 257.983 536.494 257.662 536.53 257.288ZM537.72 257.999C537.706 258.651 537.822 259.157 538.068 259.517C538.314 259.877 538.674 260.061 539.148 260.07C539.864 260.102 540.5 259.742 541.056 258.99L541.644 255.572C541.37 254.898 540.873 254.551 540.153 254.533C539.666 254.52 539.235 254.668 538.861 254.978C538.492 255.283 538.21 255.714 538.014 256.27C537.822 256.821 537.724 257.397 537.72 257.999ZM548.008 253.467C548.628 253.476 549.159 253.645 549.601 253.973C550.043 254.301 550.368 254.754 550.578 255.333C550.792 255.907 550.865 256.536 550.797 257.22L550.783 257.37C550.697 258.09 550.482 258.742 550.141 259.325C549.799 259.904 549.357 260.355 548.814 260.679C548.272 261.002 547.677 261.155 547.03 261.137C546.415 261.128 545.884 260.959 545.438 260.631C544.995 260.303 544.672 259.856 544.467 259.291C544.262 258.726 544.189 258.104 544.248 257.425C544.316 256.659 544.524 255.971 544.87 255.36C545.216 254.75 545.661 254.278 546.203 253.945C546.75 253.608 547.352 253.449 548.008 253.467ZM545.492 257.432C545.46 257.719 545.46 258.017 545.492 258.327C545.538 258.865 545.697 259.293 545.971 259.612C546.249 259.931 546.618 260.098 547.078 260.111C547.488 260.125 547.867 260.025 548.213 259.811C548.559 259.592 548.851 259.264 549.088 258.826C549.325 258.389 549.478 257.903 549.546 257.37C549.582 256.951 549.589 256.598 549.566 256.311C549.512 255.759 549.345 255.324 549.067 255.005C548.789 254.686 548.42 254.517 547.96 254.499C547.322 254.485 546.78 254.736 546.333 255.251C545.886 255.766 545.611 256.44 545.506 257.274L545.492 257.432ZM554.16 253.597L554.003 254.424C554.623 253.768 555.372 253.449 556.252 253.467C556.721 253.476 557.118 253.583 557.441 253.788C557.77 253.993 557.995 254.283 558.118 254.656C558.811 253.845 559.629 253.449 560.572 253.467C561.311 253.485 561.855 253.733 562.206 254.212C562.557 254.69 562.687 255.333 562.596 256.14L561.782 261H560.552L561.358 256.126C561.386 255.889 561.386 255.673 561.358 255.477C561.272 254.857 560.866 254.54 560.142 254.526C559.69 254.517 559.28 254.659 558.911 254.95C558.547 255.237 558.312 255.616 558.207 256.085L557.366 261H556.122L556.942 256.133C557.002 255.627 556.924 255.237 556.71 254.964C556.5 254.69 556.172 254.549 555.726 254.54C554.955 254.522 554.342 254.873 553.887 255.593L552.95 261H551.713L552.998 253.604L554.16 253.597ZM568.222 261C568.19 260.868 568.174 260.738 568.174 260.61L568.194 260.221C567.515 260.85 566.795 261.155 566.034 261.137C565.382 261.128 564.852 260.923 564.441 260.521C564.036 260.116 563.851 259.61 563.888 259.004C563.933 258.22 564.275 257.609 564.913 257.172C565.556 256.73 566.399 256.509 567.442 256.509L568.734 256.516L568.816 255.928C568.862 255.486 568.775 255.137 568.557 254.882C568.342 254.622 568.019 254.488 567.586 254.479C567.162 254.469 566.786 254.574 566.458 254.793C566.134 255.007 565.936 255.292 565.863 255.647L564.619 255.654C564.66 255.221 564.829 254.839 565.125 254.506C565.421 254.169 565.802 253.909 566.267 253.727C566.731 253.54 567.212 253.451 567.709 253.46C568.479 253.478 569.078 253.713 569.507 254.164C569.935 254.611 570.115 255.205 570.047 255.948L569.445 259.612L569.411 260.139C569.402 260.389 569.429 260.638 569.493 260.884L569.479 261H568.222ZM566.28 260.043C566.677 260.052 567.05 259.959 567.401 259.763C567.757 259.562 568.062 259.286 568.317 258.936L568.584 257.411L567.647 257.404C566.868 257.404 566.271 257.527 565.856 257.773C565.442 258.02 565.207 258.368 565.152 258.819C565.111 259.166 565.191 259.455 565.392 259.688C565.597 259.915 565.893 260.034 566.28 260.043ZM572.501 261H571.271L572.556 253.604H573.786L572.501 261ZM573.52 250.903C573.729 250.894 573.902 250.958 574.039 251.095C574.18 251.227 574.251 251.402 574.251 251.621C574.246 251.835 574.176 252.011 574.039 252.147C573.907 252.284 573.734 252.357 573.52 252.366C573.305 252.375 573.13 252.314 572.993 252.182C572.856 252.049 572.79 251.876 572.795 251.662C572.799 251.448 572.868 251.27 573 251.129C573.132 250.988 573.305 250.912 573.52 250.903ZM576.979 253.597L576.801 254.533C577.466 253.804 578.223 253.449 579.07 253.467C579.768 253.485 580.283 253.727 580.615 254.191C580.948 254.656 581.071 255.31 580.984 256.153L580.178 261H578.94L579.754 256.133C579.781 255.91 579.784 255.702 579.761 255.511C579.683 254.873 579.307 254.547 578.633 254.533C577.89 254.52 577.238 254.916 576.678 255.723L575.762 261H574.524L575.81 253.604L576.979 253.597ZM586.665 258.997C586.733 258.487 586.453 258.127 585.824 257.917L584.539 257.541C583.454 257.167 582.93 256.548 582.967 255.682C582.999 255.03 583.295 254.497 583.855 254.082C584.421 253.663 585.084 253.458 585.845 253.467C586.592 253.476 587.198 253.695 587.663 254.123C588.132 254.547 588.358 255.101 588.34 255.784L587.109 255.777C587.118 255.408 587.002 255.107 586.761 254.875C586.519 254.643 586.198 254.522 585.797 254.513C585.368 254.504 584.999 254.608 584.689 254.827C584.402 255.032 584.236 255.301 584.19 255.634C584.131 256.062 584.393 256.374 584.977 256.57L585.599 256.741C586.446 256.96 587.048 257.245 587.403 257.596C587.759 257.947 587.923 258.382 587.896 258.901C587.868 259.362 587.718 259.763 587.444 260.104C587.171 260.446 586.806 260.708 586.351 260.891C585.895 261.068 585.41 261.15 584.895 261.137C584.111 261.128 583.464 260.9 582.953 260.453C582.443 260.002 582.197 259.423 582.215 258.717L583.452 258.724C583.452 259.138 583.584 259.471 583.849 259.722C584.113 259.972 584.475 260.098 584.936 260.098C585.387 260.107 585.776 260.013 586.104 259.817C586.433 259.617 586.619 259.343 586.665 258.997ZM588.88 262.989L588.169 262.477C588.698 261.825 589.026 261.178 589.153 260.535L589.331 259.503H590.541L590.397 260.426C590.233 261.465 589.728 262.319 588.88 262.989ZM599.845 261C599.813 260.868 599.797 260.738 599.797 260.61L599.817 260.221C599.138 260.85 598.418 261.155 597.657 261.137C597.006 261.128 596.475 260.923 596.064 260.521C595.659 260.116 595.474 259.61 595.511 259.004C595.556 258.22 595.898 257.609 596.536 257.172C597.179 256.73 598.022 256.509 599.065 256.509L600.357 256.516L600.439 255.928C600.485 255.486 600.398 255.137 600.18 254.882C599.965 254.622 599.642 254.488 599.209 254.479C598.785 254.469 598.409 254.574 598.081 254.793C597.757 255.007 597.559 255.292 597.486 255.647L596.242 255.654C596.283 255.221 596.452 254.839 596.748 254.506C597.044 254.169 597.425 253.909 597.89 253.727C598.354 253.54 598.835 253.451 599.332 253.46C600.102 253.478 600.701 253.713 601.13 254.164C601.558 254.611 601.738 255.205 601.67 255.948L601.068 259.612L601.034 260.139C601.025 260.389 601.052 260.638 601.116 260.884L601.103 261H599.845ZM597.903 260.043C598.3 260.052 598.674 259.959 599.024 259.763C599.38 259.562 599.685 259.286 599.94 258.936L600.207 257.411L599.271 257.404C598.491 257.404 597.894 257.527 597.479 257.773C597.065 258.02 596.83 258.368 596.775 258.819C596.734 259.166 596.814 259.455 597.015 259.688C597.22 259.915 597.516 260.034 597.903 260.043ZM604.124 261H602.894L604.712 250.5H605.949L604.124 261ZM607.487 261H606.257L608.075 250.5H609.312L607.487 261ZM614.282 261H613.052L614.337 253.604H615.567L614.282 261ZM615.301 250.903C615.51 250.894 615.684 250.958 615.82 251.095C615.962 251.227 616.032 251.402 616.032 251.621C616.028 251.835 615.957 252.011 615.82 252.147C615.688 252.284 615.515 252.357 615.301 252.366C615.087 252.375 614.911 252.314 614.774 252.182C614.638 252.049 614.572 251.876 614.576 251.662C614.581 251.448 614.649 251.27 614.781 251.129C614.913 250.988 615.087 250.912 615.301 250.903ZM618.76 253.597L618.582 254.533C619.247 253.804 620.004 253.449 620.852 253.467C621.549 253.485 622.064 253.727 622.396 254.191C622.729 254.656 622.852 255.31 622.766 256.153L621.959 261H620.722L621.535 256.133C621.562 255.91 621.565 255.702 621.542 255.511C621.465 254.873 621.089 254.547 620.414 254.533C619.671 254.52 619.02 254.916 618.459 255.723L617.543 261H616.306L617.591 253.604L618.76 253.597ZM626.99 260.111C627.432 260.12 627.831 259.993 628.187 259.729C628.542 259.46 628.774 259.109 628.884 258.676L630.053 258.669C629.984 259.134 629.798 259.558 629.492 259.94C629.191 260.323 628.811 260.622 628.351 260.836C627.89 261.05 627.419 261.15 626.936 261.137C626.32 261.128 625.799 260.968 625.37 260.658C624.946 260.344 624.634 259.909 624.434 259.353C624.233 258.792 624.165 258.163 624.229 257.466L624.263 257.124C624.349 256.413 624.557 255.777 624.885 255.217C625.213 254.656 625.641 254.221 626.17 253.911C626.699 253.597 627.282 253.449 627.92 253.467C628.695 253.485 629.314 253.745 629.779 254.246C630.244 254.747 630.477 255.383 630.477 256.153L629.321 256.146C629.312 255.663 629.178 255.274 628.918 254.978C628.658 254.677 628.307 254.517 627.865 254.499C627.223 254.485 626.687 254.725 626.259 255.217C625.835 255.709 625.571 256.397 625.466 257.281L625.445 257.459C625.418 257.751 625.413 258.051 625.432 258.361C625.464 258.895 625.614 259.316 625.883 259.626C626.152 259.936 626.521 260.098 626.99 260.111ZM632.384 261H631.153L632.972 250.5H634.209L632.384 261ZM639.104 260.269C638.525 260.866 637.789 261.155 636.896 261.137C636.189 261.118 635.665 260.866 635.323 260.378C634.986 259.89 634.861 259.225 634.947 258.382L635.74 253.604H636.978L636.178 258.402C636.155 258.603 636.15 258.799 636.164 258.99C636.187 259.318 636.285 259.576 636.458 259.763C636.631 259.95 636.873 260.05 637.183 260.063C638.067 260.091 638.75 259.733 639.233 258.99L640.163 253.604H641.4L640.115 261H638.946L639.104 260.269ZM642.323 257.288C642.414 256.536 642.622 255.857 642.945 255.251C643.269 254.645 643.668 254.191 644.142 253.891C644.616 253.59 645.137 253.446 645.707 253.46C646.532 253.478 647.165 253.779 647.607 254.362L648.318 250.5H649.556L647.737 261H646.609L646.739 260.207C646.156 260.845 645.436 261.155 644.579 261.137C643.896 261.118 643.351 260.852 642.945 260.337C642.54 259.817 642.321 259.122 642.289 258.252C642.275 257.983 642.287 257.662 642.323 257.288ZM643.513 257.999C643.499 258.651 643.615 259.157 643.861 259.517C644.107 259.877 644.467 260.061 644.941 260.07C645.657 260.102 646.293 259.742 646.849 258.99L647.437 255.572C647.163 254.898 646.666 254.551 645.946 254.533C645.459 254.52 645.028 254.668 644.654 254.978C644.285 255.283 644.003 255.714 643.807 256.27C643.615 256.821 643.517 257.397 643.513 257.999ZM652.892 261.137C651.971 261.118 651.251 260.779 650.731 260.118C650.212 259.457 649.993 258.612 650.075 257.582L650.109 257.288C650.187 256.554 650.403 255.884 650.759 255.278C651.119 254.672 651.556 254.216 652.071 253.911C652.586 253.601 653.142 253.453 653.739 253.467C654.5 253.485 655.097 253.738 655.53 254.226C655.963 254.713 656.2 255.374 656.241 256.208C656.255 256.504 656.246 256.8 656.214 257.097L656.139 257.664H651.306C651.224 258.334 651.333 258.904 651.634 259.373C651.939 259.842 652.393 260.086 652.994 260.104C653.723 260.123 654.398 259.795 655.018 259.12L655.729 259.722C655.419 260.168 655.018 260.519 654.525 260.774C654.038 261.025 653.493 261.146 652.892 261.137ZM653.678 254.499C653.167 254.485 652.721 254.659 652.338 255.019C651.96 255.379 651.659 255.914 651.436 256.625L655.031 256.632L655.059 256.522C655.132 255.948 655.038 255.472 654.778 255.094C654.523 254.711 654.156 254.513 653.678 254.499ZM657.308 257.288C657.399 256.536 657.606 255.857 657.93 255.251C658.253 254.645 658.652 254.191 659.126 253.891C659.6 253.59 660.122 253.446 660.691 253.46C661.516 253.478 662.15 253.779 662.592 254.362L663.303 250.5H664.54L662.722 261H661.594L661.724 260.207C661.14 260.845 660.42 261.155 659.563 261.137C658.88 261.118 658.335 260.852 657.93 260.337C657.524 259.817 657.305 259.122 657.273 258.252C657.26 257.983 657.271 257.662 657.308 257.288ZM658.497 257.999C658.483 258.651 658.6 259.157 658.846 259.517C659.092 259.877 659.452 260.061 659.926 260.07C660.641 260.102 661.277 259.742 661.833 258.99L662.421 255.572C662.147 254.898 661.651 254.551 660.931 254.533C660.443 254.52 660.012 254.668 659.639 254.978C659.27 255.283 658.987 255.714 658.791 256.27C658.6 256.821 658.502 257.397 658.497 257.999ZM674.746 259.25L677.104 253.604H678.383L675.013 261H674.008L673.242 255.408L670.576 261H669.571L668.771 253.604H669.954L670.405 259.113L673.03 253.604H674.028L674.746 259.25ZM679.729 261H678.499L679.784 253.604H681.015L679.729 261ZM680.748 250.903C680.958 250.894 681.131 250.958 681.268 251.095C681.409 251.227 681.479 251.402 681.479 251.621C681.475 251.835 681.404 252.011 681.268 252.147C681.135 252.284 680.962 252.357 680.748 252.366C680.534 252.375 680.358 252.314 680.222 252.182C680.085 252.049 680.019 251.876 680.023 251.662C680.028 251.448 680.096 251.27 680.229 251.129C680.361 250.988 680.534 250.912 680.748 250.903ZM685.021 251.812L684.706 253.604H686.053L685.882 254.581H684.542L683.77 259.182C683.756 259.3 683.754 259.41 683.763 259.51C683.795 259.865 683.988 260.043 684.344 260.043C684.494 260.043 684.695 260.02 684.945 259.975L684.85 261.007C684.553 261.089 684.253 261.13 683.947 261.13C683.455 261.121 683.086 260.941 682.84 260.59C682.594 260.234 682.498 259.758 682.553 259.161L683.305 254.581H681.999L682.17 253.604H683.476L683.79 251.812H685.021ZM688.575 254.506C689.222 253.799 689.967 253.455 690.811 253.474C691.503 253.483 692.016 253.722 692.349 254.191C692.686 254.656 692.811 255.31 692.725 256.153L691.918 261H690.681L691.494 256.133C691.521 255.91 691.524 255.702 691.501 255.511C691.424 254.873 691.048 254.547 690.373 254.533C689.617 254.515 688.965 254.911 688.418 255.723L687.502 261H686.265L688.09 250.5H689.327L688.575 254.506ZM695.151 261H693.921L695.206 253.604H696.437L695.151 261ZM696.17 250.903C696.38 250.894 696.553 250.958 696.689 251.095C696.831 251.227 696.901 251.402 696.901 251.621C696.897 251.835 696.826 252.011 696.689 252.147C696.557 252.284 696.384 252.357 696.17 252.366C695.956 252.375 695.78 252.314 695.644 252.182C695.507 252.049 695.441 251.876 695.445 251.662C695.45 251.448 695.518 251.27 695.65 251.129C695.783 250.988 695.956 250.912 696.17 250.903ZM699.629 253.597L699.451 254.533C700.117 253.804 700.873 253.449 701.721 253.467C702.418 253.485 702.933 253.727 703.266 254.191C703.598 254.656 703.721 255.31 703.635 256.153L702.828 261H701.591L702.404 256.133C702.432 255.91 702.434 255.702 702.411 255.511C702.334 254.873 701.958 254.547 701.283 254.533C700.54 254.52 699.889 254.916 699.328 255.723L698.412 261H697.175L698.46 253.604L699.629 253.597ZM711.435 251.812L711.12 253.604H712.467L712.296 254.581H710.956L710.184 259.182C710.17 259.3 710.168 259.41 710.177 259.51C710.209 259.865 710.402 260.043 710.758 260.043C710.908 260.043 711.109 260.02 711.359 259.975L711.264 261.007C710.967 261.089 710.667 261.13 710.361 261.13C709.869 261.121 709.5 260.941 709.254 260.59C709.008 260.234 708.912 259.758 708.967 259.161L709.719 254.581H708.413L708.584 253.604H709.89L710.204 251.812H711.435ZM714.989 254.506C715.636 253.799 716.382 253.455 717.225 253.474C717.917 253.483 718.43 253.722 718.763 254.191C719.1 254.656 719.225 255.31 719.139 256.153L718.332 261H717.095L717.908 256.133C717.936 255.91 717.938 255.702 717.915 255.511C717.838 254.873 717.462 254.547 716.787 254.533C716.031 254.515 715.379 254.911 714.832 255.723L713.916 261H712.679L714.504 250.5H715.741L714.989 254.506ZM723.425 261.137C722.504 261.118 721.784 260.779 721.265 260.118C720.745 259.457 720.526 258.612 720.608 257.582L720.643 257.288C720.72 256.554 720.937 255.884 721.292 255.278C721.652 254.672 722.09 254.216 722.604 253.911C723.119 253.601 723.675 253.453 724.272 253.467C725.034 253.485 725.631 253.738 726.063 254.226C726.496 254.713 726.733 255.374 726.774 256.208C726.788 256.504 726.779 256.8 726.747 257.097L726.672 257.664H721.839C721.757 258.334 721.866 258.904 722.167 259.373C722.472 259.842 722.926 260.086 723.527 260.104C724.257 260.123 724.931 259.795 725.551 259.12L726.262 259.722C725.952 260.168 725.551 260.519 725.059 260.774C724.571 261.025 724.026 261.146 723.425 261.137ZM724.211 254.499C723.701 254.485 723.254 254.659 722.871 255.019C722.493 255.379 722.192 255.914 721.969 256.625L725.564 256.632L725.592 256.522C725.665 255.948 725.571 255.472 725.312 255.094C725.056 254.711 724.689 254.513 724.211 254.499ZM737.63 257.336C737.539 258.092 737.331 258.774 737.008 259.38C736.684 259.986 736.292 260.435 735.832 260.727C735.372 261.018 734.861 261.157 734.301 261.144C733.408 261.125 732.744 260.79 732.312 260.139L732.059 261H730.917L732.742 250.5H733.979L733.234 254.424C733.827 253.768 734.547 253.449 735.395 253.467C736.105 253.485 736.659 253.747 737.056 254.253C737.452 254.759 737.662 255.456 737.685 256.345C737.689 256.636 737.675 256.919 737.644 257.192L737.63 257.336ZM736.454 256.618C736.468 255.953 736.356 255.445 736.119 255.094C735.882 254.738 735.52 254.551 735.032 254.533C734.262 254.515 733.61 254.902 733.077 255.695L732.523 258.915C732.797 259.667 733.31 260.052 734.062 260.07C734.545 260.089 734.966 259.945 735.326 259.64C735.691 259.334 735.966 258.908 736.153 258.361C736.34 257.81 736.44 257.229 736.454 256.618ZM743.14 261C743.108 260.868 743.092 260.738 743.092 260.61L743.112 260.221C742.433 260.85 741.713 261.155 740.952 261.137C740.3 261.128 739.77 260.923 739.359 260.521C738.954 260.116 738.769 259.61 738.806 259.004C738.851 258.22 739.193 257.609 739.831 257.172C740.474 256.73 741.317 256.509 742.36 256.509L743.652 256.516L743.734 255.928C743.78 255.486 743.693 255.137 743.475 254.882C743.26 254.622 742.937 254.488 742.504 254.479C742.08 254.469 741.704 254.574 741.376 254.793C741.052 255.007 740.854 255.292 740.781 255.647L739.537 255.654C739.578 255.221 739.747 254.839 740.043 254.506C740.339 254.169 740.72 253.909 741.185 253.727C741.649 253.54 742.13 253.451 742.627 253.46C743.397 253.478 743.996 253.713 744.425 254.164C744.853 254.611 745.033 255.205 744.965 255.948L744.363 259.612L744.329 260.139C744.32 260.389 744.347 260.638 744.411 260.884L744.397 261H743.14ZM741.198 260.043C741.595 260.052 741.968 259.959 742.319 259.763C742.675 259.562 742.98 259.286 743.235 258.936L743.502 257.411L742.565 257.404C741.786 257.404 741.189 257.527 740.774 257.773C740.36 258.02 740.125 258.368 740.07 258.819C740.029 259.166 740.109 259.455 740.31 259.688C740.515 259.915 740.811 260.034 741.198 260.043ZM750.659 258.997C750.728 258.487 750.447 258.127 749.818 257.917L748.533 257.541C747.449 257.167 746.924 256.548 746.961 255.682C746.993 255.03 747.289 254.497 747.85 254.082C748.415 253.663 749.078 253.458 749.839 253.467C750.586 253.476 751.192 253.695 751.657 254.123C752.127 254.547 752.352 255.101 752.334 255.784L751.104 255.777C751.113 255.408 750.996 255.107 750.755 254.875C750.513 254.643 750.192 254.522 749.791 254.513C749.363 254.504 748.993 254.608 748.684 254.827C748.396 255.032 748.23 255.301 748.185 255.634C748.125 256.062 748.387 256.374 748.971 256.57L749.593 256.741C750.44 256.96 751.042 257.245 751.397 257.596C751.753 257.947 751.917 258.382 751.89 258.901C751.862 259.362 751.712 259.763 751.438 260.104C751.165 260.446 750.8 260.708 750.345 260.891C749.889 261.068 749.404 261.15 748.889 261.137C748.105 261.128 747.458 260.9 746.947 260.453C746.437 260.002 746.191 259.423 746.209 258.717L747.446 258.724C747.446 259.138 747.578 259.471 747.843 259.722C748.107 259.972 748.469 260.098 748.93 260.098C749.381 260.107 749.771 260.013 750.099 259.817C750.427 259.617 750.614 259.343 750.659 258.997ZM754.487 261H753.257L754.542 253.604H755.772L754.487 261ZM755.506 250.903C755.715 250.894 755.889 250.958 756.025 251.095C756.167 251.227 756.237 251.402 756.237 251.621C756.233 251.835 756.162 252.011 756.025 252.147C755.893 252.284 755.72 252.357 755.506 252.366C755.292 252.375 755.116 252.314 754.979 252.182C754.843 252.049 754.777 251.876 754.781 251.662C754.786 251.448 754.854 251.27 754.986 251.129C755.118 250.988 755.292 250.912 755.506 250.903ZM759.635 260.111C760.077 260.12 760.476 259.993 760.831 259.729C761.187 259.46 761.419 259.109 761.528 258.676L762.697 258.669C762.629 259.134 762.442 259.558 762.137 259.94C761.836 260.323 761.455 260.622 760.995 260.836C760.535 261.05 760.063 261.15 759.58 261.137C758.965 261.128 758.443 260.968 758.015 260.658C757.591 260.344 757.279 259.909 757.078 259.353C756.878 258.792 756.809 258.163 756.873 257.466L756.907 257.124C756.994 256.413 757.201 255.777 757.529 255.217C757.857 254.656 758.286 254.221 758.814 253.911C759.343 253.597 759.926 253.449 760.564 253.467C761.339 253.485 761.959 253.745 762.424 254.246C762.889 254.747 763.121 255.383 763.121 256.153L761.966 256.146C761.957 255.663 761.822 255.274 761.562 254.978C761.303 254.677 760.952 254.517 760.51 254.499C759.867 254.485 759.332 254.725 758.903 255.217C758.479 255.709 758.215 256.397 758.11 257.281L758.09 257.459C758.062 257.751 758.058 258.051 758.076 258.361C758.108 258.895 758.258 259.316 758.527 259.626C758.796 259.936 759.165 260.098 759.635 260.111ZM770.244 260.111C770.686 260.12 771.085 259.993 771.44 259.729C771.796 259.46 772.028 259.109 772.138 258.676L773.307 258.669C773.238 259.134 773.051 259.558 772.746 259.94C772.445 260.323 772.065 260.622 771.604 260.836C771.144 261.05 770.673 261.15 770.189 261.137C769.574 261.128 769.052 260.968 768.624 260.658C768.2 260.344 767.888 259.909 767.688 259.353C767.487 258.792 767.419 258.163 767.482 257.466L767.517 257.124C767.603 256.413 767.811 255.777 768.139 255.217C768.467 254.656 768.895 254.221 769.424 253.911C769.952 253.597 770.536 253.449 771.174 253.467C771.949 253.485 772.568 253.745 773.033 254.246C773.498 254.747 773.73 255.383 773.73 256.153L772.575 256.146C772.566 255.663 772.432 255.274 772.172 254.978C771.912 254.677 771.561 254.517 771.119 254.499C770.477 254.485 769.941 254.725 769.513 255.217C769.089 255.709 768.825 256.397 768.72 257.281L768.699 257.459C768.672 257.751 768.667 258.051 768.686 258.361C768.717 258.895 768.868 259.316 769.137 259.626C769.406 259.936 769.775 260.098 770.244 260.111ZM778.406 253.467C779.026 253.476 779.557 253.645 779.999 253.973C780.441 254.301 780.767 254.754 780.977 255.333C781.191 255.907 781.264 256.536 781.195 257.22L781.182 257.37C781.095 258.09 780.881 258.742 780.539 259.325C780.197 259.904 779.755 260.355 779.213 260.679C778.671 261.002 778.076 261.155 777.429 261.137C776.813 261.128 776.283 260.959 775.836 260.631C775.394 260.303 775.07 259.856 774.865 259.291C774.66 258.726 774.587 258.104 774.646 257.425C774.715 256.659 774.922 255.971 775.269 255.36C775.615 254.75 776.059 254.278 776.602 253.945C777.148 253.608 777.75 253.449 778.406 253.467ZM775.891 257.432C775.859 257.719 775.859 258.017 775.891 258.327C775.936 258.865 776.096 259.293 776.369 259.612C776.647 259.931 777.016 260.098 777.477 260.111C777.887 260.125 778.265 260.025 778.611 259.811C778.958 259.592 779.249 259.264 779.486 258.826C779.723 258.389 779.876 257.903 779.944 257.37C779.981 256.951 779.988 256.598 779.965 256.311C779.91 255.759 779.744 255.324 779.466 255.005C779.188 254.686 778.819 254.517 778.358 254.499C777.72 254.485 777.178 254.736 776.731 255.251C776.285 255.766 776.009 256.44 775.904 257.274L775.891 257.432ZM786.698 258.997C786.767 258.487 786.486 258.127 785.857 257.917L784.572 257.541C783.488 257.167 782.964 256.548 783 255.682C783.032 255.03 783.328 254.497 783.889 254.082C784.454 253.663 785.117 253.458 785.878 253.467C786.625 253.476 787.231 253.695 787.696 254.123C788.166 254.547 788.391 255.101 788.373 255.784L787.143 255.777C787.152 255.408 787.035 255.107 786.794 254.875C786.552 254.643 786.231 254.522 785.83 254.513C785.402 254.504 785.033 254.608 784.723 254.827C784.436 255.032 784.269 255.301 784.224 255.634C784.164 256.062 784.426 256.374 785.01 256.57L785.632 256.741C786.479 256.96 787.081 257.245 787.437 257.596C787.792 257.947 787.956 258.382 787.929 258.901C787.901 259.362 787.751 259.763 787.478 260.104C787.204 260.446 786.84 260.708 786.384 260.891C785.928 261.068 785.443 261.15 784.928 261.137C784.144 261.128 783.497 260.9 782.986 260.453C782.476 260.002 782.23 259.423 782.248 258.717L783.485 258.724C783.485 259.138 783.618 259.471 783.882 259.722C784.146 259.972 784.508 260.098 784.969 260.098C785.42 260.107 785.81 260.013 786.138 259.817C786.466 259.617 786.653 259.343 786.698 258.997ZM792.454 251.812L792.14 253.604H793.486L793.315 254.581H791.976L791.203 259.182C791.189 259.3 791.187 259.41 791.196 259.51C791.228 259.865 791.422 260.043 791.777 260.043C791.928 260.043 792.128 260.02 792.379 259.975L792.283 261.007C791.987 261.089 791.686 261.13 791.381 261.13C790.889 261.121 790.52 260.941 790.273 260.59C790.027 260.234 789.932 259.758 789.986 259.161L790.738 254.581H789.433L789.604 253.604H790.909L791.224 251.812H792.454Z" fill="black"/>
<rect width="364.195" height="41.9238" fill="black" fill-opacity="0" transform="translate(322 34)"/>
<rect width="364.195" height="41.9238" fill="black" fill-opacity="0" transform="translate(322 34)"/>
<path d="M384.186 60.2617C383.893 62.957 382.926 65.0195 381.285 66.4492C379.656 67.8789 377.482 68.5938 374.764 68.5938C372.865 68.5938 371.184 68.1191 369.719 67.1699C368.266 66.2207 367.141 64.8789 366.344 63.1445C365.547 61.3984 365.143 59.4062 365.131 57.168V53.8457C365.131 51.5723 365.529 49.5566 366.326 47.7988C367.123 46.041 368.266 44.6875 369.754 43.7383C371.254 42.7773 372.977 42.2969 374.922 42.2969C377.664 42.2969 379.826 43.041 381.408 44.5293C383.002 46.0059 383.928 48.0508 384.186 50.6641H382.006C381.467 46.3164 379.105 44.1426 374.922 44.1426C372.602 44.1426 370.75 45.0098 369.367 46.7441C367.996 48.4785 367.311 50.875 367.311 53.9336V57.0625C367.311 60.0156 367.979 62.3711 369.314 64.1289C370.662 65.8867 372.479 66.7656 374.764 66.7656C377.025 66.7656 378.73 66.2266 379.879 65.1484C381.027 64.0586 381.736 62.4297 382.006 60.2617H384.186Z" fill="black"/>
<path d="M391.041 52.4395C391.732 51.3027 392.617 50.4238 393.695 49.8027C394.773 49.1816 395.951 48.8711 397.229 48.8711C399.268 48.8711 400.785 49.4453 401.781 50.5938C402.777 51.7422 403.281 53.4648 403.293 55.7617V68.2422H401.201V55.7441C401.189 54.0449 400.826 52.7793 400.111 51.9473C399.408 51.1152 398.277 50.6992 396.719 50.6992C395.418 50.6992 394.264 51.1094 393.256 51.9297C392.26 52.7383 391.521 53.834 391.041 55.2168V68.2422H388.949V41.2422H391.041V52.4395Z" fill="black"/>
<path d="M407.547 58.4512C407.547 56.623 407.898 54.9766 408.602 53.5117C409.316 52.0469 410.318 50.9102 411.607 50.1016C412.908 49.2812 414.379 48.8711 416.02 48.8711C418.551 48.8711 420.602 49.7617 422.172 51.543C423.742 53.3125 424.527 55.6621 424.527 58.5918V59.0312C424.527 60.8711 424.17 62.5293 423.455 64.0059C422.752 65.4707 421.756 66.6016 420.467 67.3984C419.178 68.1953 417.707 68.5938 416.055 68.5938C413.535 68.5938 411.484 67.709 409.902 65.9395C408.332 64.1582 407.547 61.8027 407.547 58.873V58.4512ZM409.656 59.0312C409.656 61.3047 410.242 63.1738 411.414 64.6387C412.598 66.0918 414.145 66.8184 416.055 66.8184C417.953 66.8184 419.488 66.0918 420.66 64.6387C421.844 63.1738 422.436 61.2461 422.436 58.8555V58.4512C422.436 56.998 422.166 55.668 421.627 54.4609C421.088 53.2539 420.332 52.3223 419.359 51.666C418.387 50.998 417.273 50.6641 416.02 50.6641C414.145 50.6641 412.615 51.4023 411.432 52.8789C410.248 54.3438 409.656 56.2656 409.656 58.6445V59.0312Z" fill="black"/>
<path d="M427.727 58.4512C427.727 56.623 428.078 54.9766 428.781 53.5117C429.496 52.0469 430.498 50.9102 431.787 50.1016C433.088 49.2812 434.559 48.8711 436.199 48.8711C438.73 48.8711 440.781 49.7617 442.352 51.543C443.922 53.3125 444.707 55.6621 444.707 58.5918V59.0312C444.707 60.8711 444.35 62.5293 443.635 64.0059C442.932 65.4707 441.936 66.6016 440.646 67.3984C439.357 68.1953 437.887 68.5938 436.234 68.5938C433.715 68.5938 431.664 67.709 430.082 65.9395C428.512 64.1582 427.727 61.8027 427.727 58.873V58.4512ZM429.836 59.0312C429.836 61.3047 430.422 63.1738 431.594 64.6387C432.777 66.0918 434.324 66.8184 436.234 66.8184C438.133 66.8184 439.668 66.0918 440.84 64.6387C442.023 63.1738 442.615 61.2461 442.615 58.8555V58.4512C442.615 56.998 442.346 55.668 441.807 54.4609C441.268 53.2539 440.512 52.3223 439.539 51.666C438.566 50.998 437.453 50.6641 436.199 50.6641C434.324 50.6641 432.795 51.4023 431.611 52.8789C430.428 54.3438 429.836 56.2656 429.836 58.6445V59.0312Z" fill="black"/>
<path d="M460.457 63.4082C460.457 62.3652 460.035 61.5273 459.191 60.8945C458.359 60.2617 457.1 59.7695 455.412 59.418C453.725 59.0547 452.412 58.6445 451.475 58.1875C450.549 57.7188 449.857 57.1504 449.4 56.4824C448.955 55.8145 448.732 55.0059 448.732 54.0566C448.732 52.5566 449.359 51.3203 450.613 50.3477C451.867 49.3633 453.473 48.8711 455.43 48.8711C457.551 48.8711 459.25 49.3984 460.527 50.4531C461.816 51.4961 462.461 52.8613 462.461 54.5488H460.352C460.352 53.4355 459.883 52.5098 458.945 51.7715C458.02 51.0332 456.848 50.6641 455.43 50.6641C454.047 50.6641 452.934 50.9746 452.09 51.5957C451.258 52.2051 450.842 53.002 450.842 53.9863C450.842 54.9355 451.188 55.6738 451.879 56.2012C452.582 56.7168 453.854 57.1914 455.693 57.625C457.545 58.0586 458.928 58.5215 459.842 59.0137C460.768 59.5059 461.453 60.0977 461.898 60.7891C462.344 61.4805 462.566 62.3184 462.566 63.3027C462.566 64.9082 461.916 66.1914 460.615 67.1523C459.326 68.1133 457.639 68.5938 455.553 68.5938C453.338 68.5938 451.539 68.0605 450.156 66.9941C448.785 65.916 448.1 64.5566 448.1 62.916H450.209C450.291 64.1465 450.807 65.1074 451.756 65.7988C452.717 66.4785 453.982 66.8184 455.553 66.8184C457.018 66.8184 458.201 66.4961 459.104 65.8516C460.006 65.207 460.457 64.3926 460.457 63.4082Z" fill="black"/>
<path d="M474.678 68.5938C473.061 68.5938 471.596 68.1953 470.283 67.3984C468.982 66.6016 467.969 65.4941 467.242 64.0762C466.516 62.6465 466.152 61.0469 466.152 59.2773V58.5215C466.152 56.6934 466.504 55.0469 467.207 53.582C467.922 52.1172 468.912 50.9688 470.178 50.1367C471.443 49.293 472.814 48.8711 474.291 48.8711C476.6 48.8711 478.428 49.6621 479.775 51.2441C481.135 52.8145 481.814 54.9648 481.814 57.6953V58.873H468.244V59.2773C468.244 61.4336 468.859 63.2324 470.09 64.6738C471.332 66.1035 472.891 66.8184 474.766 66.8184C475.891 66.8184 476.881 66.6133 477.736 66.2031C478.604 65.793 479.389 65.1367 480.092 64.2344L481.41 65.2363C479.863 67.4746 477.619 68.5938 474.678 68.5938ZM474.291 50.6641C472.709 50.6641 471.373 51.2441 470.283 52.4043C469.205 53.5645 468.549 55.123 468.314 57.0801H479.723V56.8516C479.664 55.0234 479.143 53.5352 478.158 52.3867C477.174 51.2383 475.885 50.6641 474.291 50.6641Z" fill="black"/>
<path d="M500.693 65.2188L506.248 49.2227H508.516L500.395 71.4766L499.973 72.4609C498.93 74.7695 497.318 75.9238 495.139 75.9238C494.635 75.9238 494.096 75.8418 493.521 75.6777L493.504 73.9375L494.594 74.043C495.625 74.043 496.457 73.7852 497.09 73.2695C497.734 72.7656 498.279 71.8926 498.725 70.6504L499.656 68.084L492.484 49.2227H494.787L500.693 65.2188Z" fill="black"/>
<path d="M510.344 58.4512C510.344 56.623 510.695 54.9766 511.398 53.5117C512.113 52.0469 513.115 50.9102 514.404 50.1016C515.705 49.2812 517.176 48.8711 518.816 48.8711C521.348 48.8711 523.398 49.7617 524.969 51.543C526.539 53.3125 527.324 55.6621 527.324 58.5918V59.0312C527.324 60.8711 526.967 62.5293 526.252 64.0059C525.549 65.4707 524.553 66.6016 523.264 67.3984C521.975 68.1953 520.504 68.5938 518.852 68.5938C516.332 68.5938 514.281 67.709 512.699 65.9395C511.129 64.1582 510.344 61.8027 510.344 58.873V58.4512ZM512.453 59.0312C512.453 61.3047 513.039 63.1738 514.211 64.6387C515.395 66.0918 516.941 66.8184 518.852 66.8184C520.75 66.8184 522.285 66.0918 523.457 64.6387C524.641 63.1738 525.232 61.2461 525.232 58.8555V58.4512C525.232 56.998 524.963 55.668 524.424 54.4609C523.885 53.2539 523.129 52.3223 522.156 51.666C521.184 50.998 520.07 50.6641 518.816 50.6641C516.941 50.6641 515.412 51.4023 514.229 52.8789C513.045 54.3438 512.453 56.2656 512.453 58.6445V59.0312Z" fill="black"/>
<path d="M543.918 65.834C542.652 67.6738 540.631 68.5938 537.854 68.5938C535.826 68.5938 534.285 68.0078 533.23 66.8359C532.176 65.6523 531.637 63.9062 531.613 61.5977V49.2227H533.705V61.334C533.705 64.9551 535.17 66.7656 538.1 66.7656C541.146 66.7656 543.074 65.5059 543.883 62.9863V49.2227H545.992V68.2422H543.953L543.918 65.834Z" fill="black"/>
<path d="M560.266 51.0156C559.82 50.9336 559.346 50.8926 558.842 50.8926C557.529 50.8926 556.416 51.2617 555.502 52C554.6 52.7266 553.955 53.7871 553.568 55.1816V68.2422H551.477V49.2227H553.533L553.568 52.2461C554.682 49.9961 556.469 48.8711 558.93 48.8711C559.516 48.8711 559.979 48.9473 560.318 49.0996L560.266 51.0156Z" fill="black"/>
<path d="M571.516 58.5566C571.516 55.6035 572.172 53.2539 573.484 51.5078C574.809 49.75 576.602 48.8711 578.863 48.8711C581.43 48.8711 583.387 49.8848 584.734 51.9121V41.2422H586.826V68.2422H584.857L584.77 65.7109C583.422 67.6328 581.441 68.5938 578.828 68.5938C576.637 68.5938 574.867 67.7148 573.52 65.957C572.184 64.1875 571.516 61.8027 571.516 58.8027V58.5566ZM573.643 58.9258C573.643 61.3516 574.129 63.2676 575.102 64.6738C576.074 66.0684 577.445 66.7656 579.215 66.7656C581.805 66.7656 583.645 65.623 584.734 63.3379V54.4082C583.645 51.9355 581.816 50.6992 579.25 50.6992C577.48 50.6992 576.104 51.3965 575.119 52.791C574.135 54.1738 573.643 56.2188 573.643 58.9258Z" fill="black"/>
<path d="M591.203 58.4512C591.203 56.623 591.555 54.9766 592.258 53.5117C592.973 52.0469 593.975 50.9102 595.264 50.1016C596.564 49.2812 598.035 48.8711 599.676 48.8711C602.207 48.8711 604.258 49.7617 605.828 51.543C607.398 53.3125 608.184 55.6621 608.184 58.5918V59.0312C608.184 60.8711 607.826 62.5293 607.111 64.0059C606.408 65.4707 605.412 66.6016 604.123 67.3984C602.834 68.1953 601.363 68.5938 599.711 68.5938C597.191 68.5938 595.141 67.709 593.559 65.9395C591.988 64.1582 591.203 61.8027 591.203 58.873V58.4512ZM593.312 59.0312C593.312 61.3047 593.898 63.1738 595.07 64.6387C596.254 66.0918 597.801 66.8184 599.711 66.8184C601.609 66.8184 603.145 66.0918 604.316 64.6387C605.5 63.1738 606.092 61.2461 606.092 58.8555V58.4512C606.092 56.998 605.822 55.668 605.283 54.4609C604.744 53.2539 603.988 52.3223 603.016 51.666C602.043 50.998 600.93 50.6641 599.676 50.6641C597.801 50.6641 596.271 51.4023 595.088 52.8789C593.904 54.3438 593.312 56.2656 593.312 58.6445V59.0312Z" fill="black"/>
<path d="M614.459 49.2227L614.529 52.3164C615.232 51.168 616.111 50.3066 617.166 49.7324C618.221 49.1582 619.393 48.8711 620.682 48.8711C623.682 48.8711 625.586 50.1016 626.395 52.5625C627.074 51.3789 627.982 50.4707 629.119 49.8379C630.256 49.1934 631.51 48.8711 632.881 48.8711C636.959 48.8711 639.039 51.0977 639.121 55.5508V68.2422H637.012V55.709C637 54.0098 636.631 52.75 635.904 51.9297C635.189 51.1094 634.018 50.6992 632.389 50.6992C630.877 50.7227 629.6 51.2148 628.557 52.1758C627.514 53.125 626.934 54.2852 626.816 55.6562V68.2422H624.707V55.5508C624.695 53.9219 624.309 52.709 623.547 51.9121C622.797 51.1035 621.637 50.6992 620.066 50.6992C618.742 50.6992 617.605 51.0801 616.656 51.8418C615.707 52.5918 615.004 53.7109 614.547 55.1992V68.2422H612.438V49.2227H614.459Z" fill="black"/>
<path d="M656.471 68.2422C656.26 67.6445 656.125 66.7598 656.066 65.5879C655.328 66.5488 654.385 67.293 653.236 67.8203C652.1 68.3359 650.893 68.5938 649.615 68.5938C647.787 68.5938 646.305 68.084 645.168 67.0645C644.043 66.0449 643.48 64.7559 643.48 63.1973C643.48 61.3457 644.248 59.8809 645.783 58.8027C647.33 57.7246 649.48 57.1855 652.234 57.1855H656.049V55.0234C656.049 53.6641 655.627 52.5977 654.783 51.8242C653.951 51.0391 652.732 50.6465 651.127 50.6465C649.662 50.6465 648.449 51.0215 647.488 51.7715C646.527 52.5215 646.047 53.4238 646.047 54.4785L643.938 54.4609C643.938 52.9492 644.641 51.6426 646.047 50.541C647.453 49.4277 649.182 48.8711 651.232 48.8711C653.354 48.8711 655.023 49.4043 656.242 50.4707C657.473 51.5254 658.105 53.002 658.141 54.9004V63.9004C658.141 65.7402 658.334 67.1172 658.721 68.0312V68.2422H656.471ZM649.861 66.7305C651.268 66.7305 652.521 66.3906 653.623 65.7109C654.736 65.0312 655.545 64.123 656.049 62.9863V58.8027H652.287C650.189 58.8262 648.549 59.2129 647.365 59.9629C646.182 60.7012 645.59 61.7207 645.59 63.0215C645.59 64.0879 645.982 64.9727 646.768 65.6758C647.564 66.3789 648.596 66.7305 649.861 66.7305Z" fill="black"/>
<path d="M666.121 68.2422H664.012V49.2227H666.121V68.2422ZM663.643 43.7207C663.643 43.3223 663.771 42.9883 664.029 42.7188C664.287 42.4375 664.639 42.2969 665.084 42.2969C665.529 42.2969 665.881 42.4375 666.139 42.7188C666.408 42.9883 666.543 43.3223 666.543 43.7207C666.543 44.1191 666.408 44.4531 666.139 44.7227C665.881 44.9922 665.529 45.127 665.084 45.127C664.639 45.127 664.287 44.9922 664.029 44.7227C663.771 44.4531 663.643 44.1191 663.643 43.7207Z" fill="black"/>
<path d="M673.855 49.2227L673.926 52.4746C674.641 51.3027 675.531 50.4121 676.598 49.8027C677.664 49.1816 678.842 48.8711 680.131 48.8711C682.17 48.8711 683.688 49.4453 684.684 50.5938C685.68 51.7422 686.184 53.4648 686.195 55.7617V68.2422H684.104V55.7441C684.092 54.0449 683.729 52.7793 683.014 51.9473C682.311 51.1152 681.18 50.6992 679.621 50.6992C678.32 50.6992 677.166 51.1094 676.158 51.9297C675.162 52.7383 674.424 53.834 673.943 55.2168V68.2422H671.852V49.2227H673.855Z" fill="black"/>
<path d="M334.094 68.2422H331.281V37.4922L322 40.9375V38.3125L333.625 34H334.094V68.2422Z" fill="#2F80ED"/>
<path d="M347.852 66.5547C347.852 66.0078 348.023 65.5469 348.367 65.1719C348.727 64.7812 349.219 64.5859 349.844 64.5859C350.469 64.5859 350.961 64.7812 351.32 65.1719C351.68 65.5469 351.859 66.0078 351.859 66.5547C351.859 67.1016 351.68 67.5547 351.32 67.9141C350.961 68.2578 350.469 68.4297 349.844 68.4297C349.219 68.4297 348.727 68.2578 348.367 67.9141C348.023 67.5547 347.852 67.1016 347.852 66.5547Z" fill="#2F80ED"/>
<g filter="url(#filter1_i)">
<rect width="502" height="100" fill="black" fill-opacity="0" transform="translate(275 112)"/>
<rect width="502" height="100" fill="black" fill-opacity="0" transform="translate(275 112)"/>
<rect width="100" height="100" fill="black" fill-opacity="0" transform="translate(275 112)"/>
<path d="M325 112C297.388 112 275 134.388 275 162C275 189.613 297.388 212 325 212C352.613 212 375 189.613 375 162C375 134.388 352.613 112 325 112ZM337.5 145.333H331.875C329.633 145.333 329.167 146.254 329.167 148.575V153.667H337.5L336.629 162H329.167V191.167H316.667V162H308.333V153.667H316.667V144.05C316.667 136.679 320.546 132.833 329.288 132.833H337.5V145.333Z" fill="#2F80ED"/>
<rect width="100" height="100" fill="black" fill-opacity="0" transform="translate(543 112)"/>
<path fill-rule="evenodd" clip-rule="evenodd" d="M593 112C565.392 112 543 134.383 543 162C543 189.613 565.392 212 593 212C620.613 212 643 189.613 643 162C643 134.383 620.613 112 593 112ZM606.533 188.45L604.987 183.054L608.721 186.525L612.25 189.792L618.521 195.333V143.008C618.521 139.683 615.838 137 612.542 137H573.458C570.163 137 567.479 139.683 567.479 143.008V182.442C567.479 185.767 570.163 188.45 573.458 188.45H606.533ZM601.283 175.092L599.358 172.729C603.179 171.65 604.638 169.258 604.638 169.258C603.442 170.046 602.304 170.6 601.283 170.979C599.825 171.592 598.425 172 597.054 172.233C594.254 172.758 591.688 172.613 589.5 172.204C587.837 171.883 586.408 171.417 585.212 170.95C584.542 170.688 583.812 170.367 583.083 169.958L582.967 169.892L582.938 169.879L582.821 169.812L582.704 169.725L581.888 169.229C581.888 169.229 583.287 171.562 586.992 172.671L585.037 175.092C578.592 174.888 576.142 170.658 576.142 170.658C576.142 161.267 580.342 153.654 580.342 153.654C584.542 150.504 588.537 150.592 588.537 150.592L588.829 150.942C583.579 152.458 581.158 154.762 581.158 154.762L582.879 153.917C586 152.546 588.479 152.167 589.5 152.079L589.996 152.021C591.775 151.787 593.787 151.729 595.888 151.962C598.658 152.283 601.633 153.1 604.667 154.762C604.667 154.762 602.362 152.575 597.404 151.058L597.812 150.592C597.812 150.592 601.808 150.504 606.008 153.654C606.008 153.654 610.208 161.267 610.208 170.658C610.208 170.658 607.821 174.729 601.283 175.092ZM598.367 161.471C596.704 161.471 595.392 162.929 595.392 164.708C595.392 166.487 596.733 167.946 598.367 167.946C600.029 167.946 601.342 166.487 601.342 164.708C601.342 162.929 600.029 161.471 598.367 161.471ZM587.721 161.471C586.058 161.471 584.746 162.929 584.746 164.708C584.746 166.487 586.087 167.946 587.721 167.946C589.383 167.946 590.696 166.487 590.696 164.708C590.725 162.929 589.383 161.471 587.721 161.471Z" fill="#2F80ED"/>
<rect width="100" height="100" fill="black" fill-opacity="0" transform="translate(409 112)"/>
<path fill-rule="evenodd" clip-rule="evenodd" d="M459 112C431.392 112 409 134.383 409 162C409 189.613 431.392 212 459 212C486.613 212 509 189.613 509 162C509 134.383 486.613 112 459 112ZM484.938 171.083L479.029 173.058L481.071 179.171C481.875 181.646 480.562 184.338 478.083 185.137C475.287 185.929 472.862 184.358 472.096 182.158L470.054 176.037L457.871 180.117L459.912 186.233C460.862 189.158 458.858 192.412 455.463 192.412C453.321 192.412 451.571 191.042 450.942 189.217L448.892 183.1L442.983 185.067C440.225 185.867 437.771 184.296 437 182.079C436.2 179.608 437.513 176.912 439.992 176.113L445.9 174.146L441.962 162.421L436.05 164.388C432.758 165.321 429.833 162.954 429.833 159.917C429.833 157.929 431.071 156.071 433.058 155.429L438.971 153.463L436.925 147.35C436.125 144.871 437.438 142.175 439.921 141.375C442.4 140.575 445.096 141.883 445.9 144.362L447.95 150.475L460.129 146.4L458.088 140.283C457.108 137.275 459.267 134.079 462.567 134.079C464.558 134.079 466.421 135.317 467.067 137.3L469.108 143.417L475.017 141.45C477.496 140.646 480.196 141.962 481 144.438C481.804 146.912 480.488 149.604 478.008 150.404L472.096 152.371L476.038 164.096L481.95 162.129C484.971 161.154 488.167 163.304 488.167 166.596C488.167 168.587 486.929 170.442 484.938 171.083ZM463.083 155.462L450.908 159.533L454.842 171.267L467.021 167.2L463.083 155.462Z" fill="#2F80ED"/>
<rect width="100" height="100" fill="black" fill-opacity="0" transform="translate(677 112)"/>
<path d="M736.325 175.95C736.679 176.3 736.679 176.871 736.325 177.225C734.388 179.15 731.35 180.088 727.029 180.088L726.996 180.079L726.963 180.088C722.646 180.088 719.604 179.15 717.667 177.221C717.312 176.871 717.312 176.3 717.667 175.95C718.017 175.6 718.592 175.6 718.946 175.95C720.525 177.521 723.146 178.287 726.963 178.287L726.996 178.296L727.029 178.287C730.842 178.287 733.462 177.521 735.046 175.95C735.4 175.6 735.975 175.6 736.325 175.95ZM721.992 165.875C721.992 163.763 720.267 162.046 718.15 162.046C716.029 162.046 714.304 163.763 714.304 165.875C714.304 167.983 716.029 169.7 718.15 169.7C720.267 169.704 721.992 167.988 721.992 165.875ZM777 162C777 189.613 754.613 212 727 212C699.388 212 677 189.613 677 162C677 134.388 699.388 112 727 112C754.613 112 777 134.388 777 162ZM756.167 161.463C756.167 157.917 753.271 155.033 749.708 155.033C747.971 155.033 746.396 155.729 745.233 156.846C740.833 153.95 734.879 152.108 728.292 151.871L731.896 140.521L741.658 142.808L741.646 142.95C741.646 145.85 744.017 148.208 746.929 148.208C749.842 148.208 752.208 145.85 752.208 142.95C752.208 140.05 749.842 137.692 746.929 137.692C744.692 137.692 742.787 139.087 742.017 141.042L731.496 138.575C731.038 138.462 730.567 138.729 730.425 139.179L726.404 151.837C719.504 151.921 713.258 153.779 708.663 156.758C707.508 155.696 705.979 155.029 704.287 155.029C700.729 155.033 697.833 157.917 697.833 161.463C697.833 163.821 699.129 165.862 701.033 166.983C700.908 167.667 700.825 168.362 700.825 169.067C700.825 178.571 712.513 186.304 726.879 186.304C741.246 186.304 752.933 178.571 752.933 169.067C752.933 168.4 752.863 167.746 752.75 167.1C754.775 166.013 756.167 163.908 756.167 161.463ZM735.867 162.05C733.746 162.05 732.025 163.767 732.025 165.879C732.025 167.987 733.75 169.704 735.867 169.704C737.983 169.704 739.708 167.987 739.708 165.879C739.708 163.767 737.987 162.05 735.867 162.05Z" fill="#2F80ED"/>
</g>
<defs>
<filter id="filter0_d" x="0" y="0" width="1008" height="308" filterUnits="userSpaceOnUse" color-interpolation-filters="sRGB">
<feFlood flood-opacity="0" result="BackgroundImageFix"/>
<feColorMatrix in="SourceAlpha" type="matrix" values="0 0 0 0 0 0 0 0 0 0 0 0 0 0 0 0 0 0 255 0"/>
<feOffset dy="4"/>
<feGaussianBlur stdDeviation="2"/>
<feColorMatrix type="matrix" values="0 0 0 0 0 0 0 0 0 0 0 0 0 0 0 0 0 0 0.25 0"/>
<feBlend mode="normal" in2="BackgroundImageFix" result="effect1_dropShadow"/>
<feBlend mode="normal" in="SourceGraphic" in2="effect1_dropShadow" result="shape"/>
</filter>
<filter id="filter1_i" x="275" y="112" width="502" height="104" filterUnits="userSpaceOnUse" color-interpolation-filters="sRGB">
<feFlood flood-opacity="0" result="BackgroundImageFix"/>
<feBlend mode="normal" in="SourceGraphic" in2="BackgroundImageFix" result="shape"/>
<feColorMatrix in="SourceAlpha" type="matrix" values="0 0 0 0 0 0 0 0 0 0 0 0 0 0 0 0 0 0 255 0" result="hardAlpha"/>
<feOffset dy="4"/>
<feGaussianBlur stdDeviation="2"/>
<feComposite in2="hardAlpha" operator="arithmetic" k2="-1" k3="1"/>
<feColorMatrix type="matrix" values="0 0 0 0 0 0 0 0 0 0 0 0 0 0 0 0 0 0 0.25 0"/>
<feBlend mode="normal" in2="shape" result="effect1_innerShadow"/>
</filter>
</defs>
</svg>
