<svg width="708" height="308" viewBox="0 0 708 308" fill="none" xmlns="http://www.w3.org/2000/svg">
<rect width="700" height="300" fill="black" fill-opacity="0" transform="translate(4)"/>
<rect width="700" height="300" fill="#EBEBEB" transform="translate(4)"/>
<g filter="url(#filter0_d)">
<rect x="4" width="700" height="300" fill="#F2F2F2"/>
</g>
<path d="M103.367 57.7305H91.3965V68.1719H105.16V70H89.2344V44.4062H105.072V46.252H91.3965V55.9023H103.367V57.7305ZM115.215 58.6973L120.348 50.9805H122.844L116.393 60.3145L123.125 70H120.646L115.232 61.9492L109.818 70H107.34L114.055 60.3145L107.604 50.9805H110.082L115.215 58.6973ZM142.039 60.6836C142.039 63.6484 141.383 66.0039 140.07 67.75C138.758 69.4844 137 70.3516 134.797 70.3516C132.195 70.3516 130.203 69.4375 128.82 67.6094V77.3125H126.729V50.9805H128.68L128.785 53.6699C130.156 51.6426 132.143 50.6289 134.744 50.6289C137.018 50.6289 138.799 51.4902 140.088 53.2129C141.389 54.9355 142.039 57.3262 142.039 60.3848V60.6836ZM139.93 60.3145C139.93 57.8887 139.432 55.9727 138.436 54.5664C137.439 53.1602 136.051 52.457 134.27 52.457C132.98 52.457 131.873 52.7676 130.947 53.3887C130.021 54.0098 129.312 54.9121 128.82 56.0957V65.2188C129.324 66.3086 130.045 67.1406 130.982 67.7148C131.92 68.2891 133.027 68.5762 134.305 68.5762C136.074 68.5762 137.451 67.873 138.436 66.4668C139.432 65.0488 139.93 62.998 139.93 60.3145ZM154.08 70.3516C152.463 70.3516 150.998 69.9531 149.686 69.1562C148.385 68.3594 147.371 67.252 146.645 65.834C145.918 64.4043 145.555 62.8047 145.555 61.0352V60.2793C145.555 58.4512 145.906 56.8047 146.609 55.3398C147.324 53.875 148.314 52.7266 149.58 51.8945C150.846 51.0508 152.217 50.6289 153.693 50.6289C156.002 50.6289 157.83 51.4199 159.178 53.002C160.537 54.5723 161.217 56.7227 161.217 59.4531V60.6309H147.646V61.0352C147.646 63.1914 148.262 64.9902 149.492 66.4316C150.734 67.8613 152.293 68.5762 154.168 68.5762C155.293 68.5762 156.283 68.3711 157.139 67.9609C158.006 67.5508 158.791 66.8945 159.494 65.9922L160.812 66.9941C159.266 69.2324 157.021 70.3516 154.08 70.3516ZM153.693 52.4219C152.111 52.4219 150.775 53.002 149.686 54.1621C148.607 55.3223 147.951 56.8809 147.717 58.8379H159.125V58.6094C159.066 56.7812 158.545 55.293 157.561 54.1445C156.576 52.9961 155.287 52.4219 153.693 52.4219ZM174.102 52.7734C173.656 52.6914 173.182 52.6504 172.678 52.6504C171.365 52.6504 170.252 53.0195 169.338 53.7578C168.436 54.4844 167.791 55.5449 167.404 56.9395V70H165.312V50.9805H167.369L167.404 54.0039C168.518 51.7539 170.305 50.6289 172.766 50.6289C173.352 50.6289 173.814 50.7051 174.154 50.8574L174.102 52.7734ZM179.797 70H177.688V50.9805H179.797V70ZM177.318 45.4785C177.318 45.0801 177.447 44.7461 177.705 44.4766C177.963 44.1953 178.314 44.0547 178.76 44.0547C179.205 44.0547 179.557 44.1953 179.814 44.4766C180.084 44.7461 180.219 45.0801 180.219 45.4785C180.219 45.877 180.084 46.2109 179.814 46.4805C179.557 46.75 179.205 46.8848 178.76 46.8848C178.314 46.8848 177.963 46.75 177.705 46.4805C177.447 46.2109 177.318 45.877 177.318 45.4785ZM192.893 70.3516C191.275 70.3516 189.811 69.9531 188.498 69.1562C187.197 68.3594 186.184 67.252 185.457 65.834C184.73 64.4043 184.367 62.8047 184.367 61.0352V60.2793C184.367 58.4512 184.719 56.8047 185.422 55.3398C186.137 53.875 187.127 52.7266 188.393 51.8945C189.658 51.0508 191.029 50.6289 192.506 50.6289C194.814 50.6289 196.643 51.4199 197.99 53.002C199.35 54.5723 200.029 56.7227 200.029 59.4531V60.6309H186.459V61.0352C186.459 63.1914 187.074 64.9902 188.305 66.4316C189.547 67.8613 191.105 68.5762 192.98 68.5762C194.105 68.5762 195.096 68.3711 195.951 67.9609C196.818 67.5508 197.604 66.8945 198.307 65.9922L199.625 66.9941C198.078 69.2324 195.834 70.3516 192.893 70.3516ZM192.506 52.4219C190.924 52.4219 189.588 53.002 188.498 54.1621C187.42 55.3223 186.764 56.8809 186.529 58.8379H197.938V58.6094C197.879 56.7812 197.357 55.293 196.373 54.1445C195.389 52.9961 194.1 52.4219 192.506 52.4219ZM206.129 50.9805L206.199 54.2324C206.914 53.0605 207.805 52.1699 208.871 51.5605C209.938 50.9395 211.115 50.6289 212.404 50.6289C214.443 50.6289 215.961 51.2031 216.957 52.3516C217.953 53.5 218.457 55.2227 218.469 57.5195V70H216.377V57.502C216.365 55.8027 216.002 54.5371 215.287 53.7051C214.584 52.873 213.453 52.457 211.895 52.457C210.594 52.457 209.439 52.8672 208.432 53.6875C207.436 54.4961 206.697 55.5918 206.217 56.9746V70H204.125V50.9805H206.129ZM230.949 68.5762C232.414 68.5762 233.639 68.166 234.623 67.3457C235.619 66.5137 236.158 65.4414 236.24 64.1289H238.262C238.203 65.2891 237.84 66.3496 237.172 67.3105C236.504 68.2598 235.613 69.0039 234.5 69.543C233.398 70.082 232.215 70.3516 230.949 70.3516C228.453 70.3516 226.473 69.4844 225.008 67.75C223.555 66.0156 222.828 63.6836 222.828 60.7539V60.1211C222.828 58.2461 223.156 56.5879 223.812 55.1465C224.469 53.7051 225.406 52.5918 226.625 51.8066C227.855 51.0215 229.291 50.6289 230.932 50.6289C233.018 50.6289 234.734 51.25 236.082 52.4922C237.441 53.7344 238.168 55.3691 238.262 57.3965H236.24C236.146 55.9082 235.607 54.707 234.623 53.793C233.65 52.8789 232.42 52.4219 230.932 52.4219C229.033 52.4219 227.557 53.1074 226.502 54.4785C225.459 55.8496 224.938 57.7715 224.938 60.2441V60.8594C224.938 63.2852 225.459 65.1777 226.502 66.5371C227.557 67.8965 229.039 68.5762 230.949 68.5762ZM249.846 70.3516C248.229 70.3516 246.764 69.9531 245.451 69.1562C244.15 68.3594 243.137 67.252 242.41 65.834C241.684 64.4043 241.32 62.8047 241.32 61.0352V60.2793C241.32 58.4512 241.672 56.8047 242.375 55.3398C243.09 53.875 244.08 52.7266 245.346 51.8945C246.611 51.0508 247.982 50.6289 249.459 50.6289C251.768 50.6289 253.596 51.4199 254.943 53.002C256.303 54.5723 256.982 56.7227 256.982 59.4531V60.6309H243.412V61.0352C243.412 63.1914 244.027 64.9902 245.258 66.4316C246.5 67.8613 248.059 68.5762 249.934 68.5762C251.059 68.5762 252.049 68.3711 252.904 67.9609C253.771 67.5508 254.557 66.8945 255.26 65.9922L256.578 66.9941C255.031 69.2324 252.787 70.3516 249.846 70.3516ZM249.459 52.4219C247.877 52.4219 246.541 53.002 245.451 54.1621C244.373 55.3223 243.717 56.8809 243.482 58.8379H254.891V58.6094C254.832 56.7812 254.311 55.293 253.326 54.1445C252.342 52.9961 251.053 52.4219 249.459 52.4219ZM272.188 70H270.078V50.9805H272.188V70ZM269.709 45.4785C269.709 45.0801 269.838 44.7461 270.096 44.4766C270.354 44.1953 270.705 44.0547 271.15 44.0547C271.596 44.0547 271.947 44.1953 272.205 44.4766C272.475 44.7461 272.609 45.0801 272.609 45.4785C272.609 45.877 272.475 46.2109 272.205 46.4805C271.947 46.75 271.596 46.8848 271.15 46.8848C270.705 46.8848 270.354 46.75 270.096 46.4805C269.838 46.2109 269.709 45.877 269.709 45.4785ZM281.188 46.1113V50.9805H285.125V52.7031H281.188V65.377C281.188 66.4316 281.375 67.2168 281.75 67.7324C282.137 68.248 282.775 68.5059 283.666 68.5059C284.018 68.5059 284.586 68.4473 285.371 68.3301L285.459 70.0527C284.908 70.252 284.158 70.3516 283.209 70.3516C281.768 70.3516 280.719 69.9355 280.062 69.1035C279.406 68.2598 279.078 67.0234 279.078 65.3945V52.7031H275.58V50.9805H279.078V46.1113H281.188ZM300.594 70H298.484V50.9805H300.594V70ZM298.115 45.4785C298.115 45.0801 298.244 44.7461 298.502 44.4766C298.76 44.1953 299.111 44.0547 299.557 44.0547C300.002 44.0547 300.354 44.1953 300.611 44.4766C300.881 44.7461 301.016 45.0801 301.016 45.4785C301.016 45.877 300.881 46.2109 300.611 46.4805C300.354 46.75 300.002 46.8848 299.557 46.8848C299.111 46.8848 298.76 46.75 298.502 46.4805C298.244 46.2109 298.115 45.877 298.115 45.4785ZM308.328 50.9805L308.398 54.2324C309.113 53.0605 310.004 52.1699 311.07 51.5605C312.137 50.9395 313.314 50.6289 314.604 50.6289C316.643 50.6289 318.16 51.2031 319.156 52.3516C320.152 53.5 320.656 55.2227 320.668 57.5195V70H318.576V57.502C318.564 55.8027 318.201 54.5371 317.486 53.7051C316.783 52.873 315.652 52.457 314.094 52.457C312.793 52.457 311.639 52.8672 310.631 53.6875C309.635 54.4961 308.896 55.5918 308.416 56.9746V70H306.324V50.9805H308.328ZM346.877 70C346.666 69.4023 346.531 68.5176 346.473 67.3457C345.734 68.3066 344.791 69.0508 343.643 69.5781C342.506 70.0938 341.299 70.3516 340.021 70.3516C338.193 70.3516 336.711 69.8418 335.574 68.8223C334.449 67.8027 333.887 66.5137 333.887 64.9551C333.887 63.1035 334.654 61.6387 336.189 60.5605C337.736 59.4824 339.887 58.9434 342.641 58.9434H346.455V56.7812C346.455 55.4219 346.033 54.3555 345.189 53.582C344.357 52.7969 343.139 52.4043 341.533 52.4043C340.068 52.4043 338.855 52.7793 337.895 53.5293C336.934 54.2793 336.453 55.1816 336.453 56.2363L334.344 56.2188C334.344 54.707 335.047 53.4004 336.453 52.2988C337.859 51.1855 339.588 50.6289 341.639 50.6289C343.76 50.6289 345.43 51.1621 346.648 52.2285C347.879 53.2832 348.512 54.7598 348.547 56.6582V65.6582C348.547 67.498 348.74 68.875 349.127 69.7891V70H346.877ZM340.268 68.4883C341.674 68.4883 342.928 68.1484 344.029 67.4688C345.143 66.7891 345.951 65.8809 346.455 64.7441V60.5605H342.693C340.596 60.584 338.955 60.9707 337.771 61.7207C336.588 62.459 335.996 63.4785 335.996 64.7793C335.996 65.8457 336.389 66.7305 337.174 67.4336C337.971 68.1367 339.002 68.4883 340.268 68.4883ZM361.203 68.5762C362.668 68.5762 363.893 68.166 364.877 67.3457C365.873 66.5137 366.412 65.4414 366.494 64.1289H368.516C368.457 65.2891 368.094 66.3496 367.426 67.3105C366.758 68.2598 365.867 69.0039 364.754 69.543C363.652 70.082 362.469 70.3516 361.203 70.3516C358.707 70.3516 356.727 69.4844 355.262 67.75C353.809 66.0156 353.082 63.6836 353.082 60.7539V60.1211C353.082 58.2461 353.41 56.5879 354.066 55.1465C354.723 53.7051 355.66 52.5918 356.879 51.8066C358.109 51.0215 359.545 50.6289 361.186 50.6289C363.271 50.6289 364.988 51.25 366.336 52.4922C367.695 53.7344 368.422 55.3691 368.516 57.3965H366.494C366.4 55.9082 365.861 54.707 364.877 53.793C363.904 52.8789 362.674 52.4219 361.186 52.4219C359.287 52.4219 357.811 53.1074 356.756 54.4785C355.713 55.8496 355.191 57.7715 355.191 60.2441V60.8594C355.191 63.2852 355.713 65.1777 356.756 66.5371C357.811 67.8965 359.293 68.5762 361.203 68.5762ZM376.004 46.1113V50.9805H379.941V52.7031H376.004V65.377C376.004 66.4316 376.191 67.2168 376.566 67.7324C376.953 68.248 377.592 68.5059 378.482 68.5059C378.834 68.5059 379.402 68.4473 380.188 68.3301L380.275 70.0527C379.725 70.252 378.975 70.3516 378.025 70.3516C376.584 70.3516 375.535 69.9355 374.879 69.1035C374.223 68.2598 373.895 67.0234 373.895 65.3945V52.7031H370.396V50.9805H373.895V46.1113H376.004ZM386.656 70H384.547V50.9805H386.656V70ZM384.178 45.4785C384.178 45.0801 384.307 44.7461 384.564 44.4766C384.822 44.1953 385.174 44.0547 385.619 44.0547C386.064 44.0547 386.416 44.1953 386.674 44.4766C386.943 44.7461 387.078 45.0801 387.078 45.4785C387.078 45.877 386.943 46.2109 386.674 46.4805C386.416 46.75 386.064 46.8848 385.619 46.8848C385.174 46.8848 384.822 46.75 384.564 46.4805C384.307 46.2109 384.178 45.877 384.178 45.4785ZM391.227 60.209C391.227 58.3809 391.578 56.7344 392.281 55.2695C392.996 53.8047 393.998 52.668 395.287 51.8594C396.588 51.0391 398.059 50.6289 399.699 50.6289C402.23 50.6289 404.281 51.5195 405.852 53.3008C407.422 55.0703 408.207 57.4199 408.207 60.3496V60.7891C408.207 62.6289 407.85 64.2871 407.135 65.7637C406.432 67.2285 405.436 68.3594 404.146 69.1562C402.857 69.9531 401.387 70.3516 399.734 70.3516C397.215 70.3516 395.164 69.4668 393.582 67.6973C392.012 65.916 391.227 63.5605 391.227 60.6309V60.209ZM393.336 60.7891C393.336 63.0625 393.922 64.9316 395.094 66.3965C396.277 67.8496 397.824 68.5762 399.734 68.5762C401.633 68.5762 403.168 67.8496 404.34 66.3965C405.523 64.9316 406.115 63.0039 406.115 60.6133V60.209C406.115 58.7559 405.846 57.4258 405.307 56.2188C404.768 55.0117 404.012 54.0801 403.039 53.4238C402.066 52.7559 400.953 52.4219 399.699 52.4219C397.824 52.4219 396.295 53.1602 395.111 54.6367C393.928 56.1016 393.336 58.0234 393.336 60.4023V60.7891ZM414.57 50.9805L414.641 54.2324C415.355 53.0605 416.246 52.1699 417.312 51.5605C418.379 50.9395 419.557 50.6289 420.846 50.6289C422.885 50.6289 424.402 51.2031 425.398 52.3516C426.395 53.5 426.898 55.2227 426.91 57.5195V70H424.818V57.502C424.807 55.8027 424.443 54.5371 423.729 53.7051C423.025 52.873 421.895 52.457 420.336 52.457C419.035 52.457 417.881 52.8672 416.873 53.6875C415.877 54.4961 415.139 55.5918 414.658 56.9746V70H412.566V50.9805H414.57Z" fill="black"/>
<path d="M124.925 259.336C124.834 260.092 124.626 260.774 124.303 261.38C123.979 261.986 123.587 262.435 123.127 262.727C122.667 263.018 122.156 263.157 121.596 263.144C120.702 263.125 120.039 262.79 119.606 262.139L119.354 263H118.212L120.037 252.5H121.274L120.529 256.424C121.122 255.768 121.842 255.449 122.689 255.467C123.4 255.485 123.954 255.747 124.351 256.253C124.747 256.759 124.957 257.456 124.979 258.345C124.984 258.636 124.97 258.919 124.938 259.192L124.925 259.336ZM123.749 258.618C123.763 257.953 123.651 257.445 123.414 257.094C123.177 256.738 122.815 256.551 122.327 256.533C121.557 256.515 120.905 256.902 120.372 257.695L119.818 260.915C120.092 261.667 120.604 262.052 121.356 262.07C121.84 262.089 122.261 261.945 122.621 261.64C122.986 261.334 123.261 260.908 123.448 260.361C123.635 259.81 123.735 259.229 123.749 258.618ZM130.018 255.467C130.637 255.476 131.168 255.645 131.61 255.973C132.052 256.301 132.378 256.754 132.588 257.333C132.802 257.907 132.875 258.536 132.807 259.22L132.793 259.37C132.706 260.09 132.492 260.742 132.15 261.325C131.809 261.904 131.367 262.355 130.824 262.679C130.282 263.002 129.687 263.155 129.04 263.137C128.425 263.128 127.894 262.959 127.447 262.631C127.005 262.303 126.682 261.856 126.477 261.291C126.271 260.726 126.199 260.104 126.258 259.425C126.326 258.659 126.534 257.971 126.88 257.36C127.226 256.75 127.671 256.278 128.213 255.945C128.76 255.608 129.361 255.449 130.018 255.467ZM127.502 259.432C127.47 259.719 127.47 260.017 127.502 260.327C127.548 260.865 127.707 261.293 127.98 261.612C128.258 261.931 128.628 262.098 129.088 262.111C129.498 262.125 129.876 262.025 130.223 261.811C130.569 261.592 130.861 261.264 131.098 260.826C131.335 260.389 131.487 259.903 131.556 259.37C131.592 258.951 131.599 258.598 131.576 258.311C131.521 257.759 131.355 257.324 131.077 257.005C130.799 256.686 130.43 256.517 129.97 256.499C129.332 256.485 128.789 256.736 128.343 257.251C127.896 257.766 127.62 258.44 127.516 259.274L127.502 259.432ZM136.997 253.812L136.683 255.604H138.029L137.858 256.581H136.519L135.746 261.182C135.732 261.3 135.73 261.41 135.739 261.51C135.771 261.865 135.965 262.043 136.32 262.043C136.471 262.043 136.671 262.02 136.922 261.975L136.826 263.007C136.53 263.089 136.229 263.13 135.924 263.13C135.432 263.121 135.062 262.941 134.816 262.59C134.57 262.234 134.475 261.758 134.529 261.161L135.281 256.581H133.976L134.146 255.604H135.452L135.767 253.812H136.997ZM138.433 263L140.162 253.047L143.081 253.054C144.097 253.054 144.858 253.282 145.364 253.737C145.87 254.193 146.091 254.829 146.027 255.645C145.945 256.597 145.346 257.315 144.229 257.798C144.676 257.971 145.009 258.267 145.228 258.687C145.451 259.106 145.542 259.568 145.501 260.074C145.433 260.972 145.073 261.685 144.421 262.214C143.769 262.738 142.926 263 141.892 263H138.433ZM140.524 258.345L139.902 261.927L141.933 261.934C142.552 261.934 143.072 261.767 143.491 261.435C143.91 261.102 144.154 260.653 144.223 260.088C144.286 259.55 144.193 259.131 143.942 258.83C143.692 258.529 143.298 258.37 142.76 258.352L140.524 258.345ZM140.709 257.292L142.562 257.299C143.14 257.299 143.628 257.151 144.024 256.854C144.425 256.558 144.66 256.15 144.729 255.631C144.788 255.148 144.692 254.783 144.441 254.537C144.195 254.291 143.785 254.157 143.211 254.134L141.256 254.127L140.709 257.292ZM148.44 261.927H153.021L152.829 263H146.964L148.693 253.047H149.985L148.44 261.927ZM154.347 263L156.076 253.047L158.66 253.054C159.471 253.054 160.169 253.257 160.752 253.662C161.34 254.068 161.761 254.628 162.017 255.344C162.272 256.055 162.347 256.852 162.242 257.736L162.174 258.235C161.973 259.685 161.41 260.842 160.485 261.708C159.56 262.569 158.398 263 156.999 263H154.347ZM157.17 254.127L155.816 261.927L157.081 261.934C158.047 261.934 158.865 261.633 159.535 261.031C160.21 260.43 160.647 259.605 160.848 258.557C161.007 257.718 161.062 257.005 161.012 256.417C160.943 255.711 160.709 255.159 160.308 254.763C159.907 254.362 159.369 254.152 158.694 254.134L157.17 254.127ZM167.608 258.974H165.312L164.614 263H163.322L165.052 253.047L168.046 253.054C169.09 253.058 169.885 253.323 170.432 253.847C170.979 254.371 171.209 255.084 171.122 255.986C171.072 256.611 170.844 257.16 170.438 257.634C170.037 258.108 169.502 258.465 168.832 258.707L170.377 262.911L170.37 263H169.003L167.608 258.974ZM165.496 257.9L167.383 257.907C168.039 257.907 168.593 257.734 169.044 257.388C169.495 257.037 169.759 256.57 169.837 255.986C169.905 255.417 169.791 254.97 169.495 254.646C169.199 254.323 168.748 254.152 168.142 254.134L166.152 254.127L165.496 257.9ZM177.315 256.506C177.963 255.799 178.708 255.455 179.551 255.474C180.243 255.483 180.756 255.722 181.089 256.191C181.426 256.656 181.551 257.31 181.465 258.153L180.658 263H179.421L180.234 258.133C180.262 257.91 180.264 257.702 180.241 257.511C180.164 256.873 179.788 256.547 179.113 256.533C178.357 256.515 177.705 256.911 177.158 257.723L176.242 263H175.005L176.83 252.5H178.067L177.315 256.506ZM187.077 263C187.045 262.868 187.029 262.738 187.029 262.61L187.05 262.221C186.371 262.85 185.651 263.155 184.89 263.137C184.238 263.128 183.707 262.923 183.297 262.521C182.891 262.116 182.707 261.61 182.743 261.004C182.789 260.22 183.131 259.609 183.769 259.172C184.411 258.73 185.254 258.509 186.298 258.509L187.59 258.516L187.672 257.928C187.717 257.486 187.631 257.137 187.412 256.882C187.198 256.622 186.874 256.488 186.441 256.479C186.018 256.469 185.642 256.574 185.313 256.793C184.99 257.007 184.792 257.292 184.719 257.647L183.475 257.654C183.516 257.221 183.684 256.839 183.98 256.506C184.277 256.169 184.657 255.909 185.122 255.727C185.587 255.54 186.068 255.451 186.564 255.46C187.335 255.478 187.934 255.713 188.362 256.164C188.791 256.611 188.971 257.205 188.902 257.948L188.301 261.612L188.267 262.139C188.257 262.389 188.285 262.638 188.349 262.884L188.335 263H187.077ZM185.136 262.043C185.532 262.052 185.906 261.959 186.257 261.763C186.612 261.562 186.918 261.286 187.173 260.936L187.439 259.411L186.503 259.404C185.724 259.404 185.127 259.527 184.712 259.773C184.297 260.02 184.062 260.368 184.008 260.819C183.967 261.166 184.047 261.455 184.247 261.688C184.452 261.915 184.748 262.034 185.136 262.043ZM192.471 255.597L192.293 256.533C192.958 255.804 193.715 255.449 194.562 255.467C195.26 255.485 195.775 255.727 196.107 256.191C196.44 256.656 196.563 257.31 196.477 258.153L195.67 263H194.433L195.246 258.133C195.273 257.91 195.276 257.702 195.253 257.511C195.175 256.873 194.799 256.547 194.125 256.533C193.382 256.52 192.73 256.916 192.17 257.723L191.254 263H190.017L191.302 255.604L192.471 255.597ZM197.933 259.288C198.024 258.536 198.231 257.857 198.555 257.251C198.878 256.645 199.277 256.191 199.751 255.891C200.225 255.59 200.747 255.446 201.316 255.46C202.141 255.478 202.775 255.779 203.217 256.362L203.928 252.5H205.165L203.347 263H202.219L202.349 262.207C201.765 262.845 201.045 263.155 200.188 263.137C199.505 263.118 198.96 262.852 198.555 262.337C198.149 261.817 197.93 261.122 197.898 260.252C197.885 259.983 197.896 259.662 197.933 259.288ZM199.122 259.999C199.108 260.651 199.225 261.157 199.471 261.517C199.717 261.877 200.077 262.061 200.551 262.07C201.266 262.102 201.902 261.742 202.458 260.99L203.046 257.572C202.772 256.898 202.276 256.551 201.556 256.533C201.068 256.52 200.637 256.668 200.264 256.978C199.895 257.283 199.612 257.714 199.416 258.27C199.225 258.821 199.127 259.397 199.122 259.999ZM206.642 263H205.411L207.229 252.5H208.467L206.642 263ZM211.864 263.137C210.944 263.118 210.224 262.779 209.704 262.118C209.185 261.457 208.966 260.612 209.048 259.582L209.082 259.288C209.16 258.554 209.376 257.884 209.731 257.278C210.091 256.672 210.529 256.216 211.044 255.911C211.559 255.601 212.115 255.453 212.712 255.467C213.473 255.485 214.07 255.738 214.503 256.226C214.936 256.713 215.173 257.374 215.214 258.208C215.228 258.504 215.218 258.8 215.187 259.097L215.111 259.664H210.278C210.196 260.334 210.306 260.904 210.606 261.373C210.912 261.842 211.365 262.086 211.967 262.104C212.696 262.123 213.37 261.795 213.99 261.12L214.701 261.722C214.391 262.168 213.99 262.519 213.498 262.774C213.01 263.025 212.466 263.146 211.864 263.137ZM212.65 256.499C212.14 256.485 211.693 256.659 211.311 257.019C210.932 257.379 210.632 257.914 210.408 258.625L214.004 258.632L214.031 258.522C214.104 257.948 214.011 257.472 213.751 257.094C213.496 256.711 213.129 256.513 212.65 256.499ZM220.505 260.997C220.573 260.487 220.293 260.127 219.664 259.917L218.379 259.541C217.294 259.167 216.77 258.548 216.807 257.682C216.839 257.03 217.135 256.497 217.695 256.082C218.26 255.663 218.924 255.458 219.685 255.467C220.432 255.476 221.038 255.695 221.503 256.123C221.972 256.547 222.198 257.101 222.18 257.784L220.949 257.777C220.958 257.408 220.842 257.107 220.601 256.875C220.359 256.643 220.038 256.522 219.637 256.513C219.208 256.504 218.839 256.608 218.529 256.827C218.242 257.032 218.076 257.301 218.03 257.634C217.971 258.062 218.233 258.374 218.816 258.57L219.438 258.741C220.286 258.96 220.888 259.245 221.243 259.596C221.599 259.947 221.763 260.382 221.735 260.901C221.708 261.362 221.558 261.763 221.284 262.104C221.011 262.446 220.646 262.708 220.19 262.891C219.735 263.068 219.249 263.15 218.734 263.137C217.951 263.128 217.303 262.9 216.793 262.453C216.283 262.002 216.036 261.423 216.055 260.717L217.292 260.724C217.292 261.138 217.424 261.471 217.688 261.722C217.953 261.972 218.315 262.098 218.775 262.098C219.227 262.107 219.616 262.013 219.944 261.817C220.272 261.617 220.459 261.343 220.505 260.997ZM230.95 263C230.918 262.868 230.902 262.738 230.902 262.61L230.923 262.221C230.244 262.85 229.524 263.155 228.763 263.137C228.111 263.128 227.58 262.923 227.17 262.521C226.764 262.116 226.58 261.61 226.616 261.004C226.662 260.22 227.004 259.609 227.642 259.172C228.284 258.73 229.127 258.509 230.171 258.509L231.463 258.516L231.545 257.928C231.59 257.486 231.504 257.137 231.285 256.882C231.071 256.622 230.747 256.488 230.314 256.479C229.891 256.469 229.515 256.574 229.187 256.793C228.863 257.007 228.665 257.292 228.592 257.647L227.348 257.654C227.389 257.221 227.557 256.839 227.854 256.506C228.15 256.169 228.53 255.909 228.995 255.727C229.46 255.54 229.941 255.451 230.438 255.46C231.208 255.478 231.807 255.713 232.235 256.164C232.664 256.611 232.844 257.205 232.775 257.948L232.174 261.612L232.14 262.139C232.131 262.389 232.158 262.638 232.222 262.884L232.208 263H230.95ZM229.009 262.043C229.405 262.052 229.779 261.959 230.13 261.763C230.485 261.562 230.791 261.286 231.046 260.936L231.312 259.411L230.376 259.404C229.597 259.404 229 259.527 228.585 259.773C228.17 260.02 227.936 260.368 227.881 260.819C227.84 261.166 227.92 261.455 228.12 261.688C228.325 261.915 228.621 262.034 229.009 262.043ZM235.229 263H233.999L235.817 252.5H237.055L235.229 263ZM238.593 263H237.362L239.181 252.5H240.418L238.593 263ZM244.403 259.288C244.494 258.536 244.702 257.857 245.025 257.251C245.349 256.645 245.748 256.191 246.222 255.891C246.696 255.59 247.217 255.446 247.787 255.46C248.612 255.478 249.245 255.779 249.688 256.362L250.398 252.5H251.636L249.817 263H248.689L248.819 262.207C248.236 262.845 247.516 263.155 246.659 263.137C245.976 263.118 245.431 262.852 245.025 262.337C244.62 261.817 244.401 261.122 244.369 260.252C244.355 259.983 244.367 259.662 244.403 259.288ZM245.593 259.999C245.579 260.651 245.695 261.157 245.941 261.517C246.188 261.877 246.548 262.061 247.021 262.07C247.737 262.102 248.373 261.742 248.929 260.99L249.517 257.572C249.243 256.898 248.746 256.551 248.026 256.533C247.539 256.52 247.108 256.668 246.734 256.978C246.365 257.283 246.083 257.714 245.887 258.27C245.695 258.821 245.597 259.397 245.593 259.999ZM254.972 263.137C254.051 263.118 253.331 262.779 252.812 262.118C252.292 261.457 252.073 260.612 252.155 259.582L252.189 259.288C252.267 258.554 252.483 257.884 252.839 257.278C253.199 256.672 253.636 256.216 254.151 255.911C254.666 255.601 255.222 255.453 255.819 255.467C256.58 255.485 257.177 255.738 257.61 256.226C258.043 256.713 258.28 257.374 258.321 258.208C258.335 258.504 258.326 258.8 258.294 259.097L258.219 259.664H253.386C253.304 260.334 253.413 260.904 253.714 261.373C254.019 261.842 254.473 262.086 255.074 262.104C255.803 262.123 256.478 261.795 257.098 261.12L257.809 261.722C257.499 262.168 257.098 262.519 256.605 262.774C256.118 263.025 255.573 263.146 254.972 263.137ZM255.758 256.499C255.247 256.485 254.801 256.659 254.418 257.019C254.04 257.379 253.739 257.914 253.516 258.625L257.111 258.632L257.139 258.522C257.212 257.948 257.118 257.472 256.858 257.094C256.603 256.711 256.236 256.513 255.758 256.499ZM265.731 259.336C265.64 260.088 265.438 260.765 265.123 261.366C264.809 261.968 264.419 262.419 263.954 262.72C263.489 263.016 262.974 263.157 262.409 263.144C261.552 263.125 260.896 262.836 260.44 262.275L259.777 265.844H258.54L260.317 255.604L261.438 255.597L261.302 256.424C261.912 255.768 262.644 255.449 263.496 255.467C264.207 255.485 264.761 255.747 265.157 256.253C265.554 256.759 265.763 257.456 265.786 258.345C265.791 258.636 265.779 258.919 265.752 259.192L265.731 259.336ZM264.515 259.192L264.549 258.618C264.549 257.953 264.421 257.445 264.166 257.094C263.915 256.738 263.551 256.551 263.072 256.533C262.357 256.515 261.739 256.854 261.22 257.552L260.598 261.1C260.876 261.756 261.375 262.093 262.095 262.111C262.71 262.125 263.232 261.886 263.66 261.394C264.093 260.897 264.378 260.163 264.515 259.192ZM268.069 263H266.839L268.657 252.5H269.895L268.069 263ZM274.201 255.467C274.821 255.476 275.352 255.645 275.794 255.973C276.236 256.301 276.562 256.754 276.771 257.333C276.986 257.907 277.059 258.536 276.99 259.22L276.977 259.37C276.89 260.09 276.676 260.742 276.334 261.325C275.992 261.904 275.55 262.355 275.008 262.679C274.465 263.002 273.871 263.155 273.224 263.137C272.608 263.128 272.077 262.959 271.631 262.631C271.189 262.303 270.865 261.856 270.66 261.291C270.455 260.726 270.382 260.104 270.441 259.425C270.51 258.659 270.717 257.971 271.063 257.36C271.41 256.75 271.854 256.278 272.396 255.945C272.943 255.608 273.545 255.449 274.201 255.467ZM271.686 259.432C271.654 259.719 271.654 260.017 271.686 260.327C271.731 260.865 271.891 261.293 272.164 261.612C272.442 261.931 272.811 262.098 273.271 262.111C273.682 262.125 274.06 262.025 274.406 261.811C274.753 261.592 275.044 261.264 275.281 260.826C275.518 260.389 275.671 259.903 275.739 259.37C275.776 258.951 275.783 258.598 275.76 258.311C275.705 257.759 275.539 257.324 275.261 257.005C274.983 256.686 274.614 256.517 274.153 256.499C273.515 256.485 272.973 256.736 272.526 257.251C272.08 257.766 271.804 258.44 271.699 259.274L271.686 259.432ZM280.456 261.134L283.088 255.604H284.455L280.066 264.23C279.456 265.429 278.672 266.021 277.715 266.008C277.546 266.003 277.298 265.962 276.97 265.885L277.079 264.859L277.4 264.894C277.792 264.912 278.13 264.823 278.412 264.627C278.699 264.436 278.952 264.123 279.171 263.69L279.615 262.843L278.337 255.604H279.629L280.456 261.134ZM286.738 255.597L286.581 256.424C287.201 255.768 287.951 255.449 288.83 255.467C289.299 255.476 289.696 255.583 290.02 255.788C290.348 255.993 290.573 256.283 290.696 256.656C291.389 255.845 292.207 255.449 293.15 255.467C293.889 255.485 294.433 255.733 294.784 256.212C295.135 256.69 295.265 257.333 295.174 258.14L294.36 263H293.13L293.937 258.126C293.964 257.889 293.964 257.673 293.937 257.477C293.85 256.857 293.444 256.54 292.72 256.526C292.269 256.517 291.858 256.659 291.489 256.95C291.125 257.237 290.89 257.616 290.785 258.085L289.944 263H288.7L289.521 258.133C289.58 257.627 289.502 257.237 289.288 256.964C289.078 256.69 288.75 256.549 288.304 256.54C287.534 256.522 286.921 256.873 286.465 257.593L285.528 263H284.291L285.576 255.604L286.738 255.597ZM299.474 263.137C298.553 263.118 297.833 262.779 297.313 262.118C296.794 261.457 296.575 260.612 296.657 259.582L296.691 259.288C296.769 258.554 296.985 257.884 297.341 257.278C297.701 256.672 298.138 256.216 298.653 255.911C299.168 255.601 299.724 255.453 300.321 255.467C301.082 255.485 301.679 255.738 302.112 256.226C302.545 256.713 302.782 257.374 302.823 258.208C302.837 258.504 302.828 258.8 302.796 259.097L302.721 259.664H297.888C297.806 260.334 297.915 260.904 298.216 261.373C298.521 261.842 298.975 262.086 299.576 262.104C300.305 262.123 300.98 261.795 301.6 261.12L302.311 261.722C302.001 262.168 301.6 262.519 301.107 262.774C300.62 263.025 300.075 263.146 299.474 263.137ZM300.26 256.499C299.749 256.485 299.303 256.659 298.92 257.019C298.542 257.379 298.241 257.914 298.018 258.625L301.613 258.632L301.641 258.522C301.714 257.948 301.62 257.472 301.36 257.094C301.105 256.711 300.738 256.513 300.26 256.499ZM305.988 255.597L305.811 256.533C306.476 255.804 307.232 255.449 308.08 255.467C308.777 255.485 309.292 255.727 309.625 256.191C309.958 256.656 310.081 257.31 309.994 258.153L309.188 263H307.95L308.764 258.133C308.791 257.91 308.793 257.702 308.771 257.511C308.693 256.873 308.317 256.547 307.643 256.533C306.9 256.52 306.248 256.916 305.688 257.723L304.771 263H303.534L304.819 255.604L305.988 255.597ZM314.362 253.812L314.048 255.604H315.395L315.224 256.581H313.884L313.111 261.182C313.098 261.3 313.095 261.41 313.104 261.51C313.136 261.865 313.33 262.043 313.686 262.043C313.836 262.043 314.036 262.02 314.287 261.975L314.191 263.007C313.895 263.089 313.594 263.13 313.289 263.13C312.797 263.121 312.428 262.941 312.182 262.59C311.936 262.234 311.84 261.758 311.895 261.161L312.646 256.581H311.341L311.512 255.604H312.817L313.132 253.812H314.362ZM323.563 263C323.532 262.868 323.516 262.738 323.516 262.61L323.536 262.221C322.857 262.85 322.137 263.155 321.376 263.137C320.724 263.128 320.193 262.923 319.783 262.521C319.378 262.116 319.193 261.61 319.229 261.004C319.275 260.22 319.617 259.609 320.255 259.172C320.897 258.73 321.741 258.509 322.784 258.509L324.076 258.516L324.158 257.928C324.204 257.486 324.117 257.137 323.898 256.882C323.684 256.622 323.361 256.488 322.928 256.479C322.504 256.469 322.128 256.574 321.8 256.793C321.476 257.007 321.278 257.292 321.205 257.647L319.961 257.654C320.002 257.221 320.171 256.839 320.467 256.506C320.763 256.169 321.144 255.909 321.608 255.727C322.073 255.54 322.554 255.451 323.051 255.46C323.821 255.478 324.42 255.713 324.849 256.164C325.277 256.611 325.457 257.205 325.389 257.948L324.787 261.612L324.753 262.139C324.744 262.389 324.771 262.638 324.835 262.884L324.821 263H323.563ZM321.622 262.043C322.019 262.052 322.392 261.959 322.743 261.763C323.099 261.562 323.404 261.286 323.659 260.936L323.926 259.411L322.989 259.404C322.21 259.404 321.613 259.527 321.198 259.773C320.784 260.02 320.549 260.368 320.494 260.819C320.453 261.166 320.533 261.455 320.733 261.688C320.938 261.915 321.235 262.034 321.622 262.043ZM328.957 255.597L328.779 256.533C329.445 255.804 330.201 255.449 331.049 255.467C331.746 255.485 332.261 255.727 332.594 256.191C332.926 256.656 333.049 257.31 332.963 258.153L332.156 263H330.919L331.732 258.133C331.76 257.91 331.762 257.702 331.739 257.511C331.662 256.873 331.286 256.547 330.611 256.533C329.868 256.52 329.217 256.916 328.656 257.723L327.74 263H326.503L327.788 255.604L328.957 255.597ZM334.419 259.288C334.51 258.536 334.717 257.857 335.041 257.251C335.365 256.645 335.763 256.191 336.237 255.891C336.711 255.59 337.233 255.446 337.803 255.46C338.628 255.478 339.261 255.779 339.703 256.362L340.414 252.5H341.651L339.833 263H338.705L338.835 262.207C338.252 262.845 337.532 263.155 336.675 263.137C335.991 263.118 335.447 262.852 335.041 262.337C334.635 261.817 334.417 261.122 334.385 260.252C334.371 259.983 334.382 259.662 334.419 259.288ZM335.608 259.999C335.595 260.651 335.711 261.157 335.957 261.517C336.203 261.877 336.563 262.061 337.037 262.07C337.753 262.102 338.388 261.742 338.944 260.99L339.532 257.572C339.259 256.898 338.762 256.551 338.042 256.533C337.554 256.52 337.124 256.668 336.75 256.978C336.381 257.283 336.098 257.714 335.902 258.27C335.711 258.821 335.613 259.397 335.608 259.999ZM346.56 263H345.329L346.614 255.604H347.845L346.56 263ZM347.578 252.903C347.788 252.894 347.961 252.958 348.098 253.095C348.239 253.227 348.31 253.402 348.31 253.621C348.305 253.835 348.234 254.011 348.098 254.147C347.965 254.284 347.792 254.357 347.578 254.366C347.364 254.375 347.188 254.314 347.052 254.182C346.915 254.049 346.849 253.876 346.854 253.662C346.858 253.448 346.926 253.27 347.059 253.129C347.191 252.988 347.364 252.912 347.578 252.903ZM351.037 255.597L350.859 256.533C351.525 255.804 352.281 255.449 353.129 255.467C353.826 255.485 354.341 255.727 354.674 256.191C355.007 256.656 355.13 257.31 355.043 258.153L354.236 263H352.999L353.812 258.133C353.84 257.91 353.842 257.702 353.819 257.511C353.742 256.873 353.366 256.547 352.691 256.533C351.949 256.52 351.297 256.916 350.736 257.723L349.82 263H348.583L349.868 255.604L351.037 255.597ZM356.745 263L357.866 256.581H356.725L356.896 255.604H358.03L358.153 254.729C358.272 253.986 358.559 253.405 359.015 252.985C359.493 252.548 360.104 252.334 360.847 252.343C361.079 252.343 361.373 252.382 361.729 252.459L361.578 253.491C361.359 253.446 361.138 253.418 360.915 253.409C360.487 253.409 360.138 253.544 359.869 253.812C359.605 254.077 359.441 254.43 359.377 254.872L359.268 255.604H360.799L360.628 256.581H359.097L357.982 263H356.745ZM365.529 256.731L364.948 256.67C364.155 256.67 363.531 257.028 363.075 257.743L362.166 263H360.929L362.214 255.604L363.41 255.597L363.226 256.458C363.75 255.77 364.367 255.435 365.078 255.453C365.229 255.453 365.424 255.487 365.666 255.556L365.529 256.731ZM369.843 263C369.811 262.868 369.795 262.738 369.795 262.61L369.815 262.221C369.136 262.85 368.416 263.155 367.655 263.137C367.004 263.128 366.473 262.923 366.062 262.521C365.657 262.116 365.472 261.61 365.509 261.004C365.554 260.22 365.896 259.609 366.534 259.172C367.177 258.73 368.02 258.509 369.063 258.509L370.355 258.516L370.438 257.928C370.483 257.486 370.396 257.137 370.178 256.882C369.964 256.622 369.64 256.488 369.207 256.479C368.783 256.469 368.407 256.574 368.079 256.793C367.756 257.007 367.557 257.292 367.484 257.647L366.24 257.654C366.281 257.221 366.45 256.839 366.746 256.506C367.042 256.169 367.423 255.909 367.888 255.727C368.353 255.54 368.833 255.451 369.33 255.46C370.1 255.478 370.7 255.713 371.128 256.164C371.556 256.611 371.736 257.205 371.668 257.948L371.066 261.612L371.032 262.139C371.023 262.389 371.05 262.638 371.114 262.884L371.101 263H369.843ZM367.901 262.043C368.298 262.052 368.672 261.959 369.022 261.763C369.378 261.562 369.683 261.286 369.938 260.936L370.205 259.411L369.269 259.404C368.489 259.404 367.892 259.527 367.478 259.773C367.063 260.02 366.828 260.368 366.773 260.819C366.732 261.166 366.812 261.455 367.013 261.688C367.218 261.915 367.514 262.034 367.901 262.043ZM377.362 260.997C377.431 260.487 377.15 260.127 376.521 259.917L375.236 259.541C374.152 259.167 373.628 258.548 373.664 257.682C373.696 257.03 373.992 256.497 374.553 256.082C375.118 255.663 375.781 255.458 376.542 255.467C377.289 255.476 377.896 255.695 378.36 256.123C378.83 256.547 379.055 257.101 379.037 257.784L377.807 257.777C377.816 257.408 377.7 257.107 377.458 256.875C377.216 256.643 376.895 256.522 376.494 256.513C376.066 256.504 375.697 256.608 375.387 256.827C375.1 257.032 374.933 257.301 374.888 257.634C374.828 258.062 375.09 258.374 375.674 258.57L376.296 258.741C377.144 258.96 377.745 259.245 378.101 259.596C378.456 259.947 378.62 260.382 378.593 260.901C378.565 261.362 378.415 261.763 378.142 262.104C377.868 262.446 377.504 262.708 377.048 262.891C376.592 263.068 376.107 263.15 375.592 263.137C374.808 263.128 374.161 262.9 373.65 262.453C373.14 262.002 372.894 261.423 372.912 260.717L374.149 260.724C374.149 261.138 374.282 261.471 374.546 261.722C374.81 261.972 375.173 262.098 375.633 262.098C376.084 262.107 376.474 262.013 376.802 261.817C377.13 261.617 377.317 261.343 377.362 260.997ZM383.118 253.812L382.804 255.604H384.15L383.979 256.581H382.64L381.867 261.182C381.854 261.3 381.851 261.41 381.86 261.51C381.892 261.865 382.086 262.043 382.441 262.043C382.592 262.043 382.792 262.02 383.043 261.975L382.947 263.007C382.651 263.089 382.35 263.13 382.045 263.13C381.553 263.121 381.184 262.941 380.938 262.59C380.691 262.234 380.596 261.758 380.65 261.161L381.402 256.581H380.097L380.268 255.604H381.573L381.888 253.812H383.118ZM388.963 256.731L388.382 256.67C387.589 256.67 386.965 257.028 386.509 257.743L385.6 263H384.362L385.647 255.604L386.844 255.597L386.659 256.458C387.183 255.77 387.801 255.435 388.512 255.453C388.662 255.453 388.858 255.487 389.1 255.556L388.963 256.731ZM393.721 262.269C393.142 262.866 392.406 263.155 391.513 263.137C390.806 263.118 390.282 262.866 389.94 262.378C389.603 261.89 389.478 261.225 389.564 260.382L390.357 255.604H391.595L390.795 260.402C390.772 260.603 390.768 260.799 390.781 260.99C390.804 261.318 390.902 261.576 391.075 261.763C391.248 261.95 391.49 262.05 391.8 262.063C392.684 262.091 393.368 261.733 393.851 260.99L394.78 255.604H396.018L394.732 263H393.563L393.721 262.269ZM399.709 262.111C400.151 262.12 400.55 261.993 400.905 261.729C401.261 261.46 401.493 261.109 401.603 260.676L402.771 260.669C402.703 261.134 402.516 261.558 402.211 261.94C401.91 262.323 401.53 262.622 401.069 262.836C400.609 263.05 400.137 263.15 399.654 263.137C399.039 263.128 398.517 262.968 398.089 262.658C397.665 262.344 397.353 261.909 397.152 261.353C396.952 260.792 396.883 260.163 396.947 259.466L396.981 259.124C397.068 258.413 397.275 257.777 397.604 257.217C397.932 256.656 398.36 256.221 398.889 255.911C399.417 255.597 400.001 255.449 400.639 255.467C401.413 255.485 402.033 255.745 402.498 256.246C402.963 256.747 403.195 257.383 403.195 258.153L402.04 258.146C402.031 257.663 401.896 257.274 401.637 256.978C401.377 256.677 401.026 256.517 400.584 256.499C399.941 256.485 399.406 256.725 398.978 257.217C398.554 257.709 398.289 258.397 398.185 259.281L398.164 259.459C398.137 259.751 398.132 260.051 398.15 260.361C398.182 260.895 398.333 261.316 398.602 261.626C398.87 261.936 399.24 262.098 399.709 262.111ZM407.03 253.812L406.716 255.604H408.062L407.892 256.581H406.552L405.779 261.182C405.766 261.3 405.763 261.41 405.772 261.51C405.804 261.865 405.998 262.043 406.354 262.043C406.504 262.043 406.704 262.02 406.955 261.975L406.859 263.007C406.563 263.089 406.262 263.13 405.957 263.13C405.465 263.121 405.096 262.941 404.85 262.59C404.604 262.234 404.508 261.758 404.562 261.161L405.314 256.581H404.009L404.18 255.604H405.485L405.8 253.812H407.03ZM412.971 262.269C412.392 262.866 411.656 263.155 410.763 263.137C410.056 263.118 409.532 262.866 409.19 262.378C408.853 261.89 408.728 261.225 408.814 260.382L409.607 255.604H410.845L410.045 260.402C410.022 260.603 410.018 260.799 410.031 260.99C410.054 261.318 410.152 261.576 410.325 261.763C410.498 261.95 410.74 262.05 411.05 262.063C411.934 262.091 412.618 261.733 413.101 260.99L414.03 255.604H415.268L413.982 263H412.813L412.971 262.269ZM420.436 256.731L419.854 256.67C419.062 256.67 418.437 257.028 417.981 257.743L417.072 263H415.835L417.12 255.604L418.316 255.597L418.132 256.458C418.656 255.77 419.273 255.435 419.984 255.453C420.135 255.453 420.331 255.487 420.572 255.556L420.436 256.731ZM423.56 263.137C422.639 263.118 421.919 262.779 421.399 262.118C420.88 261.457 420.661 260.612 420.743 259.582L420.777 259.288C420.855 258.554 421.071 257.884 421.427 257.278C421.787 256.672 422.224 256.216 422.739 255.911C423.254 255.601 423.81 255.453 424.407 255.467C425.168 255.485 425.765 255.738 426.198 256.226C426.631 256.713 426.868 257.374 426.909 258.208C426.923 258.504 426.914 258.8 426.882 259.097L426.807 259.664H421.974C421.892 260.334 422.001 260.904 422.302 261.373C422.607 261.842 423.061 262.086 423.662 262.104C424.391 262.123 425.066 261.795 425.686 261.12L426.396 261.722C426.087 262.168 425.686 262.519 425.193 262.774C424.706 263.025 424.161 263.146 423.56 263.137ZM424.346 256.499C423.835 256.485 423.389 256.659 423.006 257.019C422.628 257.379 422.327 257.914 422.104 258.625L425.699 258.632L425.727 258.522C425.799 257.948 425.706 257.472 425.446 257.094C425.191 256.711 424.824 256.513 424.346 256.499ZM431.653 263L432.774 256.581H431.633L431.804 255.604H432.938L433.062 254.729C433.18 253.986 433.467 253.405 433.923 252.985C434.401 252.548 435.012 252.334 435.755 252.343C435.987 252.343 436.281 252.382 436.637 252.459L436.486 253.491C436.268 253.446 436.047 253.418 435.823 253.409C435.395 253.409 435.046 253.544 434.777 253.812C434.513 254.077 434.349 254.43 434.285 254.872L434.176 255.604H435.707L435.536 256.581H434.005L432.891 263H431.653ZM439.945 255.467C440.565 255.476 441.096 255.645 441.538 255.973C441.98 256.301 442.306 256.754 442.516 257.333C442.73 257.907 442.803 258.536 442.734 259.22L442.721 259.37C442.634 260.09 442.42 260.742 442.078 261.325C441.736 261.904 441.294 262.355 440.752 262.679C440.21 263.002 439.615 263.155 438.968 263.137C438.353 263.128 437.822 262.959 437.375 262.631C436.933 262.303 436.609 261.856 436.404 261.291C436.199 260.726 436.126 260.104 436.186 259.425C436.254 258.659 436.461 257.971 436.808 257.36C437.154 256.75 437.598 256.278 438.141 255.945C438.688 255.608 439.289 255.449 439.945 255.467ZM437.43 259.432C437.398 259.719 437.398 260.017 437.43 260.327C437.475 260.865 437.635 261.293 437.908 261.612C438.186 261.931 438.555 262.098 439.016 262.111C439.426 262.125 439.804 262.025 440.15 261.811C440.497 261.592 440.788 261.264 441.025 260.826C441.262 260.389 441.415 259.903 441.483 259.37C441.52 258.951 441.527 258.598 441.504 258.311C441.449 257.759 441.283 257.324 441.005 257.005C440.727 256.686 440.358 256.517 439.897 256.499C439.259 256.485 438.717 256.736 438.271 257.251C437.824 257.766 437.548 258.44 437.443 259.274L437.43 259.432ZM448.258 256.731L447.677 256.67C446.884 256.67 446.259 257.028 445.804 257.743L444.895 263H443.657L444.942 255.604L446.139 255.597L445.954 256.458C446.478 255.77 447.096 255.435 447.807 255.453C447.957 255.453 448.153 255.487 448.395 255.556L448.258 256.731ZM455.019 253.812L454.704 255.604H456.051L455.88 256.581H454.54L453.768 261.182C453.754 261.3 453.752 261.41 453.761 261.51C453.793 261.865 453.986 262.043 454.342 262.043C454.492 262.043 454.693 262.02 454.943 261.975L454.848 263.007C454.551 263.089 454.251 263.13 453.945 263.13C453.453 263.121 453.084 262.941 452.838 262.59C452.592 262.234 452.496 261.758 452.551 261.161L453.303 256.581H451.997L452.168 255.604H453.474L453.788 253.812H455.019ZM458.573 256.506C459.22 255.799 459.965 255.455 460.809 255.474C461.501 255.483 462.014 255.722 462.347 256.191C462.684 256.656 462.809 257.31 462.723 258.153L461.916 263H460.679L461.492 258.133C461.52 257.91 461.522 257.702 461.499 257.511C461.422 256.873 461.046 256.547 460.371 256.533C459.615 256.515 458.963 256.911 458.416 257.723L457.5 263H456.263L458.088 252.5H459.325L458.573 256.506ZM467.009 263.137C466.088 263.118 465.368 262.779 464.849 262.118C464.329 261.457 464.11 260.612 464.192 259.582L464.227 259.288C464.304 258.554 464.521 257.884 464.876 257.278C465.236 256.672 465.674 256.216 466.188 255.911C466.703 255.601 467.259 255.453 467.856 255.467C468.618 255.485 469.215 255.738 469.647 256.226C470.08 256.713 470.317 257.374 470.358 258.208C470.372 258.504 470.363 258.8 470.331 259.097L470.256 259.664H465.423C465.341 260.334 465.45 260.904 465.751 261.373C466.056 261.842 466.51 262.086 467.111 262.104C467.84 262.123 468.515 261.795 469.135 261.12L469.846 261.722C469.536 262.168 469.135 262.519 468.643 262.774C468.155 263.025 467.61 263.146 467.009 263.137ZM467.795 256.499C467.285 256.485 466.838 256.659 466.455 257.019C466.077 257.379 465.776 257.914 465.553 258.625L469.148 258.632L469.176 258.522C469.249 257.948 469.155 257.472 468.896 257.094C468.64 256.711 468.273 256.513 467.795 256.499ZM475.841 263H474.61L476.429 252.5H477.666L475.841 263ZM479.204 263H477.974L479.259 255.604H480.489L479.204 263ZM480.223 252.903C480.432 252.894 480.605 252.958 480.742 253.095C480.883 253.227 480.954 253.402 480.954 253.621C480.95 253.835 480.879 254.011 480.742 254.147C480.61 254.284 480.437 254.357 480.223 254.366C480.008 254.375 479.833 254.314 479.696 254.182C479.56 254.049 479.493 253.876 479.498 253.662C479.503 253.448 479.571 253.27 479.703 253.129C479.835 252.988 480.008 252.912 480.223 252.903ZM481.829 263L482.95 256.581H481.809L481.979 255.604H483.114L483.237 254.729C483.356 253.986 483.643 253.405 484.099 252.985C484.577 252.548 485.188 252.334 485.931 252.343C486.163 252.343 486.457 252.382 486.812 252.459L486.662 253.491C486.443 253.446 486.222 253.418 485.999 253.409C485.571 253.409 485.222 253.544 484.953 253.812C484.689 254.077 484.525 254.43 484.461 254.872L484.352 255.604H485.883L485.712 256.581H484.181L483.066 263H481.829ZM489.048 263.137C488.127 263.118 487.407 262.779 486.888 262.118C486.368 261.457 486.149 260.612 486.231 259.582L486.266 259.288C486.343 258.554 486.56 257.884 486.915 257.278C487.275 256.672 487.713 256.216 488.228 255.911C488.743 255.601 489.299 255.453 489.896 255.467C490.657 255.485 491.254 255.738 491.687 256.226C492.119 256.713 492.356 257.374 492.397 258.208C492.411 258.504 492.402 258.8 492.37 259.097L492.295 259.664H487.462C487.38 260.334 487.489 260.904 487.79 261.373C488.095 261.842 488.549 262.086 489.15 262.104C489.88 262.123 490.554 261.795 491.174 261.12L491.885 261.722C491.575 262.168 491.174 262.519 490.682 262.774C490.194 263.025 489.649 263.146 489.048 263.137ZM489.834 256.499C489.324 256.485 488.877 256.659 488.494 257.019C488.116 257.379 487.815 257.914 487.592 258.625L491.188 258.632L491.215 258.522C491.288 257.948 491.194 257.472 490.935 257.094C490.679 256.711 490.312 256.513 489.834 256.499ZM496.376 253.812L496.062 255.604H497.408L497.237 256.581H495.897L495.125 261.182C495.111 261.3 495.109 261.41 495.118 261.51C495.15 261.865 495.344 262.043 495.699 262.043C495.85 262.043 496.05 262.02 496.301 261.975L496.205 263.007C495.909 263.089 495.608 263.13 495.303 263.13C494.811 263.121 494.441 262.941 494.195 262.59C493.949 262.234 493.854 261.758 493.908 261.161L494.66 256.581H493.354L493.525 255.604H494.831L495.146 253.812H496.376ZM498.96 263H497.729L499.015 255.604H500.245L498.96 263ZM499.979 252.903C500.188 252.894 500.361 252.958 500.498 253.095C500.639 253.227 500.71 253.402 500.71 253.621C500.705 253.835 500.635 254.011 500.498 254.147C500.366 254.284 500.193 254.357 499.979 254.366C499.764 254.375 499.589 254.314 499.452 254.182C499.315 254.049 499.249 253.876 499.254 253.662C499.258 253.448 499.327 253.27 499.459 253.129C499.591 252.988 499.764 252.912 499.979 252.903ZM503.424 255.597L503.267 256.424C503.886 255.768 504.636 255.449 505.516 255.467C505.985 255.476 506.382 255.583 506.705 255.788C507.033 255.993 507.259 256.283 507.382 256.656C508.075 255.845 508.893 255.449 509.836 255.467C510.574 255.485 511.119 255.733 511.47 256.212C511.821 256.69 511.951 257.333 511.859 258.14L511.046 263H509.815L510.622 258.126C510.649 257.889 510.649 257.673 510.622 257.477C510.535 256.857 510.13 256.54 509.405 256.526C508.954 256.517 508.544 256.659 508.175 256.95C507.81 257.237 507.576 257.616 507.471 258.085L506.63 263H505.386L506.206 258.133C506.265 257.627 506.188 257.237 505.974 256.964C505.764 256.69 505.436 256.549 504.989 256.54C504.219 256.522 503.606 256.873 503.15 257.593L502.214 263H500.977L502.262 255.604L503.424 255.597ZM516.159 263.137C515.239 263.118 514.519 262.779 513.999 262.118C513.479 261.457 513.261 260.612 513.343 259.582L513.377 259.288C513.454 258.554 513.671 257.884 514.026 257.278C514.386 256.672 514.824 256.216 515.339 255.911C515.854 255.601 516.41 255.453 517.007 255.467C517.768 255.485 518.365 255.738 518.798 256.226C519.231 256.713 519.468 257.374 519.509 258.208C519.522 258.504 519.513 258.8 519.481 259.097L519.406 259.664H514.573C514.491 260.334 514.601 260.904 514.901 261.373C515.207 261.842 515.66 262.086 516.262 262.104C516.991 262.123 517.665 261.795 518.285 261.12L518.996 261.722C518.686 262.168 518.285 262.519 517.793 262.774C517.305 263.025 516.761 263.146 516.159 263.137ZM516.945 256.499C516.435 256.485 515.988 256.659 515.605 257.019C515.227 257.379 514.926 257.914 514.703 258.625L518.299 258.632L518.326 258.522C518.399 257.948 518.306 257.472 518.046 257.094C517.791 256.711 517.424 256.513 516.945 256.499ZM527.76 255.467C528.38 255.476 528.91 255.645 529.353 255.973C529.795 256.301 530.12 256.754 530.33 257.333C530.544 257.907 530.617 258.536 530.549 259.22L530.535 259.37C530.449 260.09 530.234 260.742 529.893 261.325C529.551 261.904 529.109 262.355 528.566 262.679C528.024 263.002 527.429 263.155 526.782 263.137C526.167 263.128 525.636 262.959 525.189 262.631C524.747 262.303 524.424 261.856 524.219 261.291C524.014 260.726 523.941 260.104 524 259.425C524.068 258.659 524.276 257.971 524.622 257.36C524.968 256.75 525.413 256.278 525.955 255.945C526.502 255.608 527.104 255.449 527.76 255.467ZM525.244 259.432C525.212 259.719 525.212 260.017 525.244 260.327C525.29 260.865 525.449 261.293 525.723 261.612C526.001 261.931 526.37 262.098 526.83 262.111C527.24 262.125 527.618 262.025 527.965 261.811C528.311 261.592 528.603 261.264 528.84 260.826C529.077 260.389 529.229 259.903 529.298 259.37C529.334 258.951 529.341 258.598 529.318 258.311C529.264 257.759 529.097 257.324 528.819 257.005C528.541 256.686 528.172 256.517 527.712 256.499C527.074 256.485 526.532 256.736 526.085 257.251C525.638 257.766 525.363 258.44 525.258 259.274L525.244 259.432ZM532.073 263L533.194 256.581H532.053L532.224 255.604H533.358L533.481 254.729C533.6 253.986 533.887 253.405 534.343 252.985C534.821 252.548 535.432 252.334 536.175 252.343C536.407 252.343 536.701 252.382 537.057 252.459L536.906 253.491C536.688 253.446 536.466 253.418 536.243 253.409C535.815 253.409 535.466 253.544 535.197 253.812C534.933 254.077 534.769 254.43 534.705 254.872L534.596 255.604H536.127L535.956 256.581H534.425L533.311 263H532.073ZM542.341 261.134L544.973 255.604H546.34L541.951 264.23C541.34 265.429 540.557 266.021 539.6 266.008C539.431 266.003 539.183 265.962 538.854 265.885L538.964 264.859L539.285 264.894C539.677 264.912 540.014 264.823 540.297 264.627C540.584 264.436 540.837 264.123 541.056 263.69L541.5 262.843L540.222 255.604H541.514L542.341 261.134ZM550.182 255.467C550.801 255.476 551.332 255.645 551.774 255.973C552.216 256.301 552.542 256.754 552.752 257.333C552.966 257.907 553.039 258.536 552.971 259.22L552.957 259.37C552.87 260.09 552.656 260.742 552.314 261.325C551.973 261.904 551.531 262.355 550.988 262.679C550.446 263.002 549.851 263.155 549.204 263.137C548.589 263.128 548.058 262.959 547.611 262.631C547.169 262.303 546.846 261.856 546.641 261.291C546.436 260.726 546.363 260.104 546.422 259.425C546.49 258.659 546.698 257.971 547.044 257.36C547.39 256.75 547.835 256.278 548.377 255.945C548.924 255.608 549.525 255.449 550.182 255.467ZM547.666 259.432C547.634 259.719 547.634 260.017 547.666 260.327C547.712 260.865 547.871 261.293 548.145 261.612C548.423 261.931 548.792 262.098 549.252 262.111C549.662 262.125 550.04 262.025 550.387 261.811C550.733 261.592 551.025 261.264 551.262 260.826C551.499 260.389 551.651 259.903 551.72 259.37C551.756 258.951 551.763 258.598 551.74 258.311C551.686 257.759 551.519 257.324 551.241 257.005C550.963 256.686 550.594 256.517 550.134 256.499C549.496 256.485 548.953 256.736 548.507 257.251C548.06 257.766 547.785 258.44 547.68 259.274L547.666 259.432ZM558.59 262.269C558.011 262.866 557.275 263.155 556.382 263.137C555.675 263.118 555.151 262.866 554.81 262.378C554.472 261.89 554.347 261.225 554.434 260.382L555.227 255.604H556.464L555.664 260.402C555.641 260.603 555.637 260.799 555.65 260.99C555.673 261.318 555.771 261.576 555.944 261.763C556.118 261.95 556.359 262.05 556.669 262.063C557.553 262.091 558.237 261.733 558.72 260.99L559.649 255.604H560.887L559.602 263H558.433L558.59 262.269ZM566.055 256.731L565.474 256.67C564.681 256.67 564.056 257.028 563.601 257.743L562.691 263H561.454L562.739 255.604L563.936 255.597L563.751 256.458C564.275 255.77 564.893 255.435 565.604 255.453C565.754 255.453 565.95 255.487 566.191 255.556L566.055 256.731ZM576.261 259.336C576.17 260.092 575.962 260.774 575.639 261.38C575.315 261.986 574.923 262.435 574.463 262.727C574.003 263.018 573.492 263.157 572.932 263.144C572.038 263.125 571.375 262.79 570.942 262.139L570.689 263H569.548L571.373 252.5H572.61L571.865 256.424C572.458 255.768 573.178 255.449 574.025 255.467C574.736 255.485 575.29 255.747 575.687 256.253C576.083 256.759 576.293 257.456 576.315 258.345C576.32 258.636 576.306 258.919 576.274 259.192L576.261 259.336ZM575.085 258.618C575.099 257.953 574.987 257.445 574.75 257.094C574.513 256.738 574.151 256.551 573.663 256.533C572.893 256.515 572.241 256.902 571.708 257.695L571.154 260.915C571.428 261.667 571.94 262.052 572.692 262.07C573.175 262.089 573.597 261.945 573.957 261.64C574.322 261.334 574.597 260.908 574.784 260.361C574.971 259.81 575.071 259.229 575.085 258.618ZM581.354 255.467C581.973 255.476 582.504 255.645 582.946 255.973C583.388 256.301 583.714 256.754 583.924 257.333C584.138 257.907 584.211 258.536 584.143 259.22L584.129 259.37C584.042 260.09 583.828 260.742 583.486 261.325C583.145 261.904 582.702 262.355 582.16 262.679C581.618 263.002 581.023 263.155 580.376 263.137C579.761 263.128 579.23 262.959 578.783 262.631C578.341 262.303 578.018 261.856 577.812 261.291C577.607 260.726 577.535 260.104 577.594 259.425C577.662 258.659 577.869 257.971 578.216 257.36C578.562 256.75 579.007 256.278 579.549 255.945C580.096 255.608 580.697 255.449 581.354 255.467ZM578.838 259.432C578.806 259.719 578.806 260.017 578.838 260.327C578.883 260.865 579.043 261.293 579.316 261.612C579.594 261.931 579.964 262.098 580.424 262.111C580.834 262.125 581.212 262.025 581.559 261.811C581.905 261.592 582.197 261.264 582.434 260.826C582.671 260.389 582.823 259.903 582.892 259.37C582.928 258.951 582.935 258.598 582.912 258.311C582.857 257.759 582.691 257.324 582.413 257.005C582.135 256.686 581.766 256.517 581.306 256.499C580.668 256.485 580.125 256.736 579.679 257.251C579.232 257.766 578.956 258.44 578.852 259.274L578.838 259.432ZM588.333 253.812L588.019 255.604H589.365L589.194 256.581H587.854L587.082 261.182C587.068 261.3 587.066 261.41 587.075 261.51C587.107 261.865 587.301 262.043 587.656 262.043C587.807 262.043 588.007 262.02 588.258 261.975L588.162 263.007C587.866 263.089 587.565 263.13 587.26 263.13C586.768 263.121 586.398 262.941 586.152 262.59C585.906 262.234 585.811 261.758 585.865 261.161L586.617 256.581H585.312L585.482 255.604H586.788L587.103 253.812H588.333Z" fill="black"/>
<path d="M50.4453 51.4141H53.3516C54.9609 51.4141 56.3672 51.1328 57.5703 50.5703C58.7734 49.9922 59.6875 49.2109 60.3125 48.2266C60.9531 47.2266 61.2734 46.0781 61.2734 44.7812C61.2734 42.5938 60.6562 40.8828 59.4219 39.6484C58.1875 38.4141 56.4141 37.7969 54.1016 37.7969C51.9141 37.7969 50.1172 38.4453 48.7109 39.7422C47.3203 41.0234 46.625 42.7188 46.625 44.8281H43.8125C43.8125 43.0625 44.2578 41.4531 45.1484 40C46.0391 38.5312 47.2734 37.3984 48.8516 36.6016C50.4297 35.8047 52.1797 35.4062 54.1016 35.4062C57.1953 35.4062 59.6328 36.25 61.4141 37.9375C63.1953 39.625 64.0859 41.9375 64.0859 44.875C64.0859 46.5156 63.5625 48.0312 62.5156 49.4219C61.4844 50.7969 60.0625 51.8281 58.25 52.5156C60.375 53.1094 61.9844 54.1328 63.0781 55.5859C64.1719 57.0234 64.7188 58.7422 64.7188 60.7422C64.7188 63.6641 63.7656 66.0156 61.8594 67.7969C59.9531 69.5781 57.4062 70.4688 54.2188 70.4688C52.1875 70.4688 50.3203 70.0625 48.6172 69.25C46.9297 68.4375 45.6172 67.3047 44.6797 65.8516C43.7578 64.3828 43.2969 62.6797 43.2969 60.7422H46.1094C46.1094 62.9141 46.8672 64.6875 48.3828 66.0625C49.8984 67.4219 51.8438 68.1016 54.2188 68.1016C56.6406 68.1016 58.5234 67.4844 59.8672 66.25C61.2266 65 61.9062 63.1953 61.9062 60.8359C61.9062 58.5547 61.1719 56.8125 59.7031 55.6094C58.25 54.4062 56.1016 53.8047 53.2578 53.8047H50.4453V51.4141ZM71.0234 68.3125C71.0234 67.7656 71.1953 67.3047 71.5391 66.9297C71.8984 66.5391 72.3906 66.3438 73.0156 66.3438C73.6406 66.3438 74.1328 66.5391 74.4922 66.9297C74.8516 67.3047 75.0312 67.7656 75.0312 68.3125C75.0312 68.8594 74.8516 69.3125 74.4922 69.6719C74.1328 70.0156 73.6406 70.1875 73.0156 70.1875C72.3906 70.1875 71.8984 70.0156 71.5391 69.6719C71.1953 69.3125 71.0234 68.8594 71.0234 68.3125Z" fill="#2F80ED"/>
<rect width="461.091" height="100" fill="black" fill-opacity="0" transform="translate(123 112)"/>
<rect width="100" height="100" fill="black" fill-opacity="0" transform="translate(123 112)"/>
<path d="M123 112V191.167H223V112H123ZM214.667 182.833H131.333V120.333H214.667V182.833ZM187.171 199.5L198 212H148L158.829 199.5H187.171Z" fill="#2F80ED"/>
<rect width="109.091" height="100" fill="black" fill-opacity="0" transform="translate(475 112)"/>
<path d="M529.545 112C500.736 112 475 131.209 475 157.486C475 166.805 478.359 175.955 484.305 183.055C484.555 191.373 479.655 203.309 475.245 212C487.073 209.864 503.886 205.145 511.509 200.473C553.491 210.686 584.091 184.995 584.091 157.486C584.091 131.068 558.177 112 529.545 112V112ZM506.818 164.273C503.05 164.273 500 161.223 500 157.455C500 153.686 503.05 150.636 506.818 150.636C510.586 150.636 513.636 153.686 513.636 157.455C513.636 161.223 510.586 164.273 506.818 164.273ZM529.545 164.273C525.777 164.273 522.727 161.223 522.727 157.455C522.727 153.686 525.777 150.636 529.545 150.636C533.314 150.636 536.364 153.686 536.364 157.455C536.364 161.223 533.314 164.273 529.545 164.273ZM552.273 164.273C548.509 164.273 545.455 161.223 545.455 157.455C545.455 153.686 548.509 150.636 552.273 150.636C556.041 150.636 559.091 153.686 559.091 157.455C559.091 161.223 556.041 164.273 552.273 164.273Z" fill="#2F80ED"/>
<circle cx="307.5" cy="161.5" r="7.5" fill="black"/>
<circle cx="349.5" cy="161.5" r="7.5" fill="black"/>
<circle cx="391.5" cy="161.5" r="7.5" fill="black"/>
<defs>
<filter id="filter0_d" x="0" y="0" width="708" height="308" filterUnits="userSpaceOnUse" color-interpolation-filters="sRGB">
<feFlood flood-opacity="0" result="BackgroundImageFix"/>
<feColorMatrix in="SourceAlpha" type="matrix" values="0 0 0 0 0 0 0 0 0 0 0 0 0 0 0 0 0 0 255 0"/>
<feOffset dy="4"/>
<feGaussianBlur stdDeviation="2"/>
<feColorMatrix type="matrix" values="0 0 0 0 0 0 0 0 0 0 0 0 0 0 0 0 0 0 0.25 0"/>
<feBlend mode="normal" in2="BackgroundImageFix" result="effect1_dropShadow"/>
<feBlend mode="normal" in="SourceGraphic" in2="effect1_dropShadow" result="shape"/>
</filter>
</defs>
</svg>
