<svg width="1008" height="308" viewBox="0 0 1008 308" fill="none" xmlns="http://www.w3.org/2000/svg">
<rect width="1000" height="300" fill="black" fill-opacity="0" transform="translate(4)"/>
<rect width="1000" height="300" fill="#EBEBEB" transform="translate(4)"/>
<g filter="url(#filter0_d)">
<rect x="4" width="1000" height="300" fill="#F3F5F9"/>
</g>
<rect width="472" height="231" fill="black" fill-opacity="0" transform="translate(268 34)"/>
<path d="M274.925 257.336C274.834 258.092 274.626 258.774 274.303 259.38C273.979 259.986 273.587 260.435 273.127 260.727C272.667 261.018 272.156 261.157 271.596 261.144C270.702 261.125 270.039 260.79 269.606 260.139L269.354 261H268.212L270.037 250.5H271.274L270.529 254.424C271.122 253.768 271.842 253.449 272.689 253.467C273.4 253.485 273.954 253.747 274.351 254.253C274.747 254.759 274.957 255.456 274.979 256.345C274.984 256.636 274.97 256.919 274.938 257.192L274.925 257.336ZM273.749 256.618C273.763 255.953 273.651 255.445 273.414 255.094C273.177 254.738 272.815 254.551 272.327 254.533C271.557 254.515 270.905 254.902 270.372 255.695L269.818 258.915C270.092 259.667 270.604 260.052 271.356 260.07C271.84 260.089 272.261 259.945 272.621 259.64C272.986 259.334 273.261 258.908 273.448 258.361C273.635 257.81 273.735 257.229 273.749 256.618ZM280.018 253.467C280.637 253.476 281.168 253.645 281.61 253.973C282.052 254.301 282.378 254.754 282.588 255.333C282.802 255.907 282.875 256.536 282.807 257.22L282.793 257.37C282.706 258.09 282.492 258.742 282.15 259.325C281.809 259.904 281.367 260.355 280.824 260.679C280.282 261.002 279.687 261.155 279.04 261.137C278.425 261.128 277.894 260.959 277.447 260.631C277.005 260.303 276.682 259.856 276.477 259.291C276.271 258.726 276.199 258.104 276.258 257.425C276.326 256.659 276.534 255.971 276.88 255.36C277.226 254.75 277.671 254.278 278.213 253.945C278.76 253.608 279.361 253.449 280.018 253.467ZM277.502 257.432C277.47 257.719 277.47 258.017 277.502 258.327C277.548 258.865 277.707 259.293 277.98 259.612C278.258 259.931 278.628 260.098 279.088 260.111C279.498 260.125 279.876 260.025 280.223 259.811C280.569 259.592 280.861 259.264 281.098 258.826C281.335 258.389 281.487 257.903 281.556 257.37C281.592 256.951 281.599 256.598 281.576 256.311C281.521 255.759 281.355 255.324 281.077 255.005C280.799 254.686 280.43 254.517 279.97 254.499C279.332 254.485 278.789 254.736 278.343 255.251C277.896 255.766 277.62 256.44 277.516 257.274L277.502 257.432ZM286.997 251.812L286.683 253.604H288.029L287.858 254.581H286.519L285.746 259.182C285.732 259.3 285.73 259.41 285.739 259.51C285.771 259.865 285.965 260.043 286.32 260.043C286.471 260.043 286.671 260.02 286.922 259.975L286.826 261.007C286.53 261.089 286.229 261.13 285.924 261.13C285.432 261.121 285.062 260.941 284.816 260.59C284.57 260.234 284.475 259.758 284.529 259.161L285.281 254.581H283.976L284.146 253.604H285.452L285.767 251.812H286.997ZM288.433 261L290.162 251.047L293.081 251.054C294.097 251.054 294.858 251.282 295.364 251.737C295.87 252.193 296.091 252.829 296.027 253.645C295.945 254.597 295.346 255.315 294.229 255.798C294.676 255.971 295.009 256.267 295.228 256.687C295.451 257.106 295.542 257.568 295.501 258.074C295.433 258.972 295.073 259.685 294.421 260.214C293.769 260.738 292.926 261 291.892 261H288.433ZM290.524 256.345L289.902 259.927L291.933 259.934C292.552 259.934 293.072 259.767 293.491 259.435C293.91 259.102 294.154 258.653 294.223 258.088C294.286 257.55 294.193 257.131 293.942 256.83C293.692 256.529 293.298 256.37 292.76 256.352L290.524 256.345ZM290.709 255.292L292.562 255.299C293.14 255.299 293.628 255.151 294.024 254.854C294.425 254.558 294.66 254.15 294.729 253.631C294.788 253.148 294.692 252.783 294.441 252.537C294.195 252.291 293.785 252.157 293.211 252.134L291.256 252.127L290.709 255.292ZM298.44 259.927H303.021L302.829 261H296.964L298.693 251.047H299.985L298.44 259.927ZM304.347 261L306.076 251.047L308.66 251.054C309.471 251.054 310.169 251.257 310.752 251.662C311.34 252.068 311.761 252.628 312.017 253.344C312.272 254.055 312.347 254.852 312.242 255.736L312.174 256.235C311.973 257.685 311.41 258.842 310.485 259.708C309.56 260.569 308.398 261 306.999 261H304.347ZM307.17 252.127L305.816 259.927L307.081 259.934C308.047 259.934 308.865 259.633 309.535 259.031C310.21 258.43 310.647 257.605 310.848 256.557C311.007 255.718 311.062 255.005 311.012 254.417C310.943 253.711 310.709 253.159 310.308 252.763C309.907 252.362 309.369 252.152 308.694 252.134L307.17 252.127ZM317.608 256.974H315.312L314.614 261H313.322L315.052 251.047L318.046 251.054C319.09 251.058 319.885 251.323 320.432 251.847C320.979 252.371 321.209 253.084 321.122 253.986C321.072 254.611 320.844 255.16 320.438 255.634C320.037 256.108 319.502 256.465 318.832 256.707L320.377 260.911L320.37 261H319.003L317.608 256.974ZM315.496 255.9L317.383 255.907C318.039 255.907 318.593 255.734 319.044 255.388C319.495 255.037 319.759 254.57 319.837 253.986C319.905 253.417 319.791 252.97 319.495 252.646C319.199 252.323 318.748 252.152 318.142 252.134L316.152 252.127L315.496 255.9ZM327.315 254.506C327.963 253.799 328.708 253.455 329.551 253.474C330.243 253.483 330.756 253.722 331.089 254.191C331.426 254.656 331.551 255.31 331.465 256.153L330.658 261H329.421L330.234 256.133C330.262 255.91 330.264 255.702 330.241 255.511C330.164 254.873 329.788 254.547 329.113 254.533C328.357 254.515 327.705 254.911 327.158 255.723L326.242 261H325.005L326.83 250.5H328.067L327.315 254.506ZM337.077 261C337.045 260.868 337.029 260.738 337.029 260.61L337.05 260.221C336.371 260.85 335.651 261.155 334.89 261.137C334.238 261.128 333.707 260.923 333.297 260.521C332.891 260.116 332.707 259.61 332.743 259.004C332.789 258.22 333.131 257.609 333.769 257.172C334.411 256.73 335.254 256.509 336.298 256.509L337.59 256.516L337.672 255.928C337.717 255.486 337.631 255.137 337.412 254.882C337.198 254.622 336.874 254.488 336.441 254.479C336.018 254.469 335.642 254.574 335.313 254.793C334.99 255.007 334.792 255.292 334.719 255.647L333.475 255.654C333.516 255.221 333.684 254.839 333.98 254.506C334.277 254.169 334.657 253.909 335.122 253.727C335.587 253.54 336.068 253.451 336.564 253.46C337.335 253.478 337.934 253.713 338.362 254.164C338.791 254.611 338.971 255.205 338.902 255.948L338.301 259.612L338.267 260.139C338.257 260.389 338.285 260.638 338.349 260.884L338.335 261H337.077ZM335.136 260.043C335.532 260.052 335.906 259.959 336.257 259.763C336.612 259.562 336.918 259.286 337.173 258.936L337.439 257.411L336.503 257.404C335.724 257.404 335.127 257.527 334.712 257.773C334.297 258.02 334.062 258.368 334.008 258.819C333.967 259.166 334.047 259.455 334.247 259.688C334.452 259.915 334.748 260.034 335.136 260.043ZM342.471 253.597L342.293 254.533C342.958 253.804 343.715 253.449 344.562 253.467C345.26 253.485 345.775 253.727 346.107 254.191C346.44 254.656 346.563 255.31 346.477 256.153L345.67 261H344.433L345.246 256.133C345.273 255.91 345.276 255.702 345.253 255.511C345.175 254.873 344.799 254.547 344.125 254.533C343.382 254.52 342.73 254.916 342.17 255.723L341.254 261H340.017L341.302 253.604L342.471 253.597ZM347.933 257.288C348.024 256.536 348.231 255.857 348.555 255.251C348.878 254.645 349.277 254.191 349.751 253.891C350.225 253.59 350.747 253.446 351.316 253.46C352.141 253.478 352.775 253.779 353.217 254.362L353.928 250.5H355.165L353.347 261H352.219L352.349 260.207C351.765 260.845 351.045 261.155 350.188 261.137C349.505 261.118 348.96 260.852 348.555 260.337C348.149 259.817 347.93 259.122 347.898 258.252C347.885 257.983 347.896 257.662 347.933 257.288ZM349.122 257.999C349.108 258.651 349.225 259.157 349.471 259.517C349.717 259.877 350.077 260.061 350.551 260.07C351.266 260.102 351.902 259.742 352.458 258.99L353.046 255.572C352.772 254.898 352.276 254.551 351.556 254.533C351.068 254.52 350.637 254.668 350.264 254.978C349.895 255.283 349.612 255.714 349.416 256.27C349.225 256.821 349.127 257.397 349.122 257.999ZM356.642 261H355.411L357.229 250.5H358.467L356.642 261ZM361.864 261.137C360.944 261.118 360.224 260.779 359.704 260.118C359.185 259.457 358.966 258.612 359.048 257.582L359.082 257.288C359.16 256.554 359.376 255.884 359.731 255.278C360.091 254.672 360.529 254.216 361.044 253.911C361.559 253.601 362.115 253.453 362.712 253.467C363.473 253.485 364.07 253.738 364.503 254.226C364.936 254.713 365.173 255.374 365.214 256.208C365.228 256.504 365.218 256.8 365.187 257.097L365.111 257.664H360.278C360.196 258.334 360.306 258.904 360.606 259.373C360.912 259.842 361.365 260.086 361.967 260.104C362.696 260.123 363.37 259.795 363.99 259.12L364.701 259.722C364.391 260.168 363.99 260.519 363.498 260.774C363.01 261.025 362.466 261.146 361.864 261.137ZM362.65 254.499C362.14 254.485 361.693 254.659 361.311 255.019C360.932 255.379 360.632 255.914 360.408 256.625L364.004 256.632L364.031 256.522C364.104 255.948 364.011 255.472 363.751 255.094C363.496 254.711 363.129 254.513 362.65 254.499ZM370.505 258.997C370.573 258.487 370.293 258.127 369.664 257.917L368.379 257.541C367.294 257.167 366.77 256.548 366.807 255.682C366.839 255.03 367.135 254.497 367.695 254.082C368.26 253.663 368.924 253.458 369.685 253.467C370.432 253.476 371.038 253.695 371.503 254.123C371.972 254.547 372.198 255.101 372.18 255.784L370.949 255.777C370.958 255.408 370.842 255.107 370.601 254.875C370.359 254.643 370.038 254.522 369.637 254.513C369.208 254.504 368.839 254.608 368.529 254.827C368.242 255.032 368.076 255.301 368.03 255.634C367.971 256.062 368.233 256.374 368.816 256.57L369.438 256.741C370.286 256.96 370.888 257.245 371.243 257.596C371.599 257.947 371.763 258.382 371.735 258.901C371.708 259.362 371.558 259.763 371.284 260.104C371.011 260.446 370.646 260.708 370.19 260.891C369.735 261.068 369.249 261.15 368.734 261.137C367.951 261.128 367.303 260.9 366.793 260.453C366.283 260.002 366.036 259.423 366.055 258.717L367.292 258.724C367.292 259.138 367.424 259.471 367.688 259.722C367.953 259.972 368.315 260.098 368.775 260.098C369.227 260.107 369.616 260.013 369.944 259.817C370.272 259.617 370.459 259.343 370.505 258.997ZM380.95 261C380.918 260.868 380.902 260.738 380.902 260.61L380.923 260.221C380.244 260.85 379.524 261.155 378.763 261.137C378.111 261.128 377.58 260.923 377.17 260.521C376.764 260.116 376.58 259.61 376.616 259.004C376.662 258.22 377.004 257.609 377.642 257.172C378.284 256.73 379.127 256.509 380.171 256.509L381.463 256.516L381.545 255.928C381.59 255.486 381.504 255.137 381.285 254.882C381.071 254.622 380.747 254.488 380.314 254.479C379.891 254.469 379.515 254.574 379.187 254.793C378.863 255.007 378.665 255.292 378.592 255.647L377.348 255.654C377.389 255.221 377.557 254.839 377.854 254.506C378.15 254.169 378.53 253.909 378.995 253.727C379.46 253.54 379.941 253.451 380.438 253.46C381.208 253.478 381.807 253.713 382.235 254.164C382.664 254.611 382.844 255.205 382.775 255.948L382.174 259.612L382.14 260.139C382.131 260.389 382.158 260.638 382.222 260.884L382.208 261H380.95ZM379.009 260.043C379.405 260.052 379.779 259.959 380.13 259.763C380.485 259.562 380.791 259.286 381.046 258.936L381.312 257.411L380.376 257.404C379.597 257.404 379 257.527 378.585 257.773C378.17 258.02 377.936 258.368 377.881 258.819C377.84 259.166 377.92 259.455 378.12 259.688C378.325 259.915 378.621 260.034 379.009 260.043ZM385.229 261H383.999L385.817 250.5H387.055L385.229 261ZM388.593 261H387.362L389.181 250.5H390.418L388.593 261ZM394.403 257.288C394.494 256.536 394.702 255.857 395.025 255.251C395.349 254.645 395.748 254.191 396.222 253.891C396.696 253.59 397.217 253.446 397.787 253.46C398.612 253.478 399.245 253.779 399.688 254.362L400.398 250.5H401.636L399.817 261H398.689L398.819 260.207C398.236 260.845 397.516 261.155 396.659 261.137C395.976 261.118 395.431 260.852 395.025 260.337C394.62 259.817 394.401 259.122 394.369 258.252C394.355 257.983 394.367 257.662 394.403 257.288ZM395.593 257.999C395.579 258.651 395.695 259.157 395.941 259.517C396.188 259.877 396.548 260.061 397.021 260.07C397.737 260.102 398.373 259.742 398.929 258.99L399.517 255.572C399.243 254.898 398.746 254.551 398.026 254.533C397.539 254.52 397.108 254.668 396.734 254.978C396.365 255.283 396.083 255.714 395.887 256.27C395.695 256.821 395.597 257.397 395.593 257.999ZM404.972 261.137C404.051 261.118 403.331 260.779 402.812 260.118C402.292 259.457 402.073 258.612 402.155 257.582L402.189 257.288C402.267 256.554 402.483 255.884 402.839 255.278C403.199 254.672 403.636 254.216 404.151 253.911C404.666 253.601 405.222 253.453 405.819 253.467C406.58 253.485 407.177 253.738 407.61 254.226C408.043 254.713 408.28 255.374 408.321 256.208C408.335 256.504 408.326 256.8 408.294 257.097L408.219 257.664H403.386C403.304 258.334 403.413 258.904 403.714 259.373C404.019 259.842 404.473 260.086 405.074 260.104C405.803 260.123 406.478 259.795 407.098 259.12L407.809 259.722C407.499 260.168 407.098 260.519 406.605 260.774C406.118 261.025 405.573 261.146 404.972 261.137ZM405.758 254.499C405.247 254.485 404.801 254.659 404.418 255.019C404.04 255.379 403.739 255.914 403.516 256.625L407.111 256.632L407.139 256.522C407.212 255.948 407.118 255.472 406.858 255.094C406.603 254.711 406.236 254.513 405.758 254.499ZM415.731 257.336C415.64 258.088 415.438 258.765 415.123 259.366C414.809 259.968 414.419 260.419 413.954 260.72C413.489 261.016 412.974 261.157 412.409 261.144C411.552 261.125 410.896 260.836 410.44 260.275L409.777 263.844H408.54L410.317 253.604L411.438 253.597L411.302 254.424C411.912 253.768 412.644 253.449 413.496 253.467C414.207 253.485 414.761 253.747 415.157 254.253C415.554 254.759 415.763 255.456 415.786 256.345C415.791 256.636 415.779 256.919 415.752 257.192L415.731 257.336ZM414.515 257.192L414.549 256.618C414.549 255.953 414.421 255.445 414.166 255.094C413.915 254.738 413.551 254.551 413.072 254.533C412.357 254.515 411.739 254.854 411.22 255.552L410.598 259.1C410.876 259.756 411.375 260.093 412.095 260.111C412.71 260.125 413.232 259.886 413.66 259.394C414.093 258.897 414.378 258.163 414.515 257.192ZM418.069 261H416.839L418.657 250.5H419.895L418.069 261ZM424.201 253.467C424.821 253.476 425.352 253.645 425.794 253.973C426.236 254.301 426.562 254.754 426.771 255.333C426.986 255.907 427.059 256.536 426.99 257.22L426.977 257.37C426.89 258.09 426.676 258.742 426.334 259.325C425.992 259.904 425.55 260.355 425.008 260.679C424.465 261.002 423.871 261.155 423.224 261.137C422.608 261.128 422.077 260.959 421.631 260.631C421.189 260.303 420.865 259.856 420.66 259.291C420.455 258.726 420.382 258.104 420.441 257.425C420.51 256.659 420.717 255.971 421.063 255.36C421.41 254.75 421.854 254.278 422.396 253.945C422.943 253.608 423.545 253.449 424.201 253.467ZM421.686 257.432C421.654 257.719 421.654 258.017 421.686 258.327C421.731 258.865 421.891 259.293 422.164 259.612C422.442 259.931 422.811 260.098 423.271 260.111C423.682 260.125 424.06 260.025 424.406 259.811C424.753 259.592 425.044 259.264 425.281 258.826C425.518 258.389 425.671 257.903 425.739 257.37C425.776 256.951 425.783 256.598 425.76 256.311C425.705 255.759 425.539 255.324 425.261 255.005C424.983 254.686 424.614 254.517 424.153 254.499C423.515 254.485 422.973 254.736 422.526 255.251C422.08 255.766 421.804 256.44 421.699 257.274L421.686 257.432ZM430.456 259.134L433.088 253.604H434.455L430.066 262.23C429.456 263.429 428.672 264.021 427.715 264.008C427.546 264.003 427.298 263.962 426.97 263.885L427.079 262.859L427.4 262.894C427.792 262.912 428.13 262.823 428.412 262.627C428.699 262.436 428.952 262.123 429.171 261.69L429.615 260.843L428.337 253.604H429.629L430.456 259.134ZM436.738 253.597L436.581 254.424C437.201 253.768 437.951 253.449 438.83 253.467C439.299 253.476 439.696 253.583 440.02 253.788C440.348 253.993 440.573 254.283 440.696 254.656C441.389 253.845 442.207 253.449 443.15 253.467C443.889 253.485 444.433 253.733 444.784 254.212C445.135 254.69 445.265 255.333 445.174 256.14L444.36 261H443.13L443.937 256.126C443.964 255.889 443.964 255.673 443.937 255.477C443.85 254.857 443.444 254.54 442.72 254.526C442.269 254.517 441.858 254.659 441.489 254.95C441.125 255.237 440.89 255.616 440.785 256.085L439.944 261H438.7L439.521 256.133C439.58 255.627 439.502 255.237 439.288 254.964C439.078 254.69 438.75 254.549 438.304 254.54C437.534 254.522 436.921 254.873 436.465 255.593L435.528 261H434.291L435.576 253.604L436.738 253.597ZM449.474 261.137C448.553 261.118 447.833 260.779 447.313 260.118C446.794 259.457 446.575 258.612 446.657 257.582L446.691 257.288C446.769 256.554 446.985 255.884 447.341 255.278C447.701 254.672 448.138 254.216 448.653 253.911C449.168 253.601 449.724 253.453 450.321 253.467C451.082 253.485 451.679 253.738 452.112 254.226C452.545 254.713 452.782 255.374 452.823 256.208C452.837 256.504 452.828 256.8 452.796 257.097L452.721 257.664H447.888C447.806 258.334 447.915 258.904 448.216 259.373C448.521 259.842 448.975 260.086 449.576 260.104C450.305 260.123 450.98 259.795 451.6 259.12L452.311 259.722C452.001 260.168 451.6 260.519 451.107 260.774C450.62 261.025 450.075 261.146 449.474 261.137ZM450.26 254.499C449.749 254.485 449.303 254.659 448.92 255.019C448.542 255.379 448.241 255.914 448.018 256.625L451.613 256.632L451.641 256.522C451.714 255.948 451.62 255.472 451.36 255.094C451.105 254.711 450.738 254.513 450.26 254.499ZM455.988 253.597L455.811 254.533C456.476 253.804 457.232 253.449 458.08 253.467C458.777 253.485 459.292 253.727 459.625 254.191C459.958 254.656 460.081 255.31 459.994 256.153L459.188 261H457.95L458.764 256.133C458.791 255.91 458.793 255.702 458.771 255.511C458.693 254.873 458.317 254.547 457.643 254.533C456.9 254.52 456.248 254.916 455.688 255.723L454.771 261H453.534L454.819 253.604L455.988 253.597ZM464.362 251.812L464.048 253.604H465.395L465.224 254.581H463.884L463.111 259.182C463.098 259.3 463.095 259.41 463.104 259.51C463.136 259.865 463.33 260.043 463.686 260.043C463.836 260.043 464.036 260.02 464.287 259.975L464.191 261.007C463.895 261.089 463.594 261.13 463.289 261.13C462.797 261.121 462.428 260.941 462.182 260.59C461.936 260.234 461.84 259.758 461.895 259.161L462.646 254.581H461.341L461.512 253.604H462.817L463.132 251.812H464.362ZM473.563 261C473.532 260.868 473.516 260.738 473.516 260.61L473.536 260.221C472.857 260.85 472.137 261.155 471.376 261.137C470.724 261.128 470.193 260.923 469.783 260.521C469.378 260.116 469.193 259.61 469.229 259.004C469.275 258.22 469.617 257.609 470.255 257.172C470.897 256.73 471.741 256.509 472.784 256.509L474.076 256.516L474.158 255.928C474.204 255.486 474.117 255.137 473.898 254.882C473.684 254.622 473.361 254.488 472.928 254.479C472.504 254.469 472.128 254.574 471.8 254.793C471.476 255.007 471.278 255.292 471.205 255.647L469.961 255.654C470.002 255.221 470.171 254.839 470.467 254.506C470.763 254.169 471.144 253.909 471.608 253.727C472.073 253.54 472.554 253.451 473.051 253.46C473.821 253.478 474.42 253.713 474.849 254.164C475.277 254.611 475.457 255.205 475.389 255.948L474.787 259.612L474.753 260.139C474.744 260.389 474.771 260.638 474.835 260.884L474.821 261H473.563ZM471.622 260.043C472.019 260.052 472.392 259.959 472.743 259.763C473.099 259.562 473.404 259.286 473.659 258.936L473.926 257.411L472.989 257.404C472.21 257.404 471.613 257.527 471.198 257.773C470.784 258.02 470.549 258.368 470.494 258.819C470.453 259.166 470.533 259.455 470.733 259.688C470.938 259.915 471.235 260.034 471.622 260.043ZM478.957 253.597L478.779 254.533C479.445 253.804 480.201 253.449 481.049 253.467C481.746 253.485 482.261 253.727 482.594 254.191C482.926 254.656 483.049 255.31 482.963 256.153L482.156 261H480.919L481.732 256.133C481.76 255.91 481.762 255.702 481.739 255.511C481.662 254.873 481.286 254.547 480.611 254.533C479.868 254.52 479.217 254.916 478.656 255.723L477.74 261H476.503L477.788 253.604L478.957 253.597ZM484.419 257.288C484.51 256.536 484.717 255.857 485.041 255.251C485.365 254.645 485.763 254.191 486.237 253.891C486.711 253.59 487.233 253.446 487.803 253.46C488.628 253.478 489.261 253.779 489.703 254.362L490.414 250.5H491.651L489.833 261H488.705L488.835 260.207C488.252 260.845 487.532 261.155 486.675 261.137C485.991 261.118 485.447 260.852 485.041 260.337C484.635 259.817 484.417 259.122 484.385 258.252C484.371 257.983 484.382 257.662 484.419 257.288ZM485.608 257.999C485.595 258.651 485.711 259.157 485.957 259.517C486.203 259.877 486.563 260.061 487.037 260.07C487.753 260.102 488.388 259.742 488.944 258.99L489.532 255.572C489.259 254.898 488.762 254.551 488.042 254.533C487.554 254.52 487.124 254.668 486.75 254.978C486.381 255.283 486.098 255.714 485.902 256.27C485.711 256.821 485.613 257.397 485.608 257.999ZM496.56 261H495.329L496.614 253.604H497.845L496.56 261ZM497.578 250.903C497.788 250.894 497.961 250.958 498.098 251.095C498.239 251.227 498.31 251.402 498.31 251.621C498.305 251.835 498.234 252.011 498.098 252.147C497.965 252.284 497.792 252.357 497.578 252.366C497.364 252.375 497.188 252.314 497.052 252.182C496.915 252.049 496.849 251.876 496.854 251.662C496.858 251.448 496.926 251.27 497.059 251.129C497.191 250.988 497.364 250.912 497.578 250.903ZM501.037 253.597L500.859 254.533C501.525 253.804 502.281 253.449 503.129 253.467C503.826 253.485 504.341 253.727 504.674 254.191C505.007 254.656 505.13 255.31 505.043 256.153L504.236 261H502.999L503.812 256.133C503.84 255.91 503.842 255.702 503.819 255.511C503.742 254.873 503.366 254.547 502.691 254.533C501.949 254.52 501.297 254.916 500.736 255.723L499.82 261H498.583L499.868 253.604L501.037 253.597ZM506.745 261L507.866 254.581H506.725L506.896 253.604H508.03L508.153 252.729C508.272 251.986 508.559 251.405 509.015 250.985C509.493 250.548 510.104 250.334 510.847 250.343C511.079 250.343 511.373 250.382 511.729 250.459L511.578 251.491C511.359 251.446 511.138 251.418 510.915 251.409C510.487 251.409 510.138 251.544 509.869 251.812C509.605 252.077 509.441 252.43 509.377 252.872L509.268 253.604H510.799L510.628 254.581H509.097L507.982 261H506.745ZM515.529 254.731L514.948 254.67C514.155 254.67 513.531 255.028 513.075 255.743L512.166 261H510.929L512.214 253.604L513.41 253.597L513.226 254.458C513.75 253.77 514.367 253.435 515.078 253.453C515.229 253.453 515.424 253.487 515.666 253.556L515.529 254.731ZM519.843 261C519.811 260.868 519.795 260.738 519.795 260.61L519.815 260.221C519.136 260.85 518.416 261.155 517.655 261.137C517.004 261.128 516.473 260.923 516.062 260.521C515.657 260.116 515.472 259.61 515.509 259.004C515.554 258.22 515.896 257.609 516.534 257.172C517.177 256.73 518.02 256.509 519.063 256.509L520.355 256.516L520.438 255.928C520.483 255.486 520.396 255.137 520.178 254.882C519.964 254.622 519.64 254.488 519.207 254.479C518.783 254.469 518.407 254.574 518.079 254.793C517.756 255.007 517.557 255.292 517.484 255.647L516.24 255.654C516.281 255.221 516.45 254.839 516.746 254.506C517.042 254.169 517.423 253.909 517.888 253.727C518.353 253.54 518.833 253.451 519.33 253.46C520.1 253.478 520.7 253.713 521.128 254.164C521.556 254.611 521.736 255.205 521.668 255.948L521.066 259.612L521.032 260.139C521.023 260.389 521.05 260.638 521.114 260.884L521.101 261H519.843ZM517.901 260.043C518.298 260.052 518.672 259.959 519.022 259.763C519.378 259.562 519.683 259.286 519.938 258.936L520.205 257.411L519.269 257.404C518.489 257.404 517.892 257.527 517.478 257.773C517.063 258.02 516.828 258.368 516.773 258.819C516.732 259.166 516.812 259.455 517.013 259.688C517.218 259.915 517.514 260.034 517.901 260.043ZM527.362 258.997C527.431 258.487 527.15 258.127 526.521 257.917L525.236 257.541C524.152 257.167 523.628 256.548 523.664 255.682C523.696 255.03 523.992 254.497 524.553 254.082C525.118 253.663 525.781 253.458 526.542 253.467C527.289 253.476 527.896 253.695 528.36 254.123C528.83 254.547 529.055 255.101 529.037 255.784L527.807 255.777C527.816 255.408 527.7 255.107 527.458 254.875C527.216 254.643 526.895 254.522 526.494 254.513C526.066 254.504 525.697 254.608 525.387 254.827C525.1 255.032 524.933 255.301 524.888 255.634C524.828 256.062 525.09 256.374 525.674 256.57L526.296 256.741C527.144 256.96 527.745 257.245 528.101 257.596C528.456 257.947 528.62 258.382 528.593 258.901C528.565 259.362 528.415 259.763 528.142 260.104C527.868 260.446 527.504 260.708 527.048 260.891C526.592 261.068 526.107 261.15 525.592 261.137C524.808 261.128 524.161 260.9 523.65 260.453C523.14 260.002 522.894 259.423 522.912 258.717L524.149 258.724C524.149 259.138 524.282 259.471 524.546 259.722C524.81 259.972 525.173 260.098 525.633 260.098C526.084 260.107 526.474 260.013 526.802 259.817C527.13 259.617 527.317 259.343 527.362 258.997ZM533.118 251.812L532.804 253.604H534.15L533.979 254.581H532.64L531.867 259.182C531.854 259.3 531.851 259.41 531.86 259.51C531.892 259.865 532.086 260.043 532.441 260.043C532.592 260.043 532.792 260.02 533.043 259.975L532.947 261.007C532.651 261.089 532.35 261.13 532.045 261.13C531.553 261.121 531.184 260.941 530.938 260.59C530.691 260.234 530.596 259.758 530.65 259.161L531.402 254.581H530.097L530.268 253.604H531.573L531.888 251.812H533.118ZM538.963 254.731L538.382 254.67C537.589 254.67 536.965 255.028 536.509 255.743L535.6 261H534.362L535.647 253.604L536.844 253.597L536.659 254.458C537.183 253.77 537.801 253.435 538.512 253.453C538.662 253.453 538.858 253.487 539.1 253.556L538.963 254.731ZM543.721 260.269C543.142 260.866 542.406 261.155 541.513 261.137C540.806 261.118 540.282 260.866 539.94 260.378C539.603 259.89 539.478 259.225 539.564 258.382L540.357 253.604H541.595L540.795 258.402C540.772 258.603 540.768 258.799 540.781 258.99C540.804 259.318 540.902 259.576 541.075 259.763C541.248 259.95 541.49 260.05 541.8 260.063C542.684 260.091 543.368 259.733 543.851 258.99L544.78 253.604H546.018L544.732 261H543.563L543.721 260.269ZM549.709 260.111C550.151 260.12 550.55 259.993 550.905 259.729C551.261 259.46 551.493 259.109 551.603 258.676L552.771 258.669C552.703 259.134 552.516 259.558 552.211 259.94C551.91 260.323 551.53 260.622 551.069 260.836C550.609 261.05 550.137 261.15 549.654 261.137C549.039 261.128 548.517 260.968 548.089 260.658C547.665 260.344 547.353 259.909 547.152 259.353C546.952 258.792 546.883 258.163 546.947 257.466L546.981 257.124C547.068 256.413 547.275 255.777 547.604 255.217C547.932 254.656 548.36 254.221 548.889 253.911C549.417 253.597 550.001 253.449 550.639 253.467C551.413 253.485 552.033 253.745 552.498 254.246C552.963 254.747 553.195 255.383 553.195 256.153L552.04 256.146C552.031 255.663 551.896 255.274 551.637 254.978C551.377 254.677 551.026 254.517 550.584 254.499C549.941 254.485 549.406 254.725 548.978 255.217C548.554 255.709 548.289 256.397 548.185 257.281L548.164 257.459C548.137 257.751 548.132 258.051 548.15 258.361C548.182 258.895 548.333 259.316 548.602 259.626C548.87 259.936 549.24 260.098 549.709 260.111ZM557.03 251.812L556.716 253.604H558.062L557.892 254.581H556.552L555.779 259.182C555.766 259.3 555.763 259.41 555.772 259.51C555.804 259.865 555.998 260.043 556.354 260.043C556.504 260.043 556.704 260.02 556.955 259.975L556.859 261.007C556.563 261.089 556.262 261.13 555.957 261.13C555.465 261.121 555.096 260.941 554.85 260.59C554.604 260.234 554.508 259.758 554.562 259.161L555.314 254.581H554.009L554.18 253.604H555.485L555.8 251.812H557.03ZM562.971 260.269C562.392 260.866 561.656 261.155 560.763 261.137C560.056 261.118 559.532 260.866 559.19 260.378C558.853 259.89 558.728 259.225 558.814 258.382L559.607 253.604H560.845L560.045 258.402C560.022 258.603 560.018 258.799 560.031 258.99C560.054 259.318 560.152 259.576 560.325 259.763C560.498 259.95 560.74 260.05 561.05 260.063C561.934 260.091 562.618 259.733 563.101 258.99L564.03 253.604H565.268L563.982 261H562.813L562.971 260.269ZM570.436 254.731L569.854 254.67C569.062 254.67 568.437 255.028 567.981 255.743L567.072 261H565.835L567.12 253.604L568.316 253.597L568.132 254.458C568.656 253.77 569.273 253.435 569.984 253.453C570.135 253.453 570.331 253.487 570.572 253.556L570.436 254.731ZM573.56 261.137C572.639 261.118 571.919 260.779 571.399 260.118C570.88 259.457 570.661 258.612 570.743 257.582L570.777 257.288C570.855 256.554 571.071 255.884 571.427 255.278C571.787 254.672 572.224 254.216 572.739 253.911C573.254 253.601 573.81 253.453 574.407 253.467C575.168 253.485 575.765 253.738 576.198 254.226C576.631 254.713 576.868 255.374 576.909 256.208C576.923 256.504 576.914 256.8 576.882 257.097L576.807 257.664H571.974C571.892 258.334 572.001 258.904 572.302 259.373C572.607 259.842 573.061 260.086 573.662 260.104C574.391 260.123 575.066 259.795 575.686 259.12L576.396 259.722C576.087 260.168 575.686 260.519 575.193 260.774C574.706 261.025 574.161 261.146 573.56 261.137ZM574.346 254.499C573.835 254.485 573.389 254.659 573.006 255.019C572.628 255.379 572.327 255.914 572.104 256.625L575.699 256.632L575.727 256.522C575.799 255.948 575.706 255.472 575.446 255.094C575.191 254.711 574.824 254.513 574.346 254.499ZM581.653 261L582.774 254.581H581.633L581.804 253.604H582.938L583.062 252.729C583.18 251.986 583.467 251.405 583.923 250.985C584.401 250.548 585.012 250.334 585.755 250.343C585.987 250.343 586.281 250.382 586.637 250.459L586.486 251.491C586.268 251.446 586.047 251.418 585.823 251.409C585.395 251.409 585.046 251.544 584.777 251.812C584.513 252.077 584.349 252.43 584.285 252.872L584.176 253.604H585.707L585.536 254.581H584.005L582.891 261H581.653ZM589.945 253.467C590.565 253.476 591.096 253.645 591.538 253.973C591.98 254.301 592.306 254.754 592.516 255.333C592.73 255.907 592.803 256.536 592.734 257.22L592.721 257.37C592.634 258.09 592.42 258.742 592.078 259.325C591.736 259.904 591.294 260.355 590.752 260.679C590.21 261.002 589.615 261.155 588.968 261.137C588.353 261.128 587.822 260.959 587.375 260.631C586.933 260.303 586.609 259.856 586.404 259.291C586.199 258.726 586.126 258.104 586.186 257.425C586.254 256.659 586.461 255.971 586.808 255.36C587.154 254.75 587.598 254.278 588.141 253.945C588.688 253.608 589.289 253.449 589.945 253.467ZM587.43 257.432C587.398 257.719 587.398 258.017 587.43 258.327C587.475 258.865 587.635 259.293 587.908 259.612C588.186 259.931 588.555 260.098 589.016 260.111C589.426 260.125 589.804 260.025 590.15 259.811C590.497 259.592 590.788 259.264 591.025 258.826C591.262 258.389 591.415 257.903 591.483 257.37C591.52 256.951 591.527 256.598 591.504 256.311C591.449 255.759 591.283 255.324 591.005 255.005C590.727 254.686 590.358 254.517 589.897 254.499C589.259 254.485 588.717 254.736 588.271 255.251C587.824 255.766 587.548 256.44 587.443 257.274L587.43 257.432ZM598.258 254.731L597.677 254.67C596.884 254.67 596.259 255.028 595.804 255.743L594.895 261H593.657L594.942 253.604L596.139 253.597L595.954 254.458C596.478 253.77 597.096 253.435 597.807 253.453C597.957 253.453 598.153 253.487 598.395 253.556L598.258 254.731ZM605.019 251.812L604.704 253.604H606.051L605.88 254.581H604.54L603.768 259.182C603.754 259.3 603.752 259.41 603.761 259.51C603.793 259.865 603.986 260.043 604.342 260.043C604.492 260.043 604.693 260.02 604.943 259.975L604.848 261.007C604.551 261.089 604.251 261.13 603.945 261.13C603.453 261.121 603.084 260.941 602.838 260.59C602.592 260.234 602.496 259.758 602.551 259.161L603.303 254.581H601.997L602.168 253.604H603.474L603.788 251.812H605.019ZM608.573 254.506C609.22 253.799 609.965 253.455 610.809 253.474C611.501 253.483 612.014 253.722 612.347 254.191C612.684 254.656 612.809 255.31 612.723 256.153L611.916 261H610.679L611.492 256.133C611.52 255.91 611.522 255.702 611.499 255.511C611.422 254.873 611.046 254.547 610.371 254.533C609.615 254.515 608.963 254.911 608.416 255.723L607.5 261H606.263L608.088 250.5H609.325L608.573 254.506ZM617.009 261.137C616.088 261.118 615.368 260.779 614.849 260.118C614.329 259.457 614.11 258.612 614.192 257.582L614.227 257.288C614.304 256.554 614.521 255.884 614.876 255.278C615.236 254.672 615.674 254.216 616.188 253.911C616.703 253.601 617.259 253.453 617.856 253.467C618.618 253.485 619.215 253.738 619.647 254.226C620.08 254.713 620.317 255.374 620.358 256.208C620.372 256.504 620.363 256.8 620.331 257.097L620.256 257.664H615.423C615.341 258.334 615.45 258.904 615.751 259.373C616.056 259.842 616.51 260.086 617.111 260.104C617.84 260.123 618.515 259.795 619.135 259.12L619.846 259.722C619.536 260.168 619.135 260.519 618.643 260.774C618.155 261.025 617.61 261.146 617.009 261.137ZM617.795 254.499C617.285 254.485 616.838 254.659 616.455 255.019C616.077 255.379 615.776 255.914 615.553 256.625L619.148 256.632L619.176 256.522C619.249 255.948 619.155 255.472 618.896 255.094C618.64 254.711 618.273 254.513 617.795 254.499ZM625.841 261H624.61L626.429 250.5H627.666L625.841 261ZM629.204 261H627.974L629.259 253.604H630.489L629.204 261ZM630.223 250.903C630.432 250.894 630.605 250.958 630.742 251.095C630.883 251.227 630.954 251.402 630.954 251.621C630.95 251.835 630.879 252.011 630.742 252.147C630.61 252.284 630.437 252.357 630.223 252.366C630.008 252.375 629.833 252.314 629.696 252.182C629.56 252.049 629.493 251.876 629.498 251.662C629.503 251.448 629.571 251.27 629.703 251.129C629.835 250.988 630.008 250.912 630.223 250.903ZM631.829 261L632.95 254.581H631.809L631.979 253.604H633.114L633.237 252.729C633.356 251.986 633.643 251.405 634.099 250.985C634.577 250.548 635.188 250.334 635.931 250.343C636.163 250.343 636.457 250.382 636.812 250.459L636.662 251.491C636.443 251.446 636.222 251.418 635.999 251.409C635.571 251.409 635.222 251.544 634.953 251.812C634.689 252.077 634.525 252.43 634.461 252.872L634.352 253.604H635.883L635.712 254.581H634.181L633.066 261H631.829ZM639.048 261.137C638.127 261.118 637.407 260.779 636.888 260.118C636.368 259.457 636.149 258.612 636.231 257.582L636.266 257.288C636.343 256.554 636.56 255.884 636.915 255.278C637.275 254.672 637.713 254.216 638.228 253.911C638.743 253.601 639.299 253.453 639.896 253.467C640.657 253.485 641.254 253.738 641.687 254.226C642.119 254.713 642.356 255.374 642.397 256.208C642.411 256.504 642.402 256.8 642.37 257.097L642.295 257.664H637.462C637.38 258.334 637.489 258.904 637.79 259.373C638.095 259.842 638.549 260.086 639.15 260.104C639.88 260.123 640.554 259.795 641.174 259.12L641.885 259.722C641.575 260.168 641.174 260.519 640.682 260.774C640.194 261.025 639.649 261.146 639.048 261.137ZM639.834 254.499C639.324 254.485 638.877 254.659 638.494 255.019C638.116 255.379 637.815 255.914 637.592 256.625L641.188 256.632L641.215 256.522C641.288 255.948 641.194 255.472 640.935 255.094C640.679 254.711 640.312 254.513 639.834 254.499ZM646.376 251.812L646.062 253.604H647.408L647.237 254.581H645.897L645.125 259.182C645.111 259.3 645.109 259.41 645.118 259.51C645.15 259.865 645.344 260.043 645.699 260.043C645.85 260.043 646.05 260.02 646.301 259.975L646.205 261.007C645.909 261.089 645.608 261.13 645.303 261.13C644.811 261.121 644.441 260.941 644.195 260.59C643.949 260.234 643.854 259.758 643.908 259.161L644.66 254.581H643.354L643.525 253.604H644.831L645.146 251.812H646.376ZM648.96 261H647.729L649.015 253.604H650.245L648.96 261ZM649.979 250.903C650.188 250.894 650.361 250.958 650.498 251.095C650.639 251.227 650.71 251.402 650.71 251.621C650.705 251.835 650.635 252.011 650.498 252.147C650.366 252.284 650.193 252.357 649.979 252.366C649.764 252.375 649.589 252.314 649.452 252.182C649.315 252.049 649.249 251.876 649.254 251.662C649.258 251.448 649.327 251.27 649.459 251.129C649.591 250.988 649.764 250.912 649.979 250.903ZM653.424 253.597L653.267 254.424C653.886 253.768 654.636 253.449 655.516 253.467C655.985 253.476 656.382 253.583 656.705 253.788C657.033 253.993 657.259 254.283 657.382 254.656C658.075 253.845 658.893 253.449 659.836 253.467C660.574 253.485 661.119 253.733 661.47 254.212C661.821 254.69 661.951 255.333 661.859 256.14L661.046 261H659.815L660.622 256.126C660.649 255.889 660.649 255.673 660.622 255.477C660.535 254.857 660.13 254.54 659.405 254.526C658.954 254.517 658.544 254.659 658.175 254.95C657.81 255.237 657.576 255.616 657.471 256.085L656.63 261H655.386L656.206 256.133C656.265 255.627 656.188 255.237 655.974 254.964C655.764 254.69 655.436 254.549 654.989 254.54C654.219 254.522 653.606 254.873 653.15 255.593L652.214 261H650.977L652.262 253.604L653.424 253.597ZM666.159 261.137C665.239 261.118 664.519 260.779 663.999 260.118C663.479 259.457 663.261 258.612 663.343 257.582L663.377 257.288C663.454 256.554 663.671 255.884 664.026 255.278C664.386 254.672 664.824 254.216 665.339 253.911C665.854 253.601 666.41 253.453 667.007 253.467C667.768 253.485 668.365 253.738 668.798 254.226C669.231 254.713 669.468 255.374 669.509 256.208C669.522 256.504 669.513 256.8 669.481 257.097L669.406 257.664H664.573C664.491 258.334 664.601 258.904 664.901 259.373C665.207 259.842 665.66 260.086 666.262 260.104C666.991 260.123 667.665 259.795 668.285 259.12L668.996 259.722C668.686 260.168 668.285 260.519 667.793 260.774C667.305 261.025 666.761 261.146 666.159 261.137ZM666.945 254.499C666.435 254.485 665.988 254.659 665.605 255.019C665.227 255.379 664.926 255.914 664.703 256.625L668.299 256.632L668.326 256.522C668.399 255.948 668.306 255.472 668.046 255.094C667.791 254.711 667.424 254.513 666.945 254.499ZM677.76 253.467C678.38 253.476 678.91 253.645 679.353 253.973C679.795 254.301 680.12 254.754 680.33 255.333C680.544 255.907 680.617 256.536 680.549 257.22L680.535 257.37C680.449 258.09 680.234 258.742 679.893 259.325C679.551 259.904 679.109 260.355 678.566 260.679C678.024 261.002 677.429 261.155 676.782 261.137C676.167 261.128 675.636 260.959 675.189 260.631C674.747 260.303 674.424 259.856 674.219 259.291C674.014 258.726 673.941 258.104 674 257.425C674.068 256.659 674.276 255.971 674.622 255.36C674.968 254.75 675.413 254.278 675.955 253.945C676.502 253.608 677.104 253.449 677.76 253.467ZM675.244 257.432C675.212 257.719 675.212 258.017 675.244 258.327C675.29 258.865 675.449 259.293 675.723 259.612C676.001 259.931 676.37 260.098 676.83 260.111C677.24 260.125 677.618 260.025 677.965 259.811C678.311 259.592 678.603 259.264 678.84 258.826C679.077 258.389 679.229 257.903 679.298 257.37C679.334 256.951 679.341 256.598 679.318 256.311C679.264 255.759 679.097 255.324 678.819 255.005C678.541 254.686 678.172 254.517 677.712 254.499C677.074 254.485 676.532 254.736 676.085 255.251C675.638 255.766 675.363 256.44 675.258 257.274L675.244 257.432ZM682.073 261L683.194 254.581H682.053L682.224 253.604H683.358L683.481 252.729C683.6 251.986 683.887 251.405 684.343 250.985C684.821 250.548 685.432 250.334 686.175 250.343C686.407 250.343 686.701 250.382 687.057 250.459L686.906 251.491C686.688 251.446 686.466 251.418 686.243 251.409C685.815 251.409 685.466 251.544 685.197 251.812C684.933 252.077 684.769 252.43 684.705 252.872L684.596 253.604H686.127L685.956 254.581H684.425L683.311 261H682.073ZM692.341 259.134L694.973 253.604H696.34L691.951 262.23C691.34 263.429 690.557 264.021 689.6 264.008C689.431 264.003 689.183 263.962 688.854 263.885L688.964 262.859L689.285 262.894C689.677 262.912 690.014 262.823 690.297 262.627C690.584 262.436 690.837 262.123 691.056 261.69L691.5 260.843L690.222 253.604H691.514L692.341 259.134ZM700.182 253.467C700.801 253.476 701.332 253.645 701.774 253.973C702.216 254.301 702.542 254.754 702.752 255.333C702.966 255.907 703.039 256.536 702.971 257.22L702.957 257.37C702.87 258.09 702.656 258.742 702.314 259.325C701.973 259.904 701.531 260.355 700.988 260.679C700.446 261.002 699.851 261.155 699.204 261.137C698.589 261.128 698.058 260.959 697.611 260.631C697.169 260.303 696.846 259.856 696.641 259.291C696.436 258.726 696.363 258.104 696.422 257.425C696.49 256.659 696.698 255.971 697.044 255.36C697.39 254.75 697.835 254.278 698.377 253.945C698.924 253.608 699.525 253.449 700.182 253.467ZM697.666 257.432C697.634 257.719 697.634 258.017 697.666 258.327C697.712 258.865 697.871 259.293 698.145 259.612C698.423 259.931 698.792 260.098 699.252 260.111C699.662 260.125 700.04 260.025 700.387 259.811C700.733 259.592 701.025 259.264 701.262 258.826C701.499 258.389 701.651 257.903 701.72 257.37C701.756 256.951 701.763 256.598 701.74 256.311C701.686 255.759 701.519 255.324 701.241 255.005C700.963 254.686 700.594 254.517 700.134 254.499C699.496 254.485 698.953 254.736 698.507 255.251C698.06 255.766 697.785 256.44 697.68 257.274L697.666 257.432ZM708.59 260.269C708.011 260.866 707.275 261.155 706.382 261.137C705.675 261.118 705.151 260.866 704.81 260.378C704.472 259.89 704.347 259.225 704.434 258.382L705.227 253.604H706.464L705.664 258.402C705.641 258.603 705.637 258.799 705.65 258.99C705.673 259.318 705.771 259.576 705.944 259.763C706.118 259.95 706.359 260.05 706.669 260.063C707.553 260.091 708.237 259.733 708.72 258.99L709.649 253.604H710.887L709.602 261H708.433L708.59 260.269ZM716.055 254.731L715.474 254.67C714.681 254.67 714.056 255.028 713.601 255.743L712.691 261H711.454L712.739 253.604L713.936 253.597L713.751 254.458C714.275 253.77 714.893 253.435 715.604 253.453C715.754 253.453 715.95 253.487 716.191 253.556L716.055 254.731ZM726.261 257.336C726.17 258.092 725.962 258.774 725.639 259.38C725.315 259.986 724.923 260.435 724.463 260.727C724.003 261.018 723.492 261.157 722.932 261.144C722.038 261.125 721.375 260.79 720.942 260.139L720.689 261H719.548L721.373 250.5H722.61L721.865 254.424C722.458 253.768 723.178 253.449 724.025 253.467C724.736 253.485 725.29 253.747 725.687 254.253C726.083 254.759 726.293 255.456 726.315 256.345C726.32 256.636 726.306 256.919 726.274 257.192L726.261 257.336ZM725.085 256.618C725.099 255.953 724.987 255.445 724.75 255.094C724.513 254.738 724.151 254.551 723.663 254.533C722.893 254.515 722.241 254.902 721.708 255.695L721.154 258.915C721.428 259.667 721.94 260.052 722.692 260.07C723.175 260.089 723.597 259.945 723.957 259.64C724.322 259.334 724.597 258.908 724.784 258.361C724.971 257.81 725.071 257.229 725.085 256.618ZM731.354 253.467C731.973 253.476 732.504 253.645 732.946 253.973C733.388 254.301 733.714 254.754 733.924 255.333C734.138 255.907 734.211 256.536 734.143 257.22L734.129 257.37C734.042 258.09 733.828 258.742 733.486 259.325C733.145 259.904 732.702 260.355 732.16 260.679C731.618 261.002 731.023 261.155 730.376 261.137C729.761 261.128 729.23 260.959 728.783 260.631C728.341 260.303 728.018 259.856 727.812 259.291C727.607 258.726 727.535 258.104 727.594 257.425C727.662 256.659 727.869 255.971 728.216 255.36C728.562 254.75 729.007 254.278 729.549 253.945C730.096 253.608 730.697 253.449 731.354 253.467ZM728.838 257.432C728.806 257.719 728.806 258.017 728.838 258.327C728.883 258.865 729.043 259.293 729.316 259.612C729.594 259.931 729.964 260.098 730.424 260.111C730.834 260.125 731.212 260.025 731.559 259.811C731.905 259.592 732.197 259.264 732.434 258.826C732.671 258.389 732.823 257.903 732.892 257.37C732.928 256.951 732.935 256.598 732.912 256.311C732.857 255.759 732.691 255.324 732.413 255.005C732.135 254.686 731.766 254.517 731.306 254.499C730.668 254.485 730.125 254.736 729.679 255.251C729.232 255.766 728.956 256.44 728.852 257.274L728.838 257.432ZM738.333 251.812L738.019 253.604H739.365L739.194 254.581H737.854L737.082 259.182C737.068 259.3 737.066 259.41 737.075 259.51C737.107 259.865 737.301 260.043 737.656 260.043C737.807 260.043 738.007 260.02 738.258 259.975L738.162 261.007C737.866 261.089 737.565 261.13 737.26 261.13C736.768 261.121 736.398 260.941 736.152 260.59C735.906 260.234 735.811 259.758 735.865 259.161L736.617 254.581H735.312L735.482 253.604H736.788L737.103 251.812H738.333Z" fill="black"/>
<rect width="383.613" height="41.9062" fill="black" fill-opacity="0" transform="translate(312 34)"/>
<path d="M372.07 56.3242H360.1V66.7656H373.863V68.5938H357.938V43H373.775V44.8457H360.1V54.4961H372.07V56.3242Z" fill="black"/>
<path d="M383.918 57.291L389.051 49.5742H391.547L385.096 58.9082L391.828 68.5938H389.35L383.936 60.543L378.521 68.5938H376.043L382.758 58.9082L376.307 49.5742H378.785L383.918 57.291Z" fill="black"/>
<path d="M410.742 59.2773C410.742 62.2422 410.086 64.5977 408.773 66.3438C407.461 68.0781 405.703 68.9453 403.5 68.9453C400.898 68.9453 398.906 68.0312 397.523 66.2031V75.9062H395.432V49.5742H397.383L397.488 52.2637C398.859 50.2363 400.846 49.2227 403.447 49.2227C405.721 49.2227 407.502 50.084 408.791 51.8066C410.092 53.5293 410.742 55.9199 410.742 58.9785V59.2773ZM408.633 58.9082C408.633 56.4824 408.135 54.5664 407.139 53.1602C406.143 51.7539 404.754 51.0508 402.973 51.0508C401.684 51.0508 400.576 51.3613 399.65 51.9824C398.725 52.6035 398.016 53.5059 397.523 54.6895V63.8125C398.027 64.9023 398.748 65.7344 399.686 66.3086C400.623 66.8828 401.73 67.1699 403.008 67.1699C404.777 67.1699 406.154 66.4668 407.139 65.0605C408.135 63.6426 408.633 61.5918 408.633 58.9082Z" fill="black"/>
<path d="M422.783 68.9453C421.166 68.9453 419.701 68.5469 418.389 67.75C417.088 66.9531 416.074 65.8457 415.348 64.4277C414.621 62.998 414.258 61.3984 414.258 59.6289V58.873C414.258 57.0449 414.609 55.3984 415.312 53.9336C416.027 52.4688 417.018 51.3203 418.283 50.4883C419.549 49.6445 420.92 49.2227 422.396 49.2227C424.705 49.2227 426.533 50.0137 427.881 51.5957C429.24 53.166 429.92 55.3164 429.92 58.0469V59.2246H416.35V59.6289C416.35 61.7852 416.965 63.584 418.195 65.0254C419.438 66.4551 420.996 67.1699 422.871 67.1699C423.996 67.1699 424.986 66.9648 425.842 66.5547C426.709 66.1445 427.494 65.4883 428.197 64.5859L429.516 65.5879C427.969 67.8262 425.725 68.9453 422.783 68.9453ZM422.396 51.0156C420.814 51.0156 419.479 51.5957 418.389 52.7559C417.311 53.916 416.654 55.4746 416.42 57.4316H427.828V57.2031C427.77 55.375 427.248 53.8867 426.264 52.7383C425.279 51.5898 423.99 51.0156 422.396 51.0156Z" fill="black"/>
<path d="M442.805 51.3672C442.359 51.2852 441.885 51.2441 441.381 51.2441C440.068 51.2441 438.955 51.6133 438.041 52.3516C437.139 53.0781 436.494 54.1387 436.107 55.5332V68.5938H434.016V49.5742H436.072L436.107 52.5977C437.221 50.3477 439.008 49.2227 441.469 49.2227C442.055 49.2227 442.518 49.2988 442.857 49.4512L442.805 51.3672Z" fill="black"/>
<path d="M448.5 68.5938H446.391V49.5742H448.5V68.5938ZM446.021 44.0723C446.021 43.6738 446.15 43.3398 446.408 43.0703C446.666 42.7891 447.018 42.6484 447.463 42.6484C447.908 42.6484 448.26 42.7891 448.518 43.0703C448.787 43.3398 448.922 43.6738 448.922 44.0723C448.922 44.4707 448.787 44.8047 448.518 45.0742C448.26 45.3438 447.908 45.4785 447.463 45.4785C447.018 45.4785 446.666 45.3438 446.408 45.0742C446.15 44.8047 446.021 44.4707 446.021 44.0723Z" fill="black"/>
<path d="M461.596 68.9453C459.979 68.9453 458.514 68.5469 457.201 67.75C455.9 66.9531 454.887 65.8457 454.16 64.4277C453.434 62.998 453.07 61.3984 453.07 59.6289V58.873C453.07 57.0449 453.422 55.3984 454.125 53.9336C454.84 52.4688 455.83 51.3203 457.096 50.4883C458.361 49.6445 459.732 49.2227 461.209 49.2227C463.518 49.2227 465.346 50.0137 466.693 51.5957C468.053 53.166 468.732 55.3164 468.732 58.0469V59.2246H455.162V59.6289C455.162 61.7852 455.777 63.584 457.008 65.0254C458.25 66.4551 459.809 67.1699 461.684 67.1699C462.809 67.1699 463.799 66.9648 464.654 66.5547C465.521 66.1445 466.307 65.4883 467.01 64.5859L468.328 65.5879C466.781 67.8262 464.537 68.9453 461.596 68.9453ZM461.209 51.0156C459.627 51.0156 458.291 51.5957 457.201 52.7559C456.123 53.916 455.467 55.4746 455.232 57.4316H466.641V57.2031C466.582 55.375 466.061 53.8867 465.076 52.7383C464.092 51.5898 462.803 51.0156 461.209 51.0156Z" fill="black"/>
<path d="M474.832 49.5742L474.902 52.8262C475.617 51.6543 476.508 50.7637 477.574 50.1543C478.641 49.5332 479.818 49.2227 481.107 49.2227C483.146 49.2227 484.664 49.7969 485.66 50.9453C486.656 52.0938 487.16 53.8164 487.172 56.1133V68.5938H485.08V56.0957C485.068 54.3965 484.705 53.1309 483.99 52.2988C483.287 51.4668 482.156 51.0508 480.598 51.0508C479.297 51.0508 478.143 51.4609 477.135 52.2812C476.139 53.0898 475.4 54.1855 474.92 55.5684V68.5938H472.828V49.5742H474.832Z" fill="black"/>
<path d="M499.652 67.1699C501.117 67.1699 502.342 66.7598 503.326 65.9395C504.322 65.1074 504.861 64.0352 504.943 62.7227H506.965C506.906 63.8828 506.543 64.9434 505.875 65.9043C505.207 66.8535 504.316 67.5977 503.203 68.1367C502.102 68.6758 500.918 68.9453 499.652 68.9453C497.156 68.9453 495.176 68.0781 493.711 66.3438C492.258 64.6094 491.531 62.2773 491.531 59.3477V58.7148C491.531 56.8398 491.859 55.1816 492.516 53.7402C493.172 52.2988 494.109 51.1855 495.328 50.4004C496.559 49.6152 497.994 49.2227 499.635 49.2227C501.721 49.2227 503.438 49.8438 504.785 51.0859C506.145 52.3281 506.871 53.9629 506.965 55.9902H504.943C504.85 54.502 504.311 53.3008 503.326 52.3867C502.354 51.4727 501.123 51.0156 499.635 51.0156C497.736 51.0156 496.26 51.7012 495.205 53.0723C494.162 54.4434 493.641 56.3652 493.641 58.8379V59.4531C493.641 61.8789 494.162 63.7715 495.205 65.1309C496.26 66.4902 497.742 67.1699 499.652 67.1699Z" fill="black"/>
<path d="M518.549 68.9453C516.932 68.9453 515.467 68.5469 514.154 67.75C512.854 66.9531 511.84 65.8457 511.113 64.4277C510.387 62.998 510.023 61.3984 510.023 59.6289V58.873C510.023 57.0449 510.375 55.3984 511.078 53.9336C511.793 52.4688 512.783 51.3203 514.049 50.4883C515.314 49.6445 516.686 49.2227 518.162 49.2227C520.471 49.2227 522.299 50.0137 523.646 51.5957C525.006 53.166 525.686 55.3164 525.686 58.0469V59.2246H512.115V59.6289C512.115 61.7852 512.73 63.584 513.961 65.0254C515.203 66.4551 516.762 67.1699 518.637 67.1699C519.762 67.1699 520.752 66.9648 521.607 66.5547C522.475 66.1445 523.26 65.4883 523.963 64.5859L525.281 65.5879C523.734 67.8262 521.49 68.9453 518.549 68.9453ZM518.162 51.0156C516.58 51.0156 515.244 51.5957 514.154 52.7559C513.076 53.916 512.42 55.4746 512.186 57.4316H523.594V57.2031C523.535 55.375 523.014 53.8867 522.029 52.7383C521.045 51.5898 519.756 51.0156 518.162 51.0156Z" fill="black"/>
<path d="M540.891 68.5938H538.781V49.5742H540.891V68.5938ZM538.412 44.0723C538.412 43.6738 538.541 43.3398 538.799 43.0703C539.057 42.7891 539.408 42.6484 539.854 42.6484C540.299 42.6484 540.65 42.7891 540.908 43.0703C541.178 43.3398 541.312 43.6738 541.312 44.0723C541.312 44.4707 541.178 44.8047 540.908 45.0742C540.65 45.3438 540.299 45.4785 539.854 45.4785C539.408 45.4785 539.057 45.3438 538.799 45.0742C538.541 44.8047 538.412 44.4707 538.412 44.0723Z" fill="black"/>
<path d="M549.891 44.7051V49.5742H553.828V51.2969H549.891V63.9707C549.891 65.0254 550.078 65.8105 550.453 66.3262C550.84 66.8418 551.479 67.0996 552.369 67.0996C552.721 67.0996 553.289 67.041 554.074 66.9238L554.162 68.6465C553.611 68.8457 552.861 68.9453 551.912 68.9453C550.471 68.9453 549.422 68.5293 548.766 67.6973C548.109 66.8535 547.781 65.6172 547.781 63.9883V51.2969H544.283V49.5742H547.781V44.7051H549.891Z" fill="black"/>
<path d="M569.297 68.5938H567.188V49.5742H569.297V68.5938ZM566.818 44.0723C566.818 43.6738 566.947 43.3398 567.205 43.0703C567.463 42.7891 567.814 42.6484 568.26 42.6484C568.705 42.6484 569.057 42.7891 569.314 43.0703C569.584 43.3398 569.719 43.6738 569.719 44.0723C569.719 44.4707 569.584 44.8047 569.314 45.0742C569.057 45.3438 568.705 45.4785 568.26 45.4785C567.814 45.4785 567.463 45.3438 567.205 45.0742C566.947 44.8047 566.818 44.4707 566.818 44.0723Z" fill="black"/>
<path d="M577.031 49.5742L577.102 52.8262C577.816 51.6543 578.707 50.7637 579.773 50.1543C580.84 49.5332 582.018 49.2227 583.307 49.2227C585.346 49.2227 586.863 49.7969 587.859 50.9453C588.855 52.0938 589.359 53.8164 589.371 56.1133V68.5938H587.279V56.0957C587.268 54.3965 586.904 53.1309 586.189 52.2988C585.486 51.4668 584.355 51.0508 582.797 51.0508C581.496 51.0508 580.342 51.4609 579.334 52.2812C578.338 53.0898 577.6 54.1855 577.119 55.5684V68.5938H575.027V49.5742H577.031Z" fill="black"/>
<path d="M615.58 68.5938C615.369 67.9961 615.234 67.1113 615.176 65.9395C614.438 66.9004 613.494 67.6445 612.346 68.1719C611.209 68.6875 610.002 68.9453 608.725 68.9453C606.896 68.9453 605.414 68.4355 604.277 67.416C603.152 66.3965 602.59 65.1074 602.59 63.5488C602.59 61.6973 603.357 60.2324 604.893 59.1543C606.439 58.0762 608.59 57.5371 611.344 57.5371H615.158V55.375C615.158 54.0156 614.736 52.9492 613.893 52.1758C613.061 51.3906 611.842 50.998 610.236 50.998C608.771 50.998 607.559 51.373 606.598 52.123C605.637 52.873 605.156 53.7754 605.156 54.8301L603.047 54.8125C603.047 53.3008 603.75 51.9941 605.156 50.8926C606.562 49.7793 608.291 49.2227 610.342 49.2227C612.463 49.2227 614.133 49.7559 615.352 50.8223C616.582 51.877 617.215 53.3535 617.25 55.252V64.252C617.25 66.0918 617.443 67.4688 617.83 68.3828V68.5938H615.58ZM608.971 67.082C610.377 67.082 611.631 66.7422 612.732 66.0625C613.846 65.3828 614.654 64.4746 615.158 63.3379V59.1543H611.396C609.299 59.1777 607.658 59.5645 606.475 60.3145C605.291 61.0527 604.699 62.0723 604.699 63.373C604.699 64.4395 605.092 65.3242 605.877 66.0273C606.674 66.7305 607.705 67.082 608.971 67.082Z" fill="black"/>
<path d="M629.906 67.1699C631.371 67.1699 632.596 66.7598 633.58 65.9395C634.576 65.1074 635.115 64.0352 635.197 62.7227H637.219C637.16 63.8828 636.797 64.9434 636.129 65.9043C635.461 66.8535 634.57 67.5977 633.457 68.1367C632.355 68.6758 631.172 68.9453 629.906 68.9453C627.41 68.9453 625.43 68.0781 623.965 66.3438C622.512 64.6094 621.785 62.2773 621.785 59.3477V58.7148C621.785 56.8398 622.113 55.1816 622.77 53.7402C623.426 52.2988 624.363 51.1855 625.582 50.4004C626.812 49.6152 628.248 49.2227 629.889 49.2227C631.975 49.2227 633.691 49.8438 635.039 51.0859C636.398 52.3281 637.125 53.9629 637.219 55.9902H635.197C635.104 54.502 634.564 53.3008 633.58 52.3867C632.607 51.4727 631.377 51.0156 629.889 51.0156C627.99 51.0156 626.514 51.7012 625.459 53.0723C624.416 54.4434 623.895 56.3652 623.895 58.8379V59.4531C623.895 61.8789 624.416 63.7715 625.459 65.1309C626.514 66.4902 627.996 67.1699 629.906 67.1699Z" fill="black"/>
<path d="M644.707 44.7051V49.5742H648.645V51.2969H644.707V63.9707C644.707 65.0254 644.895 65.8105 645.27 66.3262C645.656 66.8418 646.295 67.0996 647.186 67.0996C647.537 67.0996 648.105 67.041 648.891 66.9238L648.979 68.6465C648.428 68.8457 647.678 68.9453 646.729 68.9453C645.287 68.9453 644.238 68.5293 643.582 67.6973C642.926 66.8535 642.598 65.6172 642.598 63.9883V51.2969H639.1V49.5742H642.598V44.7051H644.707Z" fill="black"/>
<path d="M655.359 68.5938H653.25V49.5742H655.359V68.5938ZM652.881 44.0723C652.881 43.6738 653.01 43.3398 653.268 43.0703C653.525 42.7891 653.877 42.6484 654.322 42.6484C654.768 42.6484 655.119 42.7891 655.377 43.0703C655.646 43.3398 655.781 43.6738 655.781 44.0723C655.781 44.4707 655.646 44.8047 655.377 45.0742C655.119 45.3438 654.768 45.4785 654.322 45.4785C653.877 45.4785 653.525 45.3438 653.268 45.0742C653.01 44.8047 652.881 44.4707 652.881 44.0723Z" fill="black"/>
<path d="M659.93 58.8027C659.93 56.9746 660.281 55.3281 660.984 53.8633C661.699 52.3984 662.701 51.2617 663.99 50.4531C665.291 49.6328 666.762 49.2227 668.402 49.2227C670.934 49.2227 672.984 50.1133 674.555 51.8945C676.125 53.6641 676.91 56.0137 676.91 58.9434V59.3828C676.91 61.2227 676.553 62.8809 675.838 64.3574C675.135 65.8223 674.139 66.9531 672.85 67.75C671.561 68.5469 670.09 68.9453 668.438 68.9453C665.918 68.9453 663.867 68.0605 662.285 66.291C660.715 64.5098 659.93 62.1543 659.93 59.2246V58.8027ZM662.039 59.3828C662.039 61.6562 662.625 63.5254 663.797 64.9902C664.98 66.4434 666.527 67.1699 668.438 67.1699C670.336 67.1699 671.871 66.4434 673.043 64.9902C674.227 63.5254 674.818 61.5977 674.818 59.207V58.8027C674.818 57.3496 674.549 56.0195 674.01 54.8125C673.471 53.6055 672.715 52.6738 671.742 52.0176C670.77 51.3496 669.656 51.0156 668.402 51.0156C666.527 51.0156 664.998 51.7539 663.814 53.2305C662.631 54.6953 662.039 56.6172 662.039 58.9961V59.3828Z" fill="black"/>
<path d="M683.273 49.5742L683.344 52.8262C684.059 51.6543 684.949 50.7637 686.016 50.1543C687.082 49.5332 688.26 49.2227 689.549 49.2227C691.588 49.2227 693.105 49.7969 694.102 50.9453C695.098 52.0938 695.602 53.8164 695.613 56.1133V68.5938H693.521V56.0957C693.51 54.3965 693.146 53.1309 692.432 52.2988C691.729 51.4668 690.598 51.0508 689.039 51.0508C687.738 51.0508 686.584 51.4609 685.576 52.2812C684.58 53.0898 683.842 54.1855 683.361 55.5684V68.5938H681.27V49.5742H683.273Z" fill="black"/>
<path d="M319.148 50.0078H322.055C323.664 50.0078 325.07 49.7266 326.273 49.1641C327.477 48.5859 328.391 47.8047 329.016 46.8203C329.656 45.8203 329.977 44.6719 329.977 43.375C329.977 41.1875 329.359 39.4766 328.125 38.2422C326.891 37.0078 325.117 36.3906 322.805 36.3906C320.617 36.3906 318.82 37.0391 317.414 38.3359C316.023 39.6172 315.328 41.3125 315.328 43.4219H312.516C312.516 41.6562 312.961 40.0469 313.852 38.5938C314.742 37.125 315.977 35.9922 317.555 35.1953C319.133 34.3984 320.883 34 322.805 34C325.898 34 328.336 34.8438 330.117 36.5312C331.898 38.2188 332.789 40.5312 332.789 43.4688C332.789 45.1094 332.266 46.625 331.219 48.0156C330.188 49.3906 328.766 50.4219 326.953 51.1094C329.078 51.7031 330.688 52.7266 331.781 54.1797C332.875 55.6172 333.422 57.3359 333.422 59.3359C333.422 62.2578 332.469 64.6094 330.562 66.3906C328.656 68.1719 326.109 69.0625 322.922 69.0625C320.891 69.0625 319.023 68.6562 317.32 67.8438C315.633 67.0312 314.32 65.8984 313.383 64.4453C312.461 62.9766 312 61.2734 312 59.3359H314.812C314.812 61.5078 315.57 63.2812 317.086 64.6562C318.602 66.0156 320.547 66.6953 322.922 66.6953C325.344 66.6953 327.227 66.0781 328.57 64.8438C329.93 63.5938 330.609 61.7891 330.609 59.4297C330.609 57.1484 329.875 55.4062 328.406 54.2031C326.953 53 324.805 52.3984 321.961 52.3984H319.148V50.0078Z" fill="#2F80ED"/>
<path d="M339.727 66.9062C339.727 66.3594 339.898 65.8984 340.242 65.5234C340.602 65.1328 341.094 64.9375 341.719 64.9375C342.344 64.9375 342.836 65.1328 343.195 65.5234C343.555 65.8984 343.734 66.3594 343.734 66.9062C343.734 67.4531 343.555 67.9062 343.195 68.2656C342.836 68.6094 342.344 68.7812 341.719 68.7812C341.094 68.7812 340.602 68.6094 340.242 68.2656C339.898 67.9062 339.727 67.4531 339.727 66.9062Z" fill="#2F80ED"/>
<g filter="url(#filter1_i)">
<rect width="402.091" height="100" fill="black" fill-opacity="0" transform="translate(308 112)"/>
<rect width="100" height="100" fill="black" fill-opacity="0" transform="translate(308 112)"/>
<path d="M308 112V191.167H408V112H308ZM399.667 182.833H316.333V120.333H399.667V182.833ZM372.171 199.5L383 212H333L343.829 199.5H372.171Z" fill="#2F80ED"/>
<rect width="109.091" height="100" fill="black" fill-opacity="0" transform="translate(601 112)"/>
<path d="M655.545 112C626.736 112 601 131.209 601 157.486C601 166.805 604.359 175.955 610.305 183.055C610.555 191.373 605.655 203.309 601.245 212C613.073 209.864 629.886 205.145 637.509 200.473C679.491 210.686 710.091 184.995 710.091 157.486C710.091 131.068 684.177 112 655.545 112ZM632.818 164.273C629.05 164.273 626 161.223 626 157.455C626 153.686 629.05 150.636 632.818 150.636C636.586 150.636 639.636 153.686 639.636 157.455C639.636 161.223 636.586 164.273 632.818 164.273ZM655.545 164.273C651.777 164.273 648.727 161.223 648.727 157.455C648.727 153.686 651.777 150.636 655.545 150.636C659.314 150.636 662.364 153.686 662.364 157.455C662.364 161.223 659.314 164.273 655.545 164.273ZM678.273 164.273C674.509 164.273 671.455 161.223 671.455 157.455C671.455 153.686 674.509 150.636 678.273 150.636C682.041 150.636 685.091 153.686 685.091 157.455C685.091 161.223 682.041 164.273 678.273 164.273Z" fill="#2F80ED"/>
<circle cx="462.5" cy="161.5" r="7.5" fill="black"/>
<circle cx="504.5" cy="161.5" r="7.5" fill="black"/>
<circle cx="546.5" cy="161.5" r="7.5" fill="black"/>
</g>
<defs>
<filter id="filter0_d" x="0" y="0" width="1008" height="308" filterUnits="userSpaceOnUse" color-interpolation-filters="sRGB">
<feFlood flood-opacity="0" result="BackgroundImageFix"/>
<feColorMatrix in="SourceAlpha" type="matrix" values="0 0 0 0 0 0 0 0 0 0 0 0 0 0 0 0 0 0 255 0"/>
<feOffset dy="4"/>
<feGaussianBlur stdDeviation="2"/>
<feColorMatrix type="matrix" values="0 0 0 0 0 0 0 0 0 0 0 0 0 0 0 0 0 0 0.25 0"/>
<feBlend mode="normal" in2="BackgroundImageFix" result="effect1_dropShadow"/>
<feBlend mode="normal" in="SourceGraphic" in2="effect1_dropShadow" result="shape"/>
</filter>
<filter id="filter1_i" x="308" y="112" width="402.091" height="104" filterUnits="userSpaceOnUse" color-interpolation-filters="sRGB">
<feFlood flood-opacity="0" result="BackgroundImageFix"/>
<feBlend mode="normal" in="SourceGraphic" in2="BackgroundImageFix" result="shape"/>
<feColorMatrix in="SourceAlpha" type="matrix" values="0 0 0 0 0 0 0 0 0 0 0 0 0 0 0 0 0 0 255 0" result="hardAlpha"/>
<feOffset dy="4"/>
<feGaussianBlur stdDeviation="2"/>
<feComposite in2="hardAlpha" operator="arithmetic" k2="-1" k3="1"/>
<feColorMatrix type="matrix" values="0 0 0 0 0 0 0 0 0 0 0 0 0 0 0 0 0 0 0.25 0"/>
<feBlend mode="normal" in2="shape" result="effect1_innerShadow"/>
</filter>
</defs>
</svg>
