<svg width="92" height="100" viewBox="0 0 92 100" fill="none" xmlns="http://www.w3.org/2000/svg">
<rect width="91.6667" height="100" fill="black" fill-opacity="0"/>
<path d="M66.6667 50C52.8625 50 41.6667 61.1958 41.6667 75C41.6667 88.8042 52.8625 100 66.6667 100C80.4708 100 91.6667 88.8042 91.6667 75C91.6667 61.1958 80.4708 50 66.6667 50ZM68.75 85.3083V87.5H66.6667V85.4208C64.5083 85.3833 62.2792 84.8708 60.4167 83.9083L61.3667 80.4833C63.3583 81.2583 66.0083 82.0792 68.0833 81.6083C70.475 81.0667 70.9667 78.6042 68.3208 77.4208C66.3833 76.5167 60.45 75.7458 60.45 70.6625C60.45 67.825 62.6167 65.2792 66.6667 64.725V62.5H68.75V64.6208C70.2583 64.6625 71.95 64.925 73.8375 65.4958L73.0833 68.9292C71.4833 68.3667 69.7167 67.8583 67.9917 67.9625C64.8917 68.1417 64.6167 70.8292 66.7833 71.9542C70.35 73.6292 75 74.8708 75 79.3417C75.0042 82.9167 72.2 84.8208 68.75 85.3083ZM75.5167 42.8958C80.2333 41.9667 84.525 40.2875 87.5 37.9083V40.625C87.5 42.7042 85.8917 44.6042 83.3042 46.1583C80.8833 44.7542 78.2708 43.6583 75.5167 42.8958V42.8958ZM66.6667 18.75C77.8042 18.75 87.5 14.5542 87.5 9.375C87.5 4.19583 77.8042 0 66.6667 0C55.5333 0 45.8333 4.19583 45.8333 9.375C45.8333 14.5542 55.5333 18.75 66.6667 18.75ZM67.0542 10.3792C65.8083 10.0042 61.9958 9.6875 61.9958 7.56667C61.9958 6.38333 63.3875 5.32917 65.9875 5.09583V4.16667H67.325V5.04583C68.3 5.06667 69.3833 5.17083 70.5917 5.42083L70.1083 6.84583C69.1875 6.63333 68.1625 6.43333 67.1583 6.43333L66.8583 6.4375C64.85 6.52083 64.6875 7.63333 66.075 8.1C68.3542 8.80417 71.3542 9.31667 71.3542 11.1833C71.3542 12.6708 69.5458 13.4667 67.325 13.6667V14.5833H65.9875V13.7167C64.6208 13.7042 63.1708 13.4833 61.9792 13.0833L62.5917 11.6542C63.6083 11.9167 64.8917 12.1792 66.0417 12.1792L66.9083 12.1208C68.4458 11.9 68.7542 10.8708 67.0542 10.3792ZM20.8333 64.5833C26.8542 64.5833 32.3958 63.3292 36.2708 61.3833C37.5667 58.5083 39.2458 55.8458 41.2625 53.4708C39.3833 49.125 30.6833 45.8333 20.8333 45.8333C9.7 45.8333 0 50.0292 0 55.2083C0 60.3875 9.7 64.5833 20.8333 64.5833V64.5833ZM21.2208 56.2125C19.975 55.8375 16.1625 55.5208 16.1625 53.4C16.1625 52.2167 17.5583 51.1625 20.1542 50.9292V50H21.4917V50.8792C22.4667 50.9 23.55 51.0042 24.7583 51.2542L24.2708 52.6792C23.3542 52.4667 22.3292 52.2667 21.325 52.2667L21.025 52.2708C19.0167 52.3542 18.8583 53.4667 20.2417 53.9333C22.5208 54.6375 25.5208 55.15 25.5208 57.0167C25.5208 58.5042 23.7125 59.3 21.4917 59.5V60.4167H20.1542V59.55C18.7833 59.5375 17.3375 59.3167 16.1458 58.9167L16.7583 57.4875C17.775 57.75 19.0583 58.0125 20.2083 58.0125L21.075 57.9542C22.6083 57.7333 22.9208 56.7042 21.2208 56.2125V56.2125ZM37.9 91.7583C34.0708 94.2167 27.7333 95.8333 20.8333 95.8333C9.7 95.8333 0 91.6375 0 86.4583V83.7417C4.775 87.5667 12.9542 89.5833 20.8333 89.5833C25.9833 89.5833 31.2458 88.7042 35.6208 87.0375C36.2583 88.6792 37.0208 90.2583 37.9 91.7583ZM0 76.0417V73.3292C4.775 77.15 12.9542 79.1667 20.8333 79.1667C25.1625 79.1667 29.5583 78.5375 33.45 77.3542C33.5875 79.3083 33.8958 81.2125 34.3583 83.0625C30.6583 84.5083 25.925 85.4167 20.8333 85.4167C9.7 85.4167 0 81.2208 0 76.0417V76.0417ZM0 65.625V62.9083C4.775 66.7333 12.9542 68.75 20.8333 68.75C25.5292 68.75 30.3125 68.0167 34.4417 66.6292C33.9083 68.6833 33.5667 70.8042 33.4375 72.9875C29.8792 74.2292 25.5083 75 20.8333 75C9.7 75 0 70.8042 0 65.625ZM45.8333 19.7917V17.075C50.6083 20.9 58.7875 22.9167 66.6667 22.9167C74.55 22.9167 82.725 20.9 87.5 17.075V19.7917C87.5 24.9708 77.8042 29.1667 66.6667 29.1667C55.5333 29.1667 45.8333 24.9708 45.8333 19.7917ZM45.8333 40.625V37.9083C48.8042 40.2875 53.1 41.9667 57.8167 42.8958C55.0625 43.6583 52.4542 44.7542 50.0333 46.1583C47.4417 44.6042 45.8333 42.7042 45.8333 40.625V40.625ZM45.8333 30.2083V27.4958C50.6083 31.3167 58.7875 33.3333 66.6667 33.3333C74.55 33.3333 82.725 31.3167 87.5 27.4958V30.2083C87.5 35.3875 77.8042 39.5833 66.6667 39.5833C55.5333 39.5833 45.8333 35.3875 45.8333 30.2083Z" fill="#2F80ED"/>
</svg>
