<svg width="100" height="100" viewBox="0 0 100 100" fill="none" xmlns="http://www.w3.org/2000/svg">
<g filter="url(#filter0_i)">
<rect width="100" height="100" fill="black" fill-opacity="0"/>
<path d="M59.325 63.95C59.6792 64.3 59.6792 64.8708 59.325 65.225C57.3875 67.15 54.35 68.0875 50.0292 68.0875L49.9958 68.0792L49.9625 68.0875C45.6458 68.0875 42.6042 67.15 40.6667 65.2208C40.3125 64.8708 40.3125 64.3 40.6667 63.95C41.0167 63.6 41.5917 63.6 41.9458 63.95C43.525 65.5208 46.1458 66.2875 49.9625 66.2875L49.9958 66.2958L50.0292 66.2875C53.8417 66.2875 56.4625 65.5208 58.0458 63.95C58.4 63.6 58.975 63.6 59.325 63.95ZM44.9917 53.875C44.9917 51.7625 43.2667 50.0458 41.15 50.0458C39.0292 50.0458 37.3042 51.7625 37.3042 53.875C37.3042 55.9833 39.0292 57.7 41.15 57.7C43.2667 57.7042 44.9917 55.9875 44.9917 53.875ZM100 50C100 77.6125 77.6125 100 50 100C22.3875 100 0 77.6125 0 50C0 22.3875 22.3875 0 50 0C77.6125 0 100 22.3875 100 50ZM79.1667 49.4625C79.1667 45.9167 76.2708 43.0333 72.7083 43.0333C70.9708 43.0333 69.3958 43.7292 68.2333 44.8458C63.8333 41.95 57.8792 40.1083 51.2917 39.8708L54.8958 28.5208L64.6583 30.8083L64.6458 30.95C64.6458 33.85 67.0167 36.2083 69.9292 36.2083C72.8417 36.2083 75.2083 33.85 75.2083 30.95C75.2083 28.05 72.8417 25.6917 69.9292 25.6917C67.6917 25.6917 65.7875 27.0875 65.0167 29.0417L54.4958 26.575C54.0375 26.4625 53.5667 26.7292 53.425 27.1792L49.4042 39.8375C42.5042 39.9208 36.2583 41.7792 31.6625 44.7583C30.5083 43.6958 28.9792 43.0292 27.2875 43.0292C23.7292 43.0333 20.8333 45.9167 20.8333 49.4625C20.8333 51.8208 22.1292 53.8625 24.0333 54.9833C23.9083 55.6667 23.825 56.3625 23.825 57.0667C23.825 66.5708 35.5125 74.3042 49.8792 74.3042C64.2458 74.3042 75.9333 66.5708 75.9333 57.0667C75.9333 56.4 75.8625 55.7458 75.75 55.1C77.775 54.0125 79.1667 51.9083 79.1667 49.4625V49.4625ZM58.8667 50.05C56.7458 50.05 55.025 51.7667 55.025 53.8792C55.025 55.9875 56.75 57.7042 58.8667 57.7042C60.9833 57.7042 62.7083 55.9875 62.7083 53.8792C62.7083 51.7667 60.9875 50.05 58.8667 50.05Z" fill="#2F80ED"/>
</g>
<defs>
<filter id="filter0_i" x="0" y="0" width="100" height="104" filterUnits="userSpaceOnUse" color-interpolation-filters="sRGB">
<feFlood flood-opacity="0" result="BackgroundImageFix"/>
<feBlend mode="normal" in="SourceGraphic" in2="BackgroundImageFix" result="shape"/>
<feColorMatrix in="SourceAlpha" type="matrix" values="0 0 0 0 0 0 0 0 0 0 0 0 0 0 0 0 0 0 255 0" result="hardAlpha"/>
<feOffset dy="4"/>
<feGaussianBlur stdDeviation="2"/>
<feComposite in2="hardAlpha" operator="arithmetic" k2="-1" k3="1"/>
<feColorMatrix type="matrix" values="0 0 0 0 0 0 0 0 0 0 0 0 0 0 0 0 0 0 0.25 0"/>
<feBlend mode="normal" in2="shape" result="effect1_innerShadow"/>
</filter>
</defs>
</svg>
