<svg width="100" height="100" viewBox="0 0 100 100" fill="none" xmlns="http://www.w3.org/2000/svg">
<g filter="url(#filter0_i)">
<rect width="100" height="100" fill="black" fill-opacity="0"/>
<path fill-rule="evenodd" clip-rule="evenodd" d="M50 0C22.3917 0 0 22.3833 0 50C0 77.6125 22.3917 100 50 100C77.6125 100 100 77.6125 100 50C100 22.3833 77.6125 0 50 0ZM75.9375 59.0833L70.0292 61.0583L72.0708 67.1708C72.875 69.6458 71.5625 72.3375 69.0833 73.1375C66.2875 73.9292 63.8625 72.3583 63.0958 70.1583L61.0542 64.0375L48.8708 68.1167L50.9125 74.2333C51.8625 77.1583 49.8583 80.4125 46.4625 80.4125C44.3208 80.4125 42.5708 79.0417 41.9417 77.2167L39.8917 71.1L33.9833 73.0667C31.225 73.8667 28.7708 72.2958 28 70.0792C27.2 67.6083 28.5125 64.9125 30.9917 64.1125L36.9 62.1458L32.9625 50.4208L27.05 52.3875C23.7583 53.3208 20.8333 50.9542 20.8333 47.9167C20.8333 45.9292 22.0708 44.0708 24.0583 43.4292L29.9708 41.4625L27.925 35.35C27.125 32.8708 28.4375 30.175 30.9208 29.375C33.4 28.575 36.0958 29.8833 36.9 32.3625L38.95 38.475L51.1292 34.4L49.0875 28.2833C48.1083 25.275 50.2667 22.0792 53.5667 22.0792C55.5583 22.0792 57.4208 23.3167 58.0667 25.3L60.1083 31.4167L66.0167 29.45C68.4958 28.6458 71.1958 29.9625 72 32.4375C72.8042 34.9125 71.4875 37.6042 69.0083 38.4042L63.0958 40.3708L67.0375 52.0958L72.95 50.1292C75.9708 49.1542 79.1667 51.3042 79.1667 54.5958C79.1667 56.5875 77.9292 58.4417 75.9375 59.0833V59.0833ZM54.0833 43.4625L41.9083 47.5333L45.8417 59.2667L58.0208 55.2L54.0833 43.4625V43.4625Z" fill="#2F80ED"/>
</g>
<defs>
<filter id="filter0_i" x="0" y="0" width="100" height="104" filterUnits="userSpaceOnUse" color-interpolation-filters="sRGB">
<feFlood flood-opacity="0" result="BackgroundImageFix"/>
<feBlend mode="normal" in="SourceGraphic" in2="BackgroundImageFix" result="shape"/>
<feColorMatrix in="SourceAlpha" type="matrix" values="0 0 0 0 0 0 0 0 0 0 0 0 0 0 0 0 0 0 255 0" result="hardAlpha"/>
<feOffset dy="4"/>
<feGaussianBlur stdDeviation="2"/>
<feComposite in2="hardAlpha" operator="arithmetic" k2="-1" k3="1"/>
<feColorMatrix type="matrix" values="0 0 0 0 0 0 0 0 0 0 0 0 0 0 0 0 0 0 0.25 0"/>
<feBlend mode="normal" in2="shape" result="effect1_innerShadow"/>
</filter>
</defs>
</svg>
